<svg xmlns="http://www.w3.org/2000/svg" width="23.542" height="23.542"
    viewBox="1775.106 69.071 23.542 23.542">
    <path
        d="M1797.722 76.26a11.73 11.73 0 0 0-2.522-3.742 11.742 11.742 0 0 0-8.323-3.447 11.747 11.747 0 0 0-8.324 3.447 11.748 11.748 0 0 0-3.447 8.324 11.744 11.744 0 0 0 3.447 8.323 11.73 11.73 0 0 0 8.324 3.448 11.726 11.726 0 0 0 8.323-3.448 11.726 11.726 0 0 0 3.448-8.323c0-1.589-.312-3.13-.926-4.582Zm-3.899 11.53a9.76 9.76 0 0 1-6.948 2.878 9.76 9.76 0 0 1-6.948-2.878 9.748 9.748 0 0 1-2.78-5.557h8.697c-.28.985-.726 2.166-1.06 3.004a.398.398 0 0 0 .569.492l7.523-4.343a.629.629 0 0 0 0-1.089l-7.523-4.342a.398.398 0 0 0-.569.492c.334.837.78 2.018 1.06 3.003h-8.697a9.746 9.746 0 0 1 2.78-5.556 9.76 9.76 0 0 1 6.948-2.878 9.76 9.76 0 0 1 6.948 2.878 9.761 9.761 0 0 1 2.878 6.948 9.763 9.763 0 0 1-2.878 6.948Z"
        fill="#fff" fill-rule="evenodd" data-name="Path 19934" />
</svg>
