<?xml version="1.0" encoding="utf-8"?>
<!-- Generator: Adobe Illustrator 26.0.2, SVG Export Plug-In . SVG Version: 6.00 Build 0)  -->
<svg version="1.1" id="Camada_1" xmlns="http://www.w3.org/2000/svg" xmlns:xlink="http://www.w3.org/1999/xlink" x="0px" y="0px"
	 viewBox="0 0 512 512" style="enable-background:new 0 0 512 512;" xml:space="preserve">
<style type="text/css">
	.st0{fill:#FFFFFF;}
</style>
<path class="st0" d="M489.5,157.2c-12.8-30.2-31-57.2-54.3-80.5c-23.2-23.2-50.3-41.5-80.5-54.3C323.5,9.3,290.4,2.6,256.2,2.6
	s-67.3,6.7-98.6,19.9c-30.2,12.8-57.2,31-80.5,54.3c-23.2,23.2-41.5,50.3-54.3,80.5C9.7,188.5,3,221.6,3,255.8s6.7,67.3,19.9,98.6
	c12.8,30.2,31,57.2,54.3,80.5c23.2,23.2,50.3,41.5,80.5,54.3c31.2,13.2,64.4,19.9,98.6,19.9s67.3-6.7,98.6-19.9
	c30.2-12.8,57.2-31,80.5-54.3c23.2-23.2,41.5-50.3,54.3-80.5c13.2-31.2,19.9-64.4,19.9-98.6S502.7,188.5,489.5,157.2z M400.3,399.9
	c-38.5,38.5-89.7,59.7-144.1,59.7c-54.4,0-105.6-21.2-144.1-59.7c-31.6-31.6-51.5-71.7-57.7-115.2h180.4
	c-5.8,20.4-15.1,44.9-22,62.3c-2.9,7.3,5,14.1,11.8,10.2l156-90.1c8.7-5,8.7-17.6,0-22.6l-156-90.1c-6.8-3.9-14.7,2.9-11.8,10.2
	c6.9,17.4,16.2,41.9,22,62.3H54.5c6.1-43.5,26.1-83.6,57.7-115.2C150.6,73.2,201.8,52,256.2,52c54.4,0,105.6,21.2,144.1,59.7
	c38.5,38.5,59.7,89.7,59.7,144.1C460,310.2,438.8,361.4,400.3,399.9z"/>
</svg>
