<?xml version="1.0" encoding="UTF-8" standalone="no"?>
<svg
   xmlns:dc="http://purl.org/dc/elements/1.1/"
   xmlns:cc="http://creativecommons.org/ns#"
   xmlns:rdf="http://www.w3.org/1999/02/22-rdf-syntax-ns#"
   xmlns:svg="http://www.w3.org/2000/svg"
   xmlns="http://www.w3.org/2000/svg"
   viewBox="0 0 57.143246 41.576862"
   height="41.576862"
   width="57.143246"
   xml:space="preserve"
   id="svg2"
   version="1.1"><metadata
     id="metadata8"><rdf:RDF><cc:Work
         rdf:about=""><dc:format>image/svg+xml</dc:format><dc:type
           rdf:resource="http://purl.org/dc/dcmitype/StillImage" /><dc:title></dc:title></cc:Work></rdf:RDF></metadata><defs
     id="defs6"><clipPath
       id="clipPath22"
       clipPathUnits="userSpaceOnUse"><path
         id="path20"
         d="M 0,1080 H 1920 V 0 H 0 Z" /></clipPath><clipPath
       id="clipPath122"
       clipPathUnits="userSpaceOnUse"><path
         id="path120"
         d="m 772.38,909.416 h 375.24 V 859.355 H 772.38 Z" /></clipPath><clipPath
       id="clipPath126"
       clipPathUnits="userSpaceOnUse"><path
         id="path124"
         d="m 772.38,909.416 h 375.24 V 859.355 H 772.38 Z" /></clipPath><clipPath
       id="clipPath150"
       clipPathUnits="userSpaceOnUse"><path
         id="path148"
         d="m 1096.74,909.416 h 11.68 v -50.061 h -11.68 z" /></clipPath><clipPath
       id="clipPath154"
       clipPathUnits="userSpaceOnUse"><path
         id="path152"
         d="m 1096.74,909.416 h 11.68 v -50.061 h -11.68 z" /></clipPath><clipPath
       id="clipPath174"
       clipPathUnits="userSpaceOnUse"><path
         id="path172"
         d="m 1373.858,539.965 1.638,-18.582 c 0.01,0.002 0.019,0.005 0.028,0.008 v 0 L 1374.839,540 Z m -10.807,-3.538 6.549,-18.037 c 0.01,0.006 0.015,0.011 0.023,0.016 v 0 l -5.642,18.334 z m 6.57,-2.681 2.74,-13.652 c 0.01,0.003 0.011,0.006 0.017,0.009 v 0 l -1.891,13.84 c -0.29,-0.062 -0.579,-0.126 -0.866,-0.197 m -9.651,-4.642 7.454,-12.585 c 0.011,0.011 0.021,0.022 0.031,0.032 v 0 l -6.696,13.133 c -0.267,-0.19 -0.531,-0.381 -0.789,-0.58 m -119.501,0.007 c -0.791,-0.122 -2.861,-0.122 -4.81,-0.122 v 0 h -40.734 c -1.948,0 -3.288,0.062 -4.75,0.122 v 0 h -0.73 l -1.278,-6.941 0.73,-0.183 c 1.583,2.192 3.349,2.923 5.785,2.923 v 0 h 15.587 c 0.244,-3.167 0.426,-7.672 0.426,-17.597 v 0 c 0,-11.933 -0.487,-18.023 -0.792,-22.224 v 0 c 1.766,0.122 3.653,0.242 5.419,0.242 v 0 c 1.767,0 3.714,-0.12 5.48,-0.242 v 0 c -0.304,4.201 -0.791,10.291 -0.791,22.224 v 0 c 0,9.925 0.122,14.43 0.366,17.597 v 0 h 15.587 c 2.435,0 4.262,-0.731 5.784,-2.923 v 0 l 0.67,0.183 -1.217,6.941 z m 113.636,-0.828 11.792,-13.574 c 0.01,0.012 0.017,0.023 0.025,0.034 v 0 l -11.073,14.182 z m 24.033,-2.691 -0.18,-3.726 c 0.939,0.096 1.894,0.158 2.871,0.158 v 0 c 11.492,0 19.656,-6.635 19.656,-17.695 v 0 c 0,-10.209 -6.882,-15.931 -16.024,-17.088 v 0 c -5.046,-0.892 -8.202,-2.147 -9.756,-2.884 v 0 c -0.729,-0.345 -1.106,-0.576 -1.161,-0.601 v 0 c -0.911,-0.468 -1.807,-0.996 -2.69,-1.59 v 0 c -3.371,-2.268 -6.529,-5.491 -9.415,-9.937 v 0 c 17.073,17.565 33.337,10.128 49.209,2.69 v 0 c 16.193,-7.587 31.979,-15.174 47.804,3.783 v 0 c -17.256,-12.167 -41.165,3.225 -62.711,7.187 v 0 c 9.606,3.589 15.481,10.681 15.481,19.325 v 0 c 0,13.018 -13.564,20.475 -30.015,20.475 v 0 c -1.044,0 -2.064,-0.038 -3.069,-0.097 m 178.314,-12.738 c 0,-17.171 32.818,-7.124 32.818,-18.022 v 0 c 0,-5.603 -7.123,-7.246 -14.43,-7.246 v 0 c -9.073,0 -17.232,3.409 -19.424,7.367 v 0 l -0.67,-0.244 1.827,-7.367 c 4.872,-2.131 9.559,-3.471 18.389,-3.471 v 0 c 7.367,0 22.102,1.095 22.102,12.969 v 0 c 0,17.658 -32.819,8.159 -32.819,18.023 v 0 c 0,4.871 7.672,6.088 13.213,6.088 v 0 c 6.211,0 12.97,-1.278 16.562,-5.418 v 0 l 0.669,0.243 -1.217,5.785 c -2.497,1.34 -8.099,3.105 -15.71,3.105 v 0 c -8.037,0 -21.31,-0.73 -21.31,-11.812 m -85.068,-9.073 c 0,-12.665 13.152,-19.91 29.044,-19.91 v 0 c 17.719,0 29.775,8.95 29.775,21.067 v 0 c 0,12.543 -13.153,19.728 -29.106,19.728 v 0 c -17.596,0 -29.713,-8.708 -29.713,-20.885 m 10.412,0.609 c 0,11.143 8.464,16.744 18.936,16.744 v 0 c 11.143,0 19.059,-6.393 19.059,-17.048 v 0 c 0,-11.082 -8.464,-16.683 -18.998,-16.683 v 0 c -11.204,0 -18.997,6.332 -18.997,16.987 m 136.339,18.814 c -4.261,0 -9.56,0.123 -13.822,0.244 v 0 c 0.365,-3.714 0.792,-6.088 0.792,-18.936 v 0 c 0,-10.412 -0.487,-15.709 -0.792,-19.423 v 0 c 4.201,0.122 9.377,0.242 13.578,0.242 v 0 c 4.75,0 9.986,-0.242 23.687,-0.242 v 0 c 1.034,0 1.217,0.06 1.643,0.975 v 0 l 3.227,6.696 -0.548,0.305 c -3.288,-3.409 -6.028,-3.836 -11.264,-3.836 v 0 h -20.338 c -0.06,4.506 -0.304,9.012 -0.304,13.517 v 0 h 13.457 c 2.375,0 7.977,-0.121 9.986,-0.669 v 0 c -0.183,1.095 -0.183,1.827 -0.183,2.739 v 0 c 0,0.853 0,1.644 0.183,2.741 v 0 c -2.009,-0.488 -7.611,-0.671 -9.986,-0.671 v 0 h -13.457 c 0,4.08 0.244,8.281 0.304,12.422 v 0 h 22.348 c 2.983,0 5.905,-0.427 7.123,-2.314 v 0 l 0.548,0.183 -1.156,5.48 c -0.122,0.609 -0.306,0.791 -0.914,0.791 v 0 c -14.43,0 -19.668,-0.244 -24.112,-0.244 m -75.202,0 c -1.644,0 -3.409,0.123 -5.053,0.244 v 0 c 0.364,-3.714 0.792,-6.088 0.792,-18.936 v 0 c 0,-10.412 -0.488,-15.709 -0.792,-19.423 v 0 c 1.644,0.122 3.409,0.242 5.053,0.242 v 0 c 1.705,0 3.471,-0.12 5.115,-0.242 v 0 c -0.304,3.714 -0.791,9.011 -0.791,19.423 v 0 c 0,12.848 0.425,15.222 0.791,18.936 v 0 c -1.644,-0.121 -3.41,-0.244 -5.115,-0.244 m -81.052,-0.06 c -1.219,0 -2.436,0.122 -3.166,0.304 v 0 c 0.852,-6.21 0.852,-12.482 0.852,-18.632 v 0 c 0,-11.873 -8.221,-16.562 -16.44,-16.562 v 0 c -7.551,0 -15.162,4.811 -15.162,16.501 v 0 2.314 c 0,5.419 0.061,10.96 0.792,16.379 v 0 c -1.339,-0.182 -3.349,-0.304 -5.358,-0.304 v 0 c -2.009,0 -4.018,0.122 -5.358,0.304 v 0 c 0.852,-6.21 0.852,-12.482 0.852,-18.693 v 0 c 0,-15.83 11.265,-20.884 22.529,-20.884 v 0 c 12.117,0 22.954,6.516 22.954,20.945 v 0 c 0,6.15 0,12.422 0.792,18.632 v 0 c -0.852,-0.182 -2.069,-0.304 -3.287,-0.304 m -152.354,0.06 c -2.497,0 -5.358,0.123 -7.854,0.244 v 0 c 0.365,-3.713 0.791,-6.088 0.791,-18.936 v 0 c 0,-10.412 -0.487,-15.709 -0.791,-19.423 v 0 c 1.643,0.122 3.41,0.242 5.053,0.242 v 0 c 1.705,0 3.471,-0.12 5.115,-0.242 v 0 c -0.304,3.228 -0.67,7.488 -0.731,14.978 v 0 h 9.864 c 11.204,0 5.723,-15.831 22.468,-15.831 v 0 c 4.627,0 7.611,1.156 9.803,2.618 v 0 l -0.366,0.671 c -1.766,-1.036 -3.409,-1.402 -5.296,-1.402 v 0 c -5.176,0 -6.82,5.724 -9.986,10.779 v 0 c -0.852,1.399 -1.827,2.738 -3.167,3.835 v 0 c 7.734,1.34 10.9,4.567 10.9,11.021 v 0 c 0,8.829 -5.967,11.69 -21.554,11.69 v 0 c -3.106,0 -11.814,-0.244 -14.249,-0.244 m 1.827,-3.896 h 12.422 c 9.741,0 11.933,-3.044 11.933,-7.55 v 0 c 0,-4.567 -2.192,-7.551 -11.933,-7.551 v 0 h -12.727 c 0,9.073 0.122,12.422 0.305,15.101 m -20.768,3.836 c -1.218,0 -2.436,0.122 -3.166,0.304 v 0 c 0.853,-6.21 0.853,-12.482 0.853,-18.632 v 0 c 0,-11.873 -8.22,-16.562 -16.441,-16.562 v 0 c -7.55,0 -15.161,4.811 -15.161,16.501 v 0 2.314 c 0,5.419 0.061,10.96 0.792,16.379 v 0 c -1.34,-0.182 -3.349,-0.304 -5.359,-0.304 v 0 c -2.009,0 -4.018,0.122 -5.357,0.304 v 0 c 0.852,-6.21 0.852,-12.482 0.852,-18.693 v 0 c 0,-15.83 11.264,-20.884 22.529,-20.884 v 0 c 12.116,0 22.954,6.516 22.954,20.945 v 0 c 0,6.15 0,12.422 0.792,18.632 v 0 c -0.852,-0.182 -2.071,-0.304 -3.288,-0.304 m 62.966,-1.493 11.22,-8.507 c 0.01,0.01 0.011,0.018 0.017,0.028 v 0 l -10.762,9.302 c -0.164,-0.271 -0.322,-0.546 -0.475,-0.823 m -5.497,-1.351 15.708,-9.097 c 0,0.006 0.01,0.012 0.01,0.019 v 0 l -15.21,9.921 -0.506,-0.843 z m 2.946,-6.258 12.012,-4.881 c 0,0.01 0.01,0.019 0.01,0.029 v 0 l -11.866,5.795 c -0.058,-0.312 -0.11,-0.627 -0.155,-0.943 m -0.231,-3.139 c 0,-0.306 0.013,-0.609 0.026,-0.913 v 0 l 11.724,-3.146 c 10e-4,0.013 0,0.025 0.01,0.038 v 0 l -11.753,4.068 c 0,-0.015 0,-0.031 0,-0.047 m 0.566,-4.959 11.028,-1.57 c 0,0.028 0,0.056 0,0.084 v 0 l -11.221,2.442 c 0.059,-0.321 0.122,-0.64 0.195,-0.956 m 1.33,-4 9.966,0.265 c -0.01,0.022 -0.011,0.043 -0.017,0.065 v 0 l -10.32,0.552 c 0.116,-0.297 0.242,-0.59 0.371,-0.882 m 1.46,-2.774 c 0.176,-0.285 0.357,-0.566 0.544,-0.843 v 0 l 8.537,1.094 c -0.01,0.029 -0.018,0.057 -0.027,0.085 v 0 z m 2.68,-3.334 c 0.256,-0.26 0.516,-0.517 0.785,-0.767 v 0 l 6.747,1.744 c -0.024,0.043 -0.047,0.086 -0.069,0.129 v 0 z m 3.633,-3.078 c 0.279,-0.196 0.564,-0.386 0.852,-0.573 v 0 l 4.616,2.224 c -0.033,0.041 -0.067,0.082 -0.099,0.125 v 0 z m 3.46,-2.078 c 0.318,-0.162 0.639,-0.322 0.965,-0.474 v 0 l 3.043,2.011 c -0.055,0.051 -0.109,0.102 -0.162,0.153 v 0 z m 3.698,-1.577 c 0.332,-0.117 0.665,-0.231 1.003,-0.336 v 0 l 1.687,1.555 c -0.067,0.044 -0.13,0.091 -0.194,0.136 v 0 z m 3.86,-1.076 c 0.299,-0.063 0.599,-0.123 0.902,-0.178 v 0 l 0.506,1.006 c -0.065,0.03 -0.131,0.058 -0.195,0.09 v 0 z" /></clipPath><clipPath
       id="clipPath186"
       clipPathUnits="userSpaceOnUse"><path
         id="path184"
         d="M 0,1080 H 1920 V 0 H 0 Z" /></clipPath><clipPath
       id="clipPath202"
       clipPathUnits="userSpaceOnUse"><path
         id="path200"
         d="M 0,1080 H 1920 V 0 H 0 Z" /></clipPath><clipPath
       id="clipPath216"
       clipPathUnits="userSpaceOnUse"><path
         id="path214"
         d="M 0,1080 H 1920 V 0 H 0 Z" /></clipPath><clipPath
       id="clipPath230"
       clipPathUnits="userSpaceOnUse"><path
         id="path228"
         d="M 0,1080 H 1920 V 0 H 0 Z" /></clipPath><clipPath
       id="clipPath244"
       clipPathUnits="userSpaceOnUse"><path
         id="path242"
         d="M 0,1080 H 1920 V 0 H 0 Z" /></clipPath><clipPath
       id="clipPath266"
       clipPathUnits="userSpaceOnUse"><path
         id="path264"
         d="M 0,1080 H 1920 V 0 H 0 Z" /></clipPath><clipPath
       id="clipPath286"
       clipPathUnits="userSpaceOnUse"><path
         id="path284"
         d="m 1219.09,1019.5 h 58.87 v -16.14 h -58.87 z" /></clipPath><clipPath
       id="clipPath302"
       clipPathUnits="userSpaceOnUse"><path
         id="path300"
         d="m 1390.75,1019.5 h 127.94 v -16.14 h -127.94 z" /></clipPath><clipPath
       id="clipPath318"
       clipPathUnits="userSpaceOnUse"><path
         id="path316"
         d="m 1663.2,1019.5 h 92.61 v -16.14 h -92.61 z" /></clipPath><clipPath
       id="clipPath334"
       clipPathUnits="userSpaceOnUse"><path
         id="path332"
         d="m 1308.44,1019.5 h 53.18 v -16.14 h -53.18 z" /></clipPath><clipPath
       id="clipPath350"
       clipPathUnits="userSpaceOnUse"><path
         id="path348"
         d="m 1540.83,1019.5 h 98.34 v -16.14 h -98.34 z" /></clipPath></defs><g
     transform="matrix(1.3333333,0,0,-1.3333333,-1146.3961,-186.79591)"
     id="g10"><g
       id="g437"><g
         id="g268"
         transform="translate(859.7971,-155.53572)"><path
           d="M 0,0 H 41.794"
           style="fill:none;stroke:#262626;stroke-width:0.83099997;stroke-linecap:butt;stroke-linejoin:miter;stroke-miterlimit:10;stroke-dasharray:none;stroke-opacity:1"
           id="path270" /></g><g
         id="g272"
         transform="translate(888.6811,-171.00732)"><path
           d="M 0,0 13.421,15.472 0,30.635"
           style="fill:none;stroke:#262626;stroke-width:0.83099997;stroke-linecap:butt;stroke-linejoin:miter;stroke-miterlimit:10;stroke-dasharray:none;stroke-opacity:1"
           id="path274" /></g></g></g></svg>