<?xml version="1.0" encoding="UTF-8" standalone="no"?>
<svg
   xmlns:dc="http://purl.org/dc/elements/1.1/"
   xmlns:cc="http://creativecommons.org/ns#"
   xmlns:rdf="http://www.w3.org/1999/02/22-rdf-syntax-ns#"
   xmlns:svg="http://www.w3.org/2000/svg"
   xmlns="http://www.w3.org/2000/svg"
   viewBox="0 0 31.387999 31.389332"
   height="31.389332"
   width="31.387999"
   xml:space="preserve"
   id="svg2"
   version="1.1"><metadata
     id="metadata8"><rdf:RDF><cc:Work
         rdf:about=""><dc:format>image/svg+xml</dc:format><dc:type
           rdf:resource="http://purl.org/dc/dcmitype/StillImage" /><dc:title></dc:title></cc:Work></rdf:RDF></metadata><defs
     id="defs6"><clipPath
       id="clipPath22"
       clipPathUnits="userSpaceOnUse"><path
         id="path20"
         d="M 0,1080 H 1920 V 0 H 0 Z" /></clipPath><clipPath
       id="clipPath30"
       clipPathUnits="userSpaceOnUse"><path
         id="path28"
         d="m 1219.09,1019.5 h 58.87 v -16.14 h -58.87 z" /></clipPath><clipPath
       id="clipPath46"
       clipPathUnits="userSpaceOnUse"><path
         id="path44"
         d="m 1390.75,1019.5 h 127.94 v -16.14 h -127.94 z" /></clipPath><clipPath
       id="clipPath62"
       clipPathUnits="userSpaceOnUse"><path
         id="path60"
         d="m 1663.2,1019.5 h 92.61 v -16.14 h -92.61 z" /></clipPath><clipPath
       id="clipPath78"
       clipPathUnits="userSpaceOnUse"><path
         id="path76"
         d="m 1308.44,1019.5 h 53.18 v -16.14 h -53.18 z" /></clipPath><clipPath
       id="clipPath94"
       clipPathUnits="userSpaceOnUse"><path
         id="path92"
         d="m 1540.83,1019.5 h 98.34 v -16.14 h -98.34 z" /></clipPath></defs><g
     transform="matrix(1.3333333,0,0,-1.3333333,-2463.6294,1527.0865)"
     id="g10"><g
       id="g16"><g
         id="g288"><g
           transform="translate(1869.3011,1127.6579)"
           id="g180"><path
             id="path182"
             style="fill:#198085;fill-opacity:1;fill-rule:nonzero;stroke:none"
             d="m 0,0 c 0,-2.163 -1.76,-3.923 -3.923,-3.923 h -11.771 c -2.163,0 -3.924,1.76 -3.924,3.923 v 11.771 c 0,2.164 1.761,3.924 3.924,3.924 H -3.923 C -1.76,15.695 0,13.935 0,11.771 Z m -3.923,17.657 h -11.771 c -3.237,0 -5.885,-2.649 -5.885,-5.886 V 0 c 0,-3.236 2.648,-5.885 5.885,-5.885 h 11.771 c 3.236,0 5.885,2.649 5.885,5.885 v 11.771 c 0,3.237 -2.649,5.886 -5.885,5.886" /></g><g
           transform="translate(1856.7585,1133.0034)"
           id="g192"><path
             id="path194"
             style="fill:#198085;fill-opacity:1;fill-rule:nonzero;stroke:none"
             d="M 0,0 H -1.58 V 3.134 H 0 v 0.852 c 0,1.48 0.376,2.558 1.078,3.26 0.702,0.702 1.73,1.053 3.084,1.053 1.203,0 2.006,-0.15 2.708,-0.376 V 4.764 C 6.318,4.964 5.791,5.09 5.14,5.09 4.262,5.09 3.761,4.638 3.761,3.636 V 3.109 H 6.844 V 0 H 3.811 V -10.179 H 0 Z" /></g></g></g></g></svg>