<svg xmlns="http://www.w3.org/2000/svg" width="23.541" height="23.542"
    viewBox="1882.491 69.071 23.541 23.542">
    <g data-name="CompositeLayer">
        <path
            d="M1900.147 69.071h-11.771c-3.237 0-5.885 2.649-5.885 5.886v11.771c0 3.236 2.648 5.885 5.885 5.885h11.771c3.236 0 5.885-2.649 5.885-5.885V74.957c0-3.237-2.649-5.886-5.885-5.886m3.923 17.657a3.927 3.927 0 0 1-3.923 3.923h-11.771a3.928 3.928 0 0 1-3.924-3.923V74.957a3.929 3.929 0 0 1 3.924-3.924h11.771a3.927 3.927 0 0 1 3.923 3.924v11.771Z"
            fill="#287e8c" fill-rule="evenodd" data-name="Path 19936" />
        <path
            d="M1891.527 81.382h-1.58v-3.134h1.58v-.852c0-1.48.376-2.558 1.078-3.26.702-.702 1.73-1.053 3.084-1.053 1.203 0 2.006.15 2.708.376v3.159c-.552-.2-1.079-.326-1.73-.326-.878 0-1.379.452-1.379 1.455v.526h3.083v3.109h-3.033v10.179h-3.811V81.382Z"
            fill="#287e8c" fill-rule="evenodd" data-name="Path 19939" />
    </g>
</svg>
