<svg xmlns="http://www.w3.org/2000/svg" width="49.918" height="49.918"
    viewBox="12841.336 3712.495 49.918 49.918">
    <g data-name="Group 217">
        <g data-name="Group 208">
            <g data-name="Group 197">
                <path
                    d="M12890.654 3759.979h-46.284a.6.6 0 0 1-.6-.6v-46.284a.6.6 0 0 1 1.2 0v45.685h45.684a.599.599 0 1 1 0 1.199Z"
                    fill="#fff" fill-rule="evenodd" data-name="Path 394" />
            </g>
            <g data-name="Group 198">
                <path
                    d="M12841.936 3720.383a.6.6 0 0 1-.563-.807l2.456-6.688a.6.6 0 0 1 1.127.002l2.411 6.644a.6.6 0 1 1-1.128.41l-1.851-5.1-1.889 5.146a.601.601 0 0 1-.563.393Z"
                    fill="#fff" fill-rule="evenodd" data-name="Path 395" />
            </g>
            <g data-name="Group 199">
                <path
                    d="M12884.01 3762.413a.6.6 0 0 1-.205-1.164l5.1-1.851-5.145-1.889a.6.6 0 1 1 .413-1.126l6.688 2.455a.6.6 0 0 1-.002 1.128l-6.644 2.411a.575.575 0 0 1-.204.036Z"
                    fill="#fff" fill-rule="evenodd" data-name="Path 396" />
            </g>
            <g data-name="Group 207">
                <g data-name="Group 206">
                    <g data-name="Group 205">
                        <g data-name="Group 200">
                            <path
                                d="M12851.107 3713.695h-1.524a.6.6 0 1 1 0-1.2h1.524a.6.6 0 0 1 0 1.2Z"
                                fill="#fff" fill-rule="evenodd" data-name="Path 397" />
                        </g>
                        <g data-name="Group 201">
                            <path
                                d="M12883.992 3713.695h-3.083a.601.601 0 0 1 0-1.2h3.083a.6.6 0 0 1 0 1.2Zm-8.22 0h-3.084a.6.6 0 1 1 0-1.2h3.083a.6.6 0 0 1 0 1.2Zm-8.223 0h-3.083a.6.6 0 0 1 0-1.2h3.083a.6.6 0 1 1 0 1.2Zm-8.22 0h-3.084a.601.601 0 0 1 0-1.2h3.083a.6.6 0 0 1 0 1.2Z"
                                fill="#fff" fill-rule="evenodd" data-name="Path 398" />
                        </g>
                        <g data-name="Group 202">
                            <path
                                d="M12890.654 3715.219a.601.601 0 0 1-.6-.6v-.924h-.924a.6.6 0 0 1 0-1.2h1.524a.6.6 0 0 1 .6.6v1.524a.6.6 0 0 1-.6.6Z"
                                fill="#fff" fill-rule="evenodd" data-name="Path 399" />
                        </g>
                        <g data-name="Group 203">
                            <path
                                d="M12890.654 3748.123a.6.6 0 0 1-.6-.6v-3.085a.6.6 0 0 1 1.2 0v3.085c0 .332-.268.6-.6.6Zm0-8.226a.6.6 0 0 1-.6-.6v-3.085a.6.6 0 0 1 1.2 0v3.085a.6.6 0 0 1-.6.6Zm0-8.226a.6.6 0 0 1-.6-.6v-3.085a.601.601 0 0 1 1.2 0v3.085a.6.6 0 0 1-.6.6Zm0-8.226a.601.601 0 0 1-.6-.6v-3.085a.601.601 0 0 1 1.2 0v3.085a.6.6 0 0 1-.6.6Z"
                                fill="#fff" fill-rule="evenodd" data-name="Path 400" />
                        </g>
                        <g data-name="Group 204">
                            <path
                                d="M12890.654 3754.788a.6.6 0 0 1-.6-.6v-1.523a.6.6 0 0 1 1.2 0v1.523c0 .332-.268.6-.6.6Z"
                                fill="#fff" fill-rule="evenodd" data-name="Path 401" />
                        </g>
                    </g>
                </g>
            </g>
        </g>
        <g data-name="Group 216">
            <g data-name="Group 209">
                <path
                    d="M12850.424 3755.12a.6.6 0 0 1-.425-1.024l34.177-34.176a.6.6 0 1 1 .848.848l-34.176 34.177a.596.596 0 0 1-.424.175Z"
                    fill="#fff" fill-rule="evenodd" data-name="Path 402" />
            </g>
            <g data-name="Group 210">
                <path
                    d="M12850.424 3746.576a.599.599 0 0 1-.425-1.024l25.633-25.632a.6.6 0 1 1 .848.848l-25.632 25.633a.595.595 0 0 1-.424.175Z"
                    fill="#fff" fill-rule="evenodd" data-name="Path 403" />
            </g>
            <g data-name="Group 211">
                <path
                    d="M12850.424 3738.032a.6.6 0 0 1-.425-1.024l17.089-17.088a.6.6 0 1 1 .848.848l-17.088 17.088a.592.592 0 0 1-.424.176Z"
                    fill="#fff" fill-rule="evenodd" data-name="Path 404" />
            </g>
            <g data-name="Group 212">
                <path
                    d="M12850.424 3729.488a.601.601 0 0 1-.425-1.024l8.545-8.544a.6.6 0 1 1 .848.848l-8.544 8.544a.597.597 0 0 1-.424.176Z"
                    fill="#fff" fill-rule="evenodd" data-name="Path 405" />
            </g>
            <g data-name="Group 213">
                <path
                    d="M12858.968 3755.12a.599.599 0 0 1-.424-1.024l25.632-25.632a.6.6 0 0 1 .848.848l-25.632 25.633a.596.596 0 0 1-.424.175Z"
                    fill="#fff" fill-rule="evenodd" data-name="Path 406" />
            </g>
            <g data-name="Group 214">
                <path
                    d="M12867.512 3755.12a.599.599 0 0 1-.424-1.024l17.088-17.088a.6.6 0 0 1 .848.848l-17.088 17.09a.596.596 0 0 1-.424.174Z"
                    fill="#fff" fill-rule="evenodd" data-name="Path 407" />
            </g>
            <g data-name="Group 215">
                <path
                    d="M12876.056 3755.12a.6.6 0 0 1-.424-1.024l8.544-8.544a.6.6 0 0 1 .848.849l-8.544 8.544a.598.598 0 0 1-.424.175Z"
                    fill="#fff" fill-rule="evenodd" data-name="Path 408" />
            </g>
        </g>
    </g>
</svg>