<svg xmlns="http://www.w3.org/2000/svg" width="23.541" height="23.542"
    viewBox="1848.219 69.071 23.541 23.542">
    <g data-name="CompositeLayer">
        <path
            d="M1859.989 74.957a5.885 5.885 0 1 0 0 11.771 5.885 5.885 0 0 0 0-11.771m0 9.809a3.923 3.923 0 1 1 0-7.847 3.923 3.923 0 0 1 0 7.847"
            fill="#287e8c" fill-rule="evenodd" data-name="Path 19938" />
        <path d="M1866.365 72.995a1.472 1.472 0 1 1-.001 2.943 1.472 1.472 0 0 1 .001-2.943"
            fill="#287e8c" fill-rule="evenodd" data-name="Path 19937" />
        <path
            d="M1865.875 69.071h-11.771c-3.237 0-5.885 2.649-5.885 5.886v11.771c0 3.236 2.648 5.885 5.885 5.885h11.771c3.236 0 5.885-2.649 5.885-5.885V74.957c0-3.237-2.649-5.886-5.885-5.886m3.923 17.657a3.927 3.927 0 0 1-3.923 3.923h-11.771a3.928 3.928 0 0 1-3.924-3.923V74.957a3.929 3.929 0 0 1 3.924-3.924h11.771a3.927 3.927 0 0 1 3.923 3.924v11.771Z"
            fill="#287e8c" fill-rule="evenodd" data-name="Path 19935" />
    </g>
</svg>
