<?xml version="1.0" encoding="UTF-8" standalone="no"?>
<svg
   xmlns:dc="http://purl.org/dc/elements/1.1/"
   xmlns:cc="http://creativecommons.org/ns#"
   xmlns:rdf="http://www.w3.org/1999/02/22-rdf-syntax-ns#"
   xmlns:svg="http://www.w3.org/2000/svg"
   xmlns="http://www.w3.org/2000/svg"
   viewBox="0 0 31.387999 31.389332"
   height="31.389332"
   width="31.387999"
   xml:space="preserve"
   id="svg2"
   version="1.1"><metadata
     id="metadata8"><rdf:RDF><cc:Work
         rdf:about=""><dc:format>image/svg+xml</dc:format><dc:type
           rdf:resource="http://purl.org/dc/dcmitype/StillImage" /><dc:title></dc:title></cc:Work></rdf:RDF></metadata><defs
     id="defs6"><clipPath
       id="clipPath22"
       clipPathUnits="userSpaceOnUse"><path
         id="path20"
         d="M 0,1080 H 1920 V 0 H 0 Z" /></clipPath><clipPath
       id="clipPath30"
       clipPathUnits="userSpaceOnUse"><path
         id="path28"
         d="m 1219.09,1019.5 h 58.87 v -16.14 h -58.87 z" /></clipPath><clipPath
       id="clipPath46"
       clipPathUnits="userSpaceOnUse"><path
         id="path44"
         d="m 1390.75,1019.5 h 127.94 v -16.14 h -127.94 z" /></clipPath><clipPath
       id="clipPath62"
       clipPathUnits="userSpaceOnUse"><path
         id="path60"
         d="m 1663.2,1019.5 h 92.61 v -16.14 h -92.61 z" /></clipPath><clipPath
       id="clipPath78"
       clipPathUnits="userSpaceOnUse"><path
         id="path76"
         d="m 1308.44,1019.5 h 53.18 v -16.14 h -53.18 z" /></clipPath><clipPath
       id="clipPath94"
       clipPathUnits="userSpaceOnUse"><path
         id="path92"
         d="m 1540.83,1019.5 h 98.34 v -16.14 h -98.34 z" /></clipPath></defs><g
     transform="matrix(1.3333333,0,0,-1.3333333,-2346.7437,1522.7718)"
     id="g10"><g
       id="g16"><g
         id="g282"><g
           transform="translate(1781.6368,1124.4219)"
           id="g176"><path
             id="path178"
             style="fill:#198085;fill-opacity:1;fill-rule:nonzero;stroke:none"
             d="m 0,0 c 0,-2.163 -1.759,-3.923 -3.923,-3.923 h -11.771 c -2.163,0 -3.924,1.76 -3.924,3.923 v 11.771 c 0,2.164 1.761,3.924 3.924,3.924 H -3.923 C -1.759,15.695 0,13.935 0,11.771 Z m -3.923,17.657 h -11.771 c -3.237,0 -5.885,-2.649 -5.885,-5.886 V 0 c 0,-3.236 2.648,-5.885 5.885,-5.885 h 11.771 c 3.236,0 5.885,2.649 5.885,5.885 v 11.771 c 0,3.237 -2.649,5.886 -5.885,5.886" /></g><g
           transform="translate(1778.2039,1138.155)"
           id="g184"><path
             id="path186"
             style="fill:#198085;fill-opacity:1;fill-rule:nonzero;stroke:none"
             d="m 0,0 c 0.812,0 1.471,-0.659 1.471,-1.471 0,-0.813 -0.659,-1.472 -1.471,-1.472 -0.813,0 -1.471,0.659 -1.471,1.472 C -1.471,-0.659 -0.813,0 0,0" /></g><g
           transform="translate(1771.8281,1126.3838)"
           id="g188"><path
             id="path190"
             style="fill:#198085;fill-opacity:1;fill-rule:nonzero;stroke:none"
             d="m 0,0 c -2.167,0 -3.923,1.757 -3.923,3.924 0,2.167 1.756,3.923 3.923,3.923 2.167,0 3.923,-1.756 3.923,-3.923 C 3.923,1.757 2.167,0 0,0 m 0,9.809 c -3.251,0 -5.885,-2.634 -5.885,-5.885 0,-3.25 2.634,-5.886 5.885,-5.886 3.25,0 5.885,2.636 5.885,5.886 C 5.885,7.175 3.25,9.809 0,9.809" /></g></g></g></g></svg>