<svg xmlns="http://www.w3.org/2000/svg" width="16.008" height="11.506" viewBox="1125.059 682.91 16.008 11.506"><g data-name="Mail 2"><g data-name="Path 33"><path d="M1139.066 682.91h-12.006a2.004 2.004 0 0 0-2 2v7.505c0 1.103.897 2 2 2h12.006a2.004 2.004 0 0 0 2-2v-7.504a2.004 2.004 0 0 0-2-2.001Zm1 9.505c0 .55-.448 1-1 1h-12.006c-.552 0-1-.45-1-1v-7.504a1 1 0 0 1 1-1h12.006a1 1 0 0 1 1 1v7.504Z" fill="#287e8c" fill-rule="evenodd"/><path d="M1139.066 682.91h-12.006a2.004 2.004 0 0 0-2 2v7.505c0 1.103.897 2 2 2h12.006a2.004 2.004 0 0 0 2-2v-7.504a2.004 2.004 0 0 0-2-2.001Zm1 9.505c0 .55-.448 1-1 1h-12.006c-.552 0-1-.45-1-1v-7.504a1 1 0 0 1 1-1h12.006a1 1 0 0 1 1 1v7.504Z" stroke-linejoin="round" stroke-linecap="round" stroke-width=".5" stroke="#287e8c" fill="transparent"/></g><g data-name="Path 34"><path d="M1138.953 685.595a.5.5 0 0 0-.704-.072l-5.186 4.244-5.186-4.244a.501.501 0 0 0-.633.775l5.502 4.502a.5.5 0 0 0 .634 0l5.503-4.502a.5.5 0 0 0 .07-.703Z" fill="#287e8c" fill-rule="evenodd"/><path d="M1138.953 685.595a.5.5 0 0 0-.704-.072l-5.186 4.244-5.186-4.244a.501.501 0 0 0-.633.775l5.502 4.502a.5.5 0 0 0 .634 0l5.503-4.502a.5.5 0 0 0 .07-.703Z" stroke-linejoin="round" stroke-linecap="round" stroke-width=".5" stroke="#287e8c" fill="transparent"/></g><g data-name="Path 35"><path d="M1136.918 689.56a.5.5 0 1 0-.707.707l2 2a.499.499 0 1 0 .708-.706l-2.001-2.001Z" fill="#287e8c" fill-rule="evenodd"/><path d="M1136.918 689.56a.5.5 0 1 0-.707.707l2 2a.499.499 0 1 0 .708-.706l-2.001-2.001Z" stroke-linejoin="round" stroke-linecap="round" stroke-width=".5" stroke="#287e8c" fill="transparent"/></g><g data-name="Path 36"><path d="m1129.208 689.56-2.001 2a.498.498 0 0 0 .353.855.499.499 0 0 0 .354-.147l2.001-2.001a.5.5 0 0 0-.707-.707Z" fill="#287e8c" fill-rule="evenodd"/><path d="m1129.208 689.56-2.001 2a.498.498 0 0 0 .353.855.499.499 0 0 0 .354-.147l2.001-2.001a.5.5 0 0 0-.707-.707Z" stroke-linejoin="round" stroke-linecap="round" stroke-width=".5" stroke="#287e8c" fill="transparent"/></g></g></svg>