<?xml version="1.0" encoding="utf-8"?>
<!-- Generator: Adobe Illustrator 26.0.2, SVG Export Plug-In . SVG Version: 6.00 Build 0)  -->
<svg version="1.1" id="Camada_1" xmlns="http://www.w3.org/2000/svg" xmlns:xlink="http://www.w3.org/1999/xlink" x="0px" y="0px"
	 viewBox="0 0 512 512" style="enable-background:new 0 0 512 512;" xml:space="preserve">
<style type="text/css">
	.st0{fill:#FAFAFA;}
</style>
<path class="st0" d="M425,208.2c4.1,0,7.6,0,11.1,0c3.5,0,7,0,10.5,0c4.2,0,7.4-1.7,9.4-5.4c3.5-6.8-1.3-14.2-9.6-14.5
	c-9.7-0.3-19.3-0.1-29-0.1c-9.2,0-12.6,3.5-12.6,12.8c0,20.7,0,41.3,0,62c0,5.3-0.1,10.7,0.1,16c0.3,5.1,4,8.8,8.9,9.1
	c5.2,0.4,9.5-2.7,10.5-7.9c0.5-2.6,0.4-5.3,0.4-8c0-8.1,0-16.2,0-24.9c7.4,0,14,0.3,20.7-0.1c5.6-0.3,9.1-4.7,9-10.1
	c-0.1-5.1-3.7-9-9.1-9.5c-2.5-0.2-5-0.1-7.5-0.2c-4.2,0-8.5,0-12.8,0C425,220.7,425,214.8,425,208.2z M273,189
	c-9.2-1.1-18.6-0.8-27.9-0.6c-6,0.2-9.5,4.2-9.6,10.6c-0.1,26.1-0.1,52.3,0,78.4c0,1.9,0.5,4,1.4,5.7c2.3,4.1,6.1,5.7,10.6,4.7
	c4.8-1,7.6-4.2,7.7-9.1c0.2-8.1,0.1-16.3,0.1-25.6c5.6,0,10.4,0.3,15.1,0c16.7-1.1,29.8-14.8,30.3-31.5
	C301.3,205.6,289.3,190.9,273,189z M280.7,221.6c-0.4,5.9-5,11-11.2,11.5c-4.4,0.4-8.9,0.1-13.7,0.1c0-8.6,0-16.5,0-25.2
	c5.2,0.3,10.2,0.1,15.1,0.9C277,210,281.2,215.9,280.7,221.6z M315.5,237.5c0-12.2,0-24.3,0-36.5c0-9.3,3.5-12.7,12.6-12.8
	c6.5,0,13-0.1,19.5,0c19.4,0.5,33.4,10.4,39.3,28.9c5.7,17.5,5.1,34.9-4.5,51.1c-7.7,13-19.4,19.7-34.7,19.8c-6.5,0-13,0.1-19.5,0.1
	c-9.1,0-12.6-3.4-12.7-12.7C315.4,262.8,315.5,250.2,315.5,237.5z M336,207.8c0,20.6,0,40.2,0,60.3c3.9,0,7.3-0.1,10.8,0
	c10.1,0.3,16.8-4.5,20.5-13.6c4.5-11.1,4.3-22.4-0.2-33.5c-2.4-5.8-6.4-10.5-12.7-11.7C348.5,208.1,342.3,208.3,336,207.8z
	 M510.3,161.9c-4.5-13.2-15.8-21.2-30.6-21.3c-16.3-0.1-32.6,0-49,0c-1.8,0-3.6,0-5.8,0c0-2.5,0-4.5,0-6.5c0-38-0.2-75.9,0.1-113.9
	c0.1-9.3-2.5-16.1-11.1-20.2c-81,0-162,0-243,0c-3.6,2.8-7.6,5.2-10.9,8.4C130.3,38,100.8,67.8,70.9,97.4
	c-4.9,4.8-6.9,10.1-6.9,16.9c0.1,45.6,0.1,91.3,0.1,136.9c0,2,0,4,0,6.3c-1.3,0.2-2.4,0.4-3.5,0.5C49.6,258.3,44,264,44,275.3
	c0,31.8,0,63.6,0,95.5c0,1.8,0,3.6,0,6.3c-8.1,0-16,0-23.9,0c-2.8,0-5.7-0.1-8.5,0.4c-6,1.1-9,5.7-11.6,10.6c0,2.7,0,5.3,0,8
	c11.4,14.5,22.7,29,34.2,43.3c17,21.1,34.1,42.2,51.3,63.1c3,3.6,7,6.4,10.5,9.5c2.7,0,5.3,0,8,0c7.2-2.9,10.9-9.5,15.5-15
	c4.1-4.8,7.1-11.7,12.3-14.1c5.4-2.5,12.7-0.9,19.2-0.9c85.1,0,170.3,0,255.4,0c13,0,18.4-5.5,18.4-18.6c0-40.2,0-80.3,0-120.5
	c0-2,0-3.9,0-6.4c6.5,0,12.5,0,18.4,0c11.7,0,23.3,0,35,0c17.2-0.1,27.6-7.9,32.8-24.4c0.1-0.4,0.6-0.8,0.8-1.2c0-48,0-96,0-144
	C511.4,165.3,510.9,163.6,510.3,161.9z M159.4,53.6c0,13.1,0,27.1,0,41.4c-14.3,0-28.3,0-41.9,0C131.5,81.2,145.6,67.3,159.4,53.6z
	 M100.3,473.2c-17.8-21.9-35.4-43.6-53.7-66.2c4.7,0,8,0,11.3,0c10-0.2,16.1-6.4,16.1-16.4c0-32.1,0-64.3,0-96.4c0-1.8,0-3.6,0-5.8
	c17.4,0,34.6,0,52.4,0c0,2,0,4,0,5.9c0,31.1,0,62.3,0,93.4c0,14.1,5.2,19.3,19.2,19.3c2.3,0,4.6,0,8.2,0
	C135.8,429.3,118.3,450.9,100.3,473.2z M394.7,451.7c-79.2,0-158.3,0-237.9,0c0.8-1.2,1.4-2.3,2.2-3.3
	c12.3-15.2,24.5-30.4,36.8-45.4c4.4-5.4,6.1-11.1,3.1-17.6c-3.1-6.5-8.6-8.7-15.6-8.6c-8.7,0.2-17.3,0.1-26.6,0.1
	c-0.1-2.1-0.3-4.1-0.3-6c0-31.5,0-63,0-94.5c0-13.2-5.3-18.5-18.4-18.5c-12.8,0-25.7,0-38.5,0c-1.6,0-3.3-0.1-5.1-0.2
	c0-44.1,0-87.8,0-132.4c2,0,3.9,0,5.8,0c24,0,48,0,72,0c11.7,0,17.4-5.7,17.5-17.5c0-23.7,0-47.3,0-71c0-2,0-4,0-6.4
	c68.3,0,136.4,0,204.8,0c0,36.4,0,72.9,0,110.2c-2.1,0-4.2,0-6.3,0c-58.2,0-116.3,0-174.5,0c-16.2,0-28.4,8.8-32.1,23.2
	c-0.9,3.5-1.2,7.2-1.2,10.9c-0.1,42.5-0.1,85,0,127.5c0,21.6,12.9,34.4,34.7,34.4c57.7,0,115.3,0,173,0c2.1,0,4.2,0,6.6,0
	C394.7,375.2,394.7,413.3,394.7,451.7z M482,300.7c0,1.6,0,3.3,0,5.9c-2.6,0-4.6,0-6.6,0c-86.1,0-172.3,0-258.4,0
	c-6.7,0-6.7,0-6.7-6.4c0-41.2,0.1-82.3-0.1-123.5c0-4.6,1-6.3,6-6.3c86.6,0.2,173.3,0.1,259.9,0c4.4,0,6,0.9,5.9,5.7
	C481.9,217.7,482,259.2,482,300.7z"/>
</svg>
