<svg xmlns="http://www.w3.org/2000/svg" width="27.796" height="27.796" viewBox="1622.421 546.813 27.796 27.796"><path d="M1645.492 558.115h.602c.19 0 .38-.003.57 0 .23.003.404-.09.509-.296.189-.37-.07-.773-.522-.784-.525-.015-1.05-.008-1.574-.005-.5.003-.683.19-.683.696-.002 1.122 0 2.244 0 3.365 0 .29-.008.58.007.868a.51.51 0 0 0 .483.496c.285.02.517-.145.57-.429.026-.14.022-.288.023-.431.003-.44.001-.88.001-1.351.4 0 .762.015 1.12-.006.307-.018.497-.254.489-.546-.008-.28-.201-.486-.494-.516-.134-.012-.271-.008-.406-.008h-.695v-1.053Zm-8.25-1.041c-.498-.06-1.01-.047-1.514-.033-.328.007-.518.229-.519.578a495.271 495.271 0 0 0 0 4.258c0 .104.027.22.077.31.122.225.329.31.574.257.259-.054.413-.23.42-.495.011-.443.003-.886.003-1.39.302 0 .563.016.822-.002a1.772 1.772 0 0 0 1.646-1.71c.028-.87-.623-1.667-1.508-1.773Zm.421 1.767a.679.679 0 0 1-.608.626c-.238.023-.481.005-.744.005v-1.368c.285.016.556.004.817.051.331.06.557.379.535.686Zm1.889.866c0-.66-.002-1.32 0-1.981.002-.503.189-.692.686-.696.352-.003.705-.007 1.058.003 1.055.026 1.81.564 2.136 1.568.308.952.277 1.896-.245 2.774-.42.706-1.055 1.071-1.885 1.078-.353.002-.706.005-1.06.005-.495 0-.683-.183-.688-.688-.007-.688-.002-1.375-.002-2.063Zm1.109-1.611v3.272c.21 0 .398-.006.586 0 .546.016.912-.246 1.112-.739a2.339 2.339 0 0 0-.009-1.817c-.128-.315-.349-.568-.688-.636-.321-.063-.656-.055-1.001-.08Zm9.463-2.494c-.245-.716-.86-1.15-1.66-1.156-.885-.006-1.771-.002-2.657-.002h-.317v-.35c0-2.061-.01-4.123.008-6.183.004-.503-.136-.876-.601-1.098h-13.192c-.198.151-.415.285-.591.458-1.617 1.606-3.222 3.225-4.841 4.829-.265.261-.375.55-.374.917.007 2.478.004 4.956.004 7.434v.34c-.07.01-.13.024-.188.026-.601.017-.904.33-.904.94v5.521l-1.3.001c-.153.001-.31-.007-.46.02-.325.06-.487.311-.63.578v.435c.619.785 1.232 1.574 1.858 2.354.922 1.146 1.849 2.29 2.785 3.426.161.197.378.346.569.517h.434c.39-.16.59-.514.844-.815.22-.262.388-.634.67-.767.29-.135.689-.046 1.041-.046h13.868c.703 0 1-.3 1-1.01V565.085h1c.634 0 1.267.002 1.9 0 .93-.004 1.497-.426 1.782-1.323.007-.025.03-.043.045-.064v-7.818l-.093-.277Zm-19.048-5.876v2.247h-2.274l2.274-2.247Zm-3.211 22.775-2.917-3.594c.253 0 .434.003.614 0 .541-.01.875-.345.876-.888.002-1.746.001-3.49.001-5.235v-.317h2.847v5.391c0 .765.284 1.049 1.045 1.049h.447l-2.913 3.594Zm15.982-1.165h-12.916c.044-.065.078-.125.12-.176.665-.824 1.328-1.648 2-2.467.24-.292.332-.604.167-.952-.167-.352-.468-.474-.847-.466-.47.013-.94.003-1.443.003-.005-.115-.014-.22-.014-.323v-5.13c0-.716-.291-1.007-1-1.007h-2.09c-.09 0-.177-.007-.278-.012v-7.188h.317l3.909-.001c.637-.001.946-.31.947-.951.002-1.286 0-2.57 0-3.855v-.348h11.12v5.981h-.341l-9.473.001c-.881.001-1.542.475-1.745 1.262a2.39 2.39 0 0 0-.064.59c-.004 2.307-.004 4.615-.002 6.921 0 1.175.7 1.865 1.882 1.866h9.751v6.252Zm4.742-8.2v.32h-14.386c-.361 0-.362 0-.362-.347 0-2.234.004-4.467-.005-6.701-.001-.254.055-.342.327-.342 4.703.009 9.407.009 14.11.002.239 0 .324.05.323.311-.012 2.252-.007 4.505-.007 6.758Z" fill="#1ca798" fill-rule="evenodd" data-name="Path 37"/></svg>