<?xml version="1.0" encoding="UTF-8"?><svg id="a" xmlns="http://www.w3.org/2000/svg" viewBox="0 0 28.35 28.35"><defs><style>.c{fill:#2a7f8d;stroke:#2a7f8d;stroke-linecap:round;stroke-miterlimit:10;stroke-width:.58px;}</style></defs><g id="b"><path class="c" d="M23.03,13.19c-1.57-3.6-4.38-6.39-7.92-7.88-.3-.12-.63,.02-.75,.33-.12,.3,.02,.65,.32,.77,3.26,1.37,5.85,3.95,7.3,7.26,.1,.22,.31,.35,.53,.35,.08,0,.16-.02,.24-.05,.29-.13,.42-.49,.29-.79Z"/><path class="c" d="M14.37,9.59c1.98,.83,3.55,2.39,4.43,4.4,.09,.21,.3,.34,.51,.34,.08,0,.15-.02,.23-.05,.28-.13,.41-.47,.28-.76-.99-2.28-2.78-4.05-5.02-4.99-.29-.12-.61,.02-.73,.32-.12,.29,.02,.63,.31,.75Z"/><path class="c" d="M20,16.52c-.32-.31-.67-.47-1.03-.47s-.71,.16-1.02,.47c-.48,.48-.96,.95-1.43,1.44-.08,.08-.15,.12-.23,.12-.05,0-.1-.02-.16-.05-.31-.17-.64-.31-.94-.49-1.39-.88-2.56-2-3.59-3.27-.51-.63-.97-1.3-1.29-2.06-.06-.15-.05-.25,.07-.38,.48-.46,.95-.94,1.42-1.42,.66-.66,.66-1.44,0-2.1-.38-.38-.75-.75-1.13-1.13-.39-.39-.77-.78-1.16-1.16-.32-.31-.67-.46-1.03-.46-.36,0-.71,.16-1.03,.47-.48,.48-.95,.96-1.44,1.43-.46,.43-.69,.96-.73,1.58-.08,1,.17,1.95,.52,2.88,.71,1.91,1.79,3.61,3.1,5.17,1.77,2.11,3.88,3.77,6.36,4.97,1.11,.54,2.27,.96,3.52,1.02,.08,0,.15,0,.23,0,.77,0,1.44-.24,1.99-.85,.41-.46,.87-.88,1.31-1.32,.65-.65,.65-1.44,0-2.09-.77-.77-1.54-1.54-2.31-2.3Zm1.47,3.57c-.14,.15-.29,.29-.44,.43-.3,.29-.62,.6-.91,.93-.29,.32-.62,.46-1.12,.46-.05,0-.11,0-.16,0-.94-.05-1.88-.33-3.07-.91-2.29-1.11-4.3-2.69-5.97-4.67-1.34-1.59-2.28-3.16-2.9-4.82-.36-.96-.5-1.69-.45-2.37,.03-.35,.14-.6,.37-.82,.3-.29,.6-.58,.89-.88,.19-.19,.37-.38,.56-.57,.1-.1,.18-.13,.21-.13s.11,.03,.21,.13c.26,.25,.51,.51,.76,.76l.38,.39c.19,.19,.38,.38,.57,.57,.18,.18,.37,.37,.55,.56,.22,.22,.2,.25,0,.46l-.2,.2c-.4,.4-.8,.81-1.22,1.21-.46,.46-.57,1.06-.32,1.66,.33,.78,.79,1.53,1.46,2.35,1.22,1.49,2.48,2.64,3.88,3.52,.23,.14,.46,.26,.67,.36,.11,.05,.22,.11,.32,.16,.24,.13,.49,.2,.74,.2,.28,0,.68-.08,1.07-.48,.46-.47,.93-.94,1.42-1.42,.1-.1,.18-.13,.2-.13s.1,.03,.2,.13c.77,.76,1.54,1.53,2.3,2.3,.18,.18,.2,.24,0,.44Z"/></g></svg>