<svg xmlns="http://www.w3.org/2000/svg" width="14.453" height="14.453" viewBox="1124.646 703.125 14.453 14.453"><g data-name="Phone"><g data-name="Path 30"><path d="M1139.058 709.553c-1.27-2.92-3.552-5.19-6.423-6.392a.462.462 0 0 0-.61.264.49.49 0 0 0 .258.63c2.647 1.109 4.75 3.2 5.922 5.892.078.18.248.285.427.285a.453.453 0 0 0 .19-.043.488.488 0 0 0 .236-.636Z" fill="#287e8c" fill-rule="evenodd"/><path d="M1139.058 709.553c-1.27-2.92-3.552-5.19-6.423-6.392a.462.462 0 0 0-.61.264.49.49 0 0 0 .258.63c2.647 1.109 4.75 3.2 5.922 5.892.078.18.248.285.427.285a.453.453 0 0 0 .19-.043.488.488 0 0 0 .236-.636Z" stroke-linejoin="round" stroke-linecap="round" stroke-width=".474" stroke="#287e8c" fill="transparent"/></g><g data-name="Path 31"><path d="M1132.037 706.627c1.605.671 2.881 1.938 3.59 3.567.077.173.24.276.414.276a.44.44 0 0 0 .185-.041.47.47 0 0 0 .227-.616c-.806-1.849-2.254-3.287-4.077-4.047a.446.446 0 0 0-.588.255.469.469 0 0 0 .25.606Z" fill="#287e8c" fill-rule="evenodd"/><path d="M1132.037 706.627c1.605.671 2.881 1.938 3.59 3.567.077.173.24.276.414.276a.44.44 0 0 0 .185-.041.47.47 0 0 0 .227-.616c-.806-1.849-2.254-3.287-4.077-4.047a.446.446 0 0 0-.588.255.469.469 0 0 0 .25.606Z" stroke-linejoin="round" stroke-linecap="round" stroke-width=".474" stroke="#287e8c" fill="transparent"/></g><g data-name="Path 32"><path d="M1136.602 712.254c-.257-.254-.546-.38-.834-.38-.288 0-.576.126-.832.38-.39.387-.778.772-1.161 1.165-.064.066-.122.1-.187.1a.274.274 0 0 1-.134-.04c-.252-.139-.52-.25-.762-.4-1.129-.71-2.075-1.623-2.913-2.65-.415-.512-.785-1.057-1.044-1.673-.052-.124-.042-.206.059-.307.39-.377.769-.762 1.152-1.149.534-.536.534-1.164-.003-1.704-.304-.308-.609-.61-.913-.916-.314-.314-.625-.633-.943-.944-.256-.25-.544-.375-.832-.375-.29 0-.577.126-.833.38-.393.385-.77.781-1.168 1.16-.37.35-.557.78-.596 1.28-.062.816.138 1.584.419 2.334.576 1.55 1.453 2.927 2.516 4.19a15.566 15.566 0 0 0 5.158 4.036c.903.439 1.839.776 2.856.83.062.005.123.007.183.007.624 0 1.169-.191 1.614-.69.334-.373.71-.714 1.063-1.07.524-.53.527-1.172.007-1.695-.622-.625-1.247-1.247-1.872-1.869Zm1.192 2.896c-.116.119-.236.234-.355.35-.246.238-.5.485-.742.756-.233.262-.504.373-.907.373-.042 0-.086 0-.131-.004-.76-.042-1.53-.269-2.494-.736a14.706 14.706 0 0 1-4.847-3.793c-1.084-1.288-1.853-2.568-2.354-3.915-.292-.778-.403-1.372-.361-1.926.022-.282.115-.488.304-.667.246-.234.484-.475.723-.714.15-.153.302-.307.458-.46.084-.082.144-.104.167-.104.023 0 .085.022.169.104.209.205.415.412.62.619l.312.313.465.466c.15.15.299.298.45.452.174.175.164.207.002.368l-.16.162c-.324.328-.647.655-.989.984a1.18 1.18 0 0 0-.262 1.346c.267.634.643 1.24 1.183 1.903.988 1.213 2.016 2.145 3.146 2.856.187.117.375.21.54.29.09.045.181.09.257.13.193.11.395.164.6.164.224 0 .556-.067.865-.386.375-.385.755-.762 1.151-1.155.084-.083.144-.105.164-.105.021 0 .082.024.166.105.624.62 1.247 1.241 1.868 1.865.143.145.158.191-.008.36Z" fill="#287e8c" fill-rule="evenodd"/><path d="M1136.602 712.254c-.257-.254-.546-.38-.834-.38-.288 0-.576.126-.832.38-.39.387-.778.772-1.161 1.165-.064.066-.122.1-.187.1a.274.274 0 0 1-.134-.04c-.252-.139-.52-.25-.762-.4-1.129-.71-2.075-1.623-2.913-2.65-.415-.512-.785-1.057-1.044-1.673-.052-.124-.042-.206.059-.307.39-.377.769-.762 1.152-1.149.534-.536.534-1.164-.003-1.704-.304-.308-.609-.61-.913-.916-.314-.314-.625-.633-.943-.944-.256-.25-.544-.375-.832-.375-.29 0-.577.126-.833.38-.393.385-.77.781-1.168 1.16-.37.35-.557.78-.596 1.28-.062.816.138 1.584.419 2.334.576 1.55 1.453 2.927 2.516 4.19a15.566 15.566 0 0 0 5.158 4.036c.903.439 1.839.776 2.856.83.062.005.123.007.183.007.624 0 1.169-.191 1.614-.69.334-.373.71-.714 1.063-1.07.524-.53.527-1.172.007-1.695-.622-.625-1.247-1.247-1.872-1.869Zm1.192 2.896c-.116.119-.236.234-.355.35-.246.238-.5.485-.742.756-.233.262-.504.373-.907.373-.042 0-.086 0-.131-.004-.76-.042-1.53-.269-2.494-.736a14.706 14.706 0 0 1-4.847-3.793c-1.084-1.288-1.853-2.568-2.354-3.915-.292-.778-.403-1.372-.361-1.926.022-.282.115-.488.304-.667.246-.234.484-.475.723-.714.15-.153.302-.307.458-.46.084-.082.144-.104.167-.104.023 0 .085.022.169.104.209.205.415.412.62.619l.312.313.465.466c.15.15.299.298.45.452.174.175.164.207.002.368l-.16.162c-.324.328-.647.655-.989.984a1.18 1.18 0 0 0-.262 1.346c.267.634.643 1.24 1.183 1.903.988 1.213 2.016 2.145 3.146 2.856.187.117.375.21.54.29.09.045.181.09.257.13.193.11.395.164.6.164.224 0 .556-.067.865-.386.375-.385.755-.762 1.151-1.155.084-.083.144-.105.164-.105.021 0 .082.024.166.105.624.62 1.247 1.241 1.868 1.865.143.145.158.191-.008.36Z" stroke-linejoin="round" stroke-linecap="round" stroke-width=".474" stroke="#287e8c" fill="transparent"/></g></g></svg>