<svg xmlns="http://www.w3.org/2000/svg" width="178.063" height="151.09" viewBox="450.969 824.455 178.063 151.09"><g data-name="Rotate Phone"><path d="M474.042 951.702a2.975 2.975 0 1 0 4.635-3.732 68.313 68.313 0 0 1-8.481-72.07l3.284 10.799a2.976 2.976 0 0 0 5.694-1.732l-4.914-16.162-.008-.028a4.32 4.32 0 0 0-5.398-2.863l-15.824 4.887a2.976 2.976 0 0 0 1.757 5.686l10.021-3.095c-12.167 25.719-8.58 56.126 9.234 78.31Z" fill="#fff" fill-rule="evenodd" data-name="Path 176"/><path d="m605.74 931.195.008.028a4.32 4.32 0 0 0 5.398 2.863l15.823-4.887a2.975 2.975 0 0 0-1.756-5.686l-10.021 3.095c12.166-25.719 8.58-56.126-9.234-78.31a2.976 2.976 0 0 0-4.635 3.732 68.315 68.315 0 0 1 8.481 72.071l-3.284-10.8a2.976 2.976 0 0 0-5.694 1.732l4.914 16.162Z" fill="#fff" fill-rule="evenodd" data-name="Path 177"/><path d="M572.253 975.545h-64.506c-6.094-.007-11.032-4.945-11.039-11.038V835.493c.007-6.093 4.945-11.031 11.04-11.038h64.505c6.094.007 11.032 4.945 11.039 11.038v129.014c-.006 6.094-4.945 11.032-11.04 11.038Zm-64.506-145.139a5.097 5.097 0 0 0-5.088 5.087v129.014a5.095 5.095 0 0 0 5.088 5.088h64.506a5.097 5.097 0 0 0 5.088-5.088V835.494a5.093 5.093 0 0 0-5.088-5.088h-64.506Z" fill="#fff" fill-rule="evenodd" data-name="Path 178"/><path d="M551.021 838.163a2.976 2.976 0 0 1-2.958 2.994h-16.126a2.976 2.976 0 0 1 0-5.951h16.126a2.976 2.976 0 0 1 2.958 2.957Z" fill="#fff" fill-rule="evenodd" data-name="Path 179"/><path d="M540 964.794a8.351 8.351 0 1 1 8.351-8.351 8.36 8.36 0 0 1-8.351 8.351Zm-2.4-8.351a2.4 2.4 0 1 0 4.799.001 2.4 2.4 0 0 0-4.799-.001Z" fill="#fff" fill-rule="evenodd" data-name="Path 180"/></g></svg>