<svg xmlns="http://www.w3.org/2000/svg" width="50.128" height="50.128" viewBox="1682 496.713 50.128 50.128"><path d="M1712.637 496.713c-10.743 0-19.49 8.748-19.49 19.491 0 4.667 1.636 8.946 4.385 12.303L1682 544.039l2.802 2.802 15.532-15.532a19.34 19.34 0 0 0 12.303 4.385c10.743 0 19.491-8.748 19.491-19.49 0-10.743-8.748-19.491-19.491-19.491Zm0 3.898a15.565 15.565 0 0 1 15.593 15.593 15.564 15.564 0 0 1-15.593 15.592 15.564 15.564 0 0 1-15.592-15.592 15.564 15.564 0 0 1 15.592-15.593Zm-1.949 7.797v5.847h-5.847v3.898h5.847V524h3.898v-5.847h5.847v-3.898h-5.847v-5.847h-3.898Z" fill="#fff" fill-rule="evenodd" data-name="Path 205"/></svg>