<?xml version="1.0" encoding="UTF-8" standalone="no"?>
<svg
   xmlns:dc="http://purl.org/dc/elements/1.1/"
   xmlns:cc="http://creativecommons.org/ns#"
   xmlns:rdf="http://www.w3.org/1999/02/22-rdf-syntax-ns#"
   xmlns:svg="http://www.w3.org/2000/svg"
   xmlns="http://www.w3.org/2000/svg"
   viewBox="0 0 24.345667 24.119999"
   height="24.119999"
   width="24.345667"
   xml:space="preserve"
   id="svg2"
   version="1.1"><metadata
     id="metadata8"><rdf:RDF><cc:Work
         rdf:about=""><dc:format>image/svg+xml</dc:format><dc:type
           rdf:resource="http://purl.org/dc/dcmitype/StillImage" /><dc:title></dc:title></cc:Work></rdf:RDF></metadata><defs
     id="defs6"><clipPath
       id="clipPath22"
       clipPathUnits="userSpaceOnUse"><path
         id="path20"
         d="M 0,1080 H 1920 V 0 H 0 Z" /></clipPath><clipPath
       id="clipPath122"
       clipPathUnits="userSpaceOnUse"><path
         id="path120"
         d="M 1200.683,476.904 H 1595 v 316.568 h -394.317 z" /></clipPath><clipPath
       id="clipPath134"
       clipPathUnits="userSpaceOnUse"><path
         id="path132"
         d="M 345,476.904 H 739.317 V 793.472 H 345 Z" /></clipPath><clipPath
       id="clipPath146"
       clipPathUnits="userSpaceOnUse"><path
         id="path144"
         d="m 772.842,476.904 h 394.317 V 793.472 H 772.842 Z" /></clipPath><clipPath
       id="clipPath158"
       clipPathUnits="userSpaceOnUse"><path
         id="path156"
         d="M 0,1080 H 1920 V 0 H 0 Z" /></clipPath><clipPath
       id="clipPath166"
       clipPathUnits="userSpaceOnUse"><path
         id="path164"
         d="m 946.072,659.116 h 47.856 V 611.26 h -47.856 z" /></clipPath><clipPath
       id="clipPath186"
       clipPathUnits="userSpaceOnUse"><path
         id="path184"
         d="m 1373.91,659.116 h 47.86 V 611.26 h -47.86 z" /></clipPath><clipPath
       id="clipPath206"
       clipPathUnits="userSpaceOnUse"><path
         id="path204"
         d="M 345,127.193 H 739.317 V 443.761 H 345 Z" /></clipPath><clipPath
       id="clipPath218"
       clipPathUnits="userSpaceOnUse"><path
         id="path216"
         d="m 772.842,127.193 h 394.317 V 443.761 H 772.842 Z" /></clipPath><clipPath
       id="clipPath230"
       clipPathUnits="userSpaceOnUse"><path
         id="path228"
         d="M 1200.683,127.193 H 1595 v 316.568 h -394.317 z" /></clipPath><clipPath
       id="clipPath242"
       clipPathUnits="userSpaceOnUse"><path
         id="path240"
         d="M 0,1080 H 1920 V 0 H 0 Z" /></clipPath><clipPath
       id="clipPath250"
       clipPathUnits="userSpaceOnUse"><path
         id="path248"
         d="m 518.23,659.116 h 47.856 V 611.26 H 518.23 Z" /></clipPath><clipPath
       id="clipPath270"
       clipPathUnits="userSpaceOnUse"><path
         id="path268"
         d="m 946.072,309.406 h 47.856 v -47.857 h -47.856 z" /></clipPath><clipPath
       id="clipPath290"
       clipPathUnits="userSpaceOnUse"><path
         id="path288"
         d="m 1373.91,309.406 h 47.86 v -47.857 h -47.86 z" /></clipPath><clipPath
       id="clipPath310"
       clipPathUnits="userSpaceOnUse"><path
         id="path308"
         d="m 518.23,309.406 h 47.856 V 261.549 H 518.23 Z" /></clipPath><clipPath
       id="clipPath334"
       clipPathUnits="userSpaceOnUse"><path
         id="path332"
         d="M 0,1080 H 1920 V 0 H 0 Z" /></clipPath><clipPath
       id="clipPath342"
       clipPathUnits="userSpaceOnUse"><path
         id="path340"
         d="m 1219.09,1019.5 h 58.87 v -16.14 h -58.87 z" /></clipPath><clipPath
       id="clipPath358"
       clipPathUnits="userSpaceOnUse"><path
         id="path356"
         d="m 1390.75,1019.5 h 127.94 v -16.14 h -127.94 z" /></clipPath><clipPath
       id="clipPath374"
       clipPathUnits="userSpaceOnUse"><path
         id="path372"
         d="m 1663.2,1019.5 h 92.61 v -16.14 h -92.61 z" /></clipPath><clipPath
       id="clipPath390"
       clipPathUnits="userSpaceOnUse"><path
         id="path388"
         d="m 1308.44,1019.5 h 53.18 v -16.14 h -53.18 z" /></clipPath><clipPath
       id="clipPath406"
       clipPathUnits="userSpaceOnUse"><path
         id="path404"
         d="m 1540.83,1019.5 h 98.34 v -16.14 h -98.34 z" /></clipPath></defs><g
     transform="matrix(1.3333333,0,0,-1.3333333,-1391.4296,-168.13062)"
     id="g10"><g
       transform="translate(1046.2872,-133.56497)"
       id="g176"><path
         id="path178"
         style="fill:#ffffff;fill-opacity:1;fill-rule:nonzero;stroke:none"
         d="M 0,0 C 0,2.62 2.132,4.752 4.752,4.752 7.372,4.752 9.503,2.62 9.503,0 9.503,-2.62 7.372,-4.752 4.752,-4.752 2.132,-4.752 0,-2.62 0,0 m 15.146,-8.305 -4.177,4.177 c 0.788,1.184 1.25,2.603 1.25,4.128 0,4.117 -3.35,7.467 -7.467,7.467 -4.118,0 -7.467,-3.35 -7.467,-7.467 0,-4.117 3.349,-7.467 7.467,-7.467 1.612,0 3.103,0.519 4.325,1.392 l 4.149,-4.15 c 0.265,-0.265 0.613,-0.398 0.96,-0.398 0.348,0 0.695,0.133 0.96,0.398 0.531,0.53 0.531,1.39 0,1.92" /></g></g></svg>