<svg version="1.2" xmlns="http://www.w3.org/2000/svg" viewBox="0 0 191 191" width="191" height="191">
	<title>location-minimap-svg</title>
	<defs>
		<clipPath clipPathUnits="userSpaceOnUse" id="cp1">
			<path d="m1.8 1.8h186.5v186.5h-186.5z"/>
		</clipPath>
		<clipPath clipPathUnits="userSpaceOnUse" id="cp2">
			<path d="m1.8 1.8h186.5v186.5h-186.5z"/>
		</clipPath>
		<clipPath clipPathUnits="userSpaceOnUse" id="cp3">
			<path d="m1.8 1.8h186.5v186.5h-186.5z"/>
		</clipPath>
	</defs>
	<style>
		.s0 { fill: #ffffff;stroke: #efeff0;stroke-width: .5 } 
		.s1 { fill: #e2e3e4;stroke: #ffffff;stroke-linejoin: round;stroke-width: .5 } 
		.s2 { fill: #e2e3e4 } 
		.s3 { fill: #137476 } 
		.s4 { fill: none;stroke: #137476;stroke-width: 3 } 
	</style>
	<g id="g180">
		<g id="Clip-Path: rect10" clip-path="url(#cp1)">
			<path id="rect10" class="s0" d="m-54.4-46.1h307.5v253.5h-307.5z"/>
		</g>
		<g id="Clip-Path: g172" clip-path="url(#cp2)">
			<g id="g172">
				<path id="polygon12" class="s1" d="m204.4 253.3v-0.2l-0.2-0.2-0.4-0.8-0.4-0.3-0.2-0.2-0.9-0.6h-0.4l-0.6-0.4-0.4-0.2v-0.2l-0.2-0.2h0.2l-0.2-0.9h-0.5l-0.2-0.2h-0.2l-0.4-0.2h-0.2-0.9l-0.2-0.4 0.2-0.9-0.8-0.4-1-0.4-1.3 0.4-0.2 1.3-1.3 0.6h-0.6l-0.4-3.6-0.4-1.2-0.3-1.1-0.8-3.5-0.6-1.1-1.7-1.7v-0.8l0.4-0.4h1.1 0.8l0.6 0.2 0.5 0.4 0.6 1.5 0.4 0.4 0.4-0.2 0.2-1.3 0.2-1 0.3-0.9 0.6-1.6 0.2-1.7 27.3-0.4 0.2 9.4v1.1l0.2 4.8 0.2 5.9-5.4 0.2 0.2 6.3h-1.7l-3.2 0.2h-0.4-1.9-1.6v-0.9h-1.5l-0.4-0.6-1.1-2.3z"/>
				<path id="polygon14" class="s1" d="m184.9 232.3l-0.4 2.1v0.2l-0.2-0.4v-0.4-0.2-0.2-0.4-0.7l-0.2-0.8v-0.2l-0.2-0.7v-0.4h0.2 0.2l1.7 0.4-0.7 0.7z"/>
				<path id="polygon16" class="s1" d="m190.8 250.6l-1.3-0.6-0.2-0.3-0.2-0.4-0.4-0.8-0.8-4-0.3-0.6-1-1.5-0.8-2.7-0.7-1.1-0.8-1.2-0.2-0.7 0.2-0.8 0.4-0.4v-0.2h0.4l0.4 0.8-0.2 0.4v0.2l0.5 1.3 1 2.3 0.2 1.3 1.1 2.7 0.6 1.9 0.4 1.7 0.6 0.6 1.1 0.8h0.8l0.7 0.2 1.8 1.1 0.7-0.6 0.6-0.3h0.2l0.9 0.5 0.4 0.2 1.2 0.2v0.2l-1.6 1-0.9 0.5-0.2 0.2-0.6 0.2h-0.4l-0.9-0.2-0.4-0.2-0.2-0.2-0.9-0.3z"/>
				<path id="polygon18" class="s1" d="m89.2-6.3v3.7l0.4 2.3 1.1 1.3-0.5 0.2 0.5 1.7h-3.4v2.3 1.3l-1.7 1.6v1.3l-0.2 2.7v5.9l-8.8-0.2-0.2-1.7h-24.8l0.6-1-0.6-0.9 1.7-1 0.2-1.1 0.4 0.2 0.4-0.8 0.9-0.6v-0.5l1.2-0.8 1.1-0.4 0.6 0.2 1.3-1.1 1.2-0.6h0.9l1-0.6 0.9-0.6h1 1.5l1.3-0.3h0.2v-0.2h0.2v-0.2h0.2l0.2-0.2h0.2v-0.2-0.2h0.2v-0.2h0.2l-0.2-0.2h0.2v-0.2h-0.2l-0.2-0.9 0.4-0.6 0.2-0.6 0.5-1.7 0.4-1.3 0.8-0.6 0.8-0.6 0.7-0.2 0.2-0.7 0.4-0.6 0.4-0.6 0.7-0.9v-1.2-0.7l0.8-0.4v-0.2l10.7 0.6z"/>
				<path id="polygon20" class="s1" d="m155.9 95l0.3-1-0.3-1.7-1.2-0.6v-0.6l-1.9-0.3-0.4-1.2 0.8-0.4h0.4l0.2-0.5v-0.2l-0.4-0.8v-1.1l-1.2-0.8-1.7-0.2h-1.5l-1.9-0.4-0.6 0.2h-0.6l-1.5-0.2h-0.4l-0.4-0.7h-0.3l-0.2 0.3-1.2 1.6v0.7l-0.6 0.4-1.1 0.2-0.2-1.1-0.6-0.4 0.4-1-0.2-0.2-0.2-0.7-0.7-0.6-0.4-1.3 0.6-1.8-0.2-0.5-0.6-0.8h-0.8l-1.1-0.6-0.2-0.2-0.8-0.5h-0.2l-0.7 0.2-0.4-0.2 2.3-1.9 3-1.4 1.4-2.3 0.9-1.7 0.6-2.1 1.5-1.9 0.2-1.9 0.4-1.5 0.8-1.6 1.1-1.9v-0.2l4.4-0.2v0.4h4.4l0.8 0.4v1l5.5-0.2v1.7l5.2-0.2v1.7 1.9h3.4v-0.4h4.8v9.4l0.2 3.1v4h-6.9v10.5l-2.3 1.1-1-0.2-0.3 1-0.6 0.2-4-1.4-1.2 0.2-2.3 2.1-0.3 0.2-0.2-0.4z"/>
				<path id="polygon22" class="s1" d="m32.1 33.7l-1.7-1-1.2-1.5v-2.1l-0.5-1.4v-1.5l0.5-1.3 0.6-2.3 0.4-0.4v-0.4l1.9-1.7 1.3-3.1 1.6-5.7 1.7-5.7 0.4-3.1 1.5-3 1.7-2.1h2.5v4.4h3.6v1.1h1.6l0.3 3.6h3.3v2.5h1.9v1.9h1.7l-0.9 0.6-0.4 0.8-0.4-0.2-0.2 1.1-1.7 1 0.6 0.9-0.6 1-1.2 2.1 1.8 1.1v1l1.1 0.8 0.2 1.9 0.4 0.2v3.6l1.1 1.1-0.2 0.6 1.2 2.1 1.1 0.2 1 1.9 2.3 1.3-24.5-0.5 0.2 0.2-0.6 0.7-0.7 1.7-0.8-1.1z"/>
				<path id="polygon24" class="s1" d="m128.7-1.1l1.8 7.1 3 5.1-0.6 0.2-0.5 0.2-0.2 0.4v0.6 0.5 0.2h-0.4l-0.6 0.6 0.2 0.6v1.1l-0.4 0.4-0.7 0.6-0.2 0.9-0.4 0.8 0.2 0.2-0.2 0.2h-0.2-0.2-6.3l-5.5 0.2 0.2-2.7h-18.6l1.6-1.2-1-2.6 0.4-0.8 2.3-0.4 0.2-1.3 1.7-1.7-0.6-3.5-0.2-0.9 0.6-1h1v-0.9h1.7v-0.8h1.9v-1.1h0.9v-0.8h0.8v-3.4l-0.4-0.8 13.4 0.8 2.5 0.3z"/>
				<path id="polygon26" class="s1" d="m160.8 187.4l-0.2-0.8 0.2-0.2 0.6-0.5 0.6-0.2h0.7l0.2-0.6 0.6-1.3 1.3-1-0.2-0.9h0.2l0.8-0.6h0.6l0.7-0.8 0.2-0.4 0.4-1.5 0.2-0.4h0.2 0.6 0.9l9-0.2 16.6-0.3 0.2 18.9v8h-10.7l-0.2-10.7h-9.9-0.4-0.2-0.4-0.5-0.8-4.8-4-0.2l-1.7-2.1-1-0.8v-0.4h0.2l-0.2-0.3v-0.4l-0.3-0.2v-0.2l-0.2-0.4-0.4-1.3-0.2-0.4-0.2-0.2-0.4-0.8-0.4-0.5-0.7-0.6-0.2-0.4 0.2-0.2 1.9 1-0.2 1.3 0.2 0.2 1.1 0.2z"/>
				<path id="polygon28" class="s1" d="m200.2 97.3l-1 0.3h-1.7-0.6l-16.8 0.2-0.2-0.9-2.5-1.2-0.3-0.5-1.6-0.4-0.2-0.6-1.1 0.4-0.4-0.6h-0.2v-0.2l-0.2-0.2-0.2 0.2v-0.2l-1.1-1.1h-0.2l-0.2 0.2v-0.2h-0.2-0.2v-0.2-0.2 0.2h-0.2v-0.2h-0.3v0.2h-0.2l-1.2 0.9-0.2-0.5h-1.3v-10.5h6.9v-4l-0.2-3.1v-9.4h9.7l1.9 1.6-1.3-0.6v2.3l1.1 0.4 1.4-0.4 0.9 0.6 0.8-1 0.4 0.4 1.1-0.4 1 0.2 0.9-0.8 0.8 0.2v-1.9l1.3-1.3 1.4-0.6 2.1-0.2 1.7-0.6 1.3 0.6 0.2-0.6h2.3l1-0.5v2.1l3.6-0.2 0.2 3.6h1.7v3.6h4l0.6 1.8h-1l-0.2 0.9 0.6 1.5h0.8l0.7 1.4 0.2 8.8 0.2 4.2v1.1h-1.1v5.2l-9.6 0.2h-4.9z"/>
				<path id="polygon30" class="s1" d="m296.6 199.4l0.2 0.4 0.6 1.2 1.1 2.1 0.2 0.5 0.4 1-0.4 0.4 0.6 1.3 0.6 1.9 1.3 2.3 1.3 3.4 1 2.7-1.9 0.2h-0.6-0.4-0.4-0.3v0.8l-5.6 0.2h-7-0.6l-27.3 0.9 11.2-10.3-0.3-5.3 10.8-0.2 4.4-0.2h3.3 3v-1.7-1.8h2.7l1.2-0.3h0.7z"/>
				<path id="path32" fill-rule="evenodd" class="s1" d="m300.6 294.9l0.2-1 0.2-0.8v-0.4l-0.4-0.4-0.6-0.4h-0.8l-1.7 0.8-0.2 0.2h-0.3l-0.2 0.2-0.2 0.4v0.8l-0.2 0.8v0.2l-0.8 1.7v0.4l-0.4 0.8-0.4 0.4h-0.2v0.2h-0.2l-0.4 0.4-0.2 0.6-0.2 1.3v1l0.2 0.4-0.6 1.7-0.4 0.4h-0.2l-0.6 2.1v1.3l0.2 0.8 0.4 1.5 0.6 0.2-0.4 0.8v1.7l0.4 0.2 0.6 0.2 0.2 0.2-0.2 0.8-1.5 2.1-0.8 0.6h-0.4l-0.8 0.6-0.4 1-0.2 0.8-1.7 1.5-1 0.6-0.4 0.4-1.3 1-0.8 0.8-0.2 0.6-0.4 0.6-0.2-0.2-0.4-0.2v-0.2l-0.4-0.4-0.4-0.2-0.4 0.2-0.6-0.2v-0.6l-0.4-0.4-1.1 0.2h-0.6l-1 1 0.2 1v0.2l-0.8 1-0.8 0.2v-1l-0.8 0.6-1.5 0.8 0.2 0.6h-1.5l-0.4 0.2-0.2 0.4-0.2 0.2h-1.2l-0.8 0.2-0.6 0.4v-0.6l-0.2-0.4-0.4-0.2-2.1-0.4-1.7 0.8-0.2-0.4-0.4-0.4-0.4-0.2-0.8 0.2v-2.3l-0.2-1.9-0.2-7.3h-0.6l-0.6-26.9-0.2-10.7 10.7-0.2v1.5l13.2-0.4 4.8-0.2h3.1v-0.8h0.8l1.9-0.2 5.7-0.2 0.4-0.2v0.2l0.6-0.2h0.2l0.2 3.8-0.2 1.9 0.2 1.3v2.8l-0.4 1.7v1.4l-0.4 1-0.4 0.6-0.4 2.3v1.2l0.2 0.2v0.2l-0.2 0.2v0.4h-0.2l-1-1.3 0.2-0.2zm-4.4 20.8l0.4-0.4v-1.3l0.2-0.6 0.2-0.4 1.3-0.6 0.4-0.2 0.2-0.4 0.4-1 0.2-1.5 0.4-0.8 0.2-0.8-0.2-0.6 0.2-0.6 0.4-0.8h0.2l0.2 2.3-0.6 0.8-1 3.6-0.8 0.8-0.8 2.1-0.2 1-0.4 0.2z"/>
				<path id="polygon34" class="s2" d="m219.8 362.5l1-0.4 1.3-1.3v-0.4l0.8-0.4h0.6l0.2-0.3 0.3-0.6 1-1.5h0.2l0.9 0.7 0.4 0.2 0.8-0.6 0.2-0.7 0.2-0.2 1.3-0.4 0.6-0.2 0.2 0.4h0.2l0.7-0.2 0.2-0.2 0.2-0.2v-1.3l-0.2-0.2 0.2-0.4 0.6 0.6v0.6h0.2l0.2 0.3 0.5-0.7 0.2-0.4-0.4-0.4h-0.3v-0.4h0.5l1.2 0.2 0.4 0.4 0.3 0.2v0.4l0.2 0.4 1.4 0.9 0.9 0.2 1.4 0.2 0.2 0.6 0.3 0.7 0.2 1 0.6 0.4v0.2l-0.2 0.3-1.7 0.6-3.3 1.2-0.5-0.2-0.2-0.8-0.6-0.4h-1.1l-0.8 0.4-1.3-0.2h-0.4l-0.2-0.2 0.2-0.2 0.2-0.2-0.2-0.5-1-0.2-0.2 0.2-0.2 0.5-0.3 0.6v0.8 0.4l-0.4 0.3-1.7 0.4-3.1 1.7-2.9 0.8h-0.5l-0.2 0.2v0.2l-0.4 0.2-0.4 0.4-0.4-0.2h-0.2l-1.1 0.2-1 0.3h-1.3l-0.6 0.2-1.1 0.4h-0.8-0.4-0.2l-0.3-1.1 0.3-0.4h0.6l0.4-1h1l1.5-0.2h0.4l0.2 0.2 0.5 0.2 0.6-0.4v-0.3l0.6-0.2v-0.2h0.4l0.3 0.4h0.2 0.2l0.2-0.2h0.2v-0.2l0.2-0.2 0.2-0.2 0.2-0.2z"/>
				<path id="polygon36" class="s2" d="m193.1 363.9h0.4l1.3 0.7 0.2 0.2v0.6l-0.2 0.9-0.7 0.6-2.3 0.2-0.4-0.4v-0.7l0.9-0.8 0.4-1z"/>
				<path id="polygon38" class="s2" d="m242.8 358.5l-0.2 0.2-2.1 1 0.2-0.4 1.1-0.8h0.6l0.2-0.2z"/>
				<path id="polygon40" class="s2" d="m254 354.1h0.2v0.2l0.8 0.2h0.2l1.3-0.6 0.4-0.5 1.5-0.8 2.7-1.3v0.3l0.2 0.6-0.2 0.4-1.5-0.2-4.2 2.9-0.4 0.2-0.4-0.2-0.2-0.4-0.4 0.2-0.4 0.2-0.5 0.2-0.4 0.3-0.4 0.2v0.2h-0.2v0.2l-0.2 0.4v0.2 0.2h-0.4l-1.3 0.2-0.8-1v-0.2l0.8-0.2h0.2 0.2 0.2 0.2v-0.2h0.5l0.2-0.3h0.2l0.2-0.2 0.4-0.2 0.8-0.8z"/>
				<path id="polygon42" class="s2" d="m240.1 354.7v1.1l-0.8 0.4-0.4-0.9-0.5-0.2-0.4 0.2-1.2-1.2-0.5-0.7 0.9 0.3 0.8-0.5v-0.4l0.4 0.6h0.9z"/>
				<path id="polygon44" class="s2" d="m262.2 351.1l-0.9 0.2 1.1-0.4h0.2z"/>
				<path id="polygon46" class="s2" d="m267.4 349.5h-1.5l-1.2 0.6h-0.2l0.2-0.2 0.8-0.4 0.9-0.9 1.2-1 0.6 0.2-0.4 1v0.2z"/>
				<path id="polygon48" class="s2" d="m272.7 345.3l0.6-0.5v0.2l-0.6 0.9-0.7 0.4-2.7 1.7h-0.2l1.2-0.9 0.3-0.4 0.4-0.6h0.2 0.4z"/>
				<path id="polygon50" class="s2" d="m286.9 332.5v0.2l-0.2 0.2-0.6 0.2-0.4 0.2-0.5 0.4-0.2 0.2-1 1.3 0.2 0.4v0.2l-0.2 0.2v0.2h-0.2v0.2h-0.2l-0.5 0.5-0.2 0.2-0.2 0.2-0.2 0.2-0.6 0.6h-0.2v0.2l-0.6 0.7-0.7 0.8-0.4 0.4v0.2h-0.2l-0.2 0.2h-0.6l-0.7 0.3-0.8 0.6-1.3 1.7-1.2 0.8v-0.4l0.4-0.2 0.6-0.4 0.9-1.1v-0.2-0.2l0.2-0.2 1.2-1.1 0.7-0.2 0.2-0.2 0.2 0.2h0.2 0.2l0.6-0.6 0.2-0.2 0.2-0.7 0.5-0.8v-0.4l-0.2-0.4 0.8-0.2h0.2 0.2l0.6-0.7 0.2-0.2 0.5-0.8h0.2v-0.2l0.2-0.2h0.2l0.2-0.3 0.2-0.2 0.6-0.8h0.3l0.2-0.4v-0.2l-0.2-0.5-0.3-0.2h-0.6l-0.8-0.6 0.6-0.4h0.4v0.4l0.7 0.4h0.2l0.2 0.2h0.4l0.2-0.2h0.2l0.2-0.2v-0.2l0.2-0.4v-0.2-0.2l-0.2-0.7-0.6-1.4 0.2-0.2 1.1 0.6 0.6 0.2h0.2l0.4-0.2 0.4-0.6 0.2-0.5v-0.2l0.3-0.6v-0.6l-0.3-0.7 0.3-0.4 0.8-0.4 0.6-0.2 0.7-0.2 0.6-1.3 0.2-1.2-0.2-0.7-0.4-0.4-1.5-0.6 0.2-0.4 1.5-0.3 0.2 0.3h0.4l0.6-0.5 1.3-1.2 0.2-0.6 0.6-1.3 0.7-0.6 0.8 0.6-0.2 0.4-0.4 0.6-0.4 0.5-1.1 2.3-1 1.4-2.4 4.2v0.5l0.3 0.8-0.5 1-1 1.5-1.3 1.3-1.4 0.8-0.3 0.2v0.2z"/>
				<path id="polygon52" class="s1" d="m249.4 290.3l5.4-1.1 6.9-0.2 0.7 26.9h0.6l0.2 7.3 0.2 1.9v2.3h-0.8l-0.9 0.6h-0.2l-0.4 0.3v0.6l0.2 0.2-0.2 0.6-0.4-0.2h-0.4l-1.3 0.4h-0.2-0.6-0.2l-0.7 0.2-1.4 0.5-0.2 0.2-0.5-0.2h-0.4l-0.4-0.2h-0.4l-1.1 0.2-0.6 0.2-1.1 0.4-0.8-0.6-1-1.1-0.5-0.4-0.6-0.2-0.4-0.4-0.2-1.3-0.2-0.4-0.5-0.6v-0.5l-1-0.8v-1.5l0.2-0.2v-0.2l0.2-2.1 0.2-0.6 0.4-0.4 0.3-0.9-0.3-0.4 0.3-0.4 0.4-0.6h0.2l0.8 0.2 0.2-0.5v-0.6l-0.6-1.5h-0.8l-0.5-0.4v-0.6l0.3-0.4v-0.2l-1.5-3.4-0.4-0.6-0.9-0.7-0.8-1.2-0.2-0.6 0.4-1.1v-0.4l-0.4-0.4-0.9-0.7-0.4-1v-0.6l-0.4-0.9v-0.8l-0.8-1.5-0.9-1.3-0.4-0.4-0.8-1.2-2.1-1.9-0.5 0.2-0.6-0.4v-0.9l0.2-0.8-0.2-0.2-0.4-0.4-0.4-0.5v-0.4l0.8-0.6 0.2-0.2v-0.4l-0.2-0.7 13.4-0.2z"/>
				<path id="polygon54" class="s1" d="m225.2-7.4l-0.6 4.2 0.2 1v1.7l0.4 2.1-0.4 0.7-1.9-1.3-1.3-1.9-0.6-0.2-0.6 0.6 0.2 1.1-0.4 0.8-0.7 0.2-0.6-1.2-1.2 0.4-0.7-0.9 0.2-0.8-1.2 0.6 0.4-0.8-0.4-1.1h-0.9l-1.2 0.7-1.1 1.4v-0.6l-1.4-0.4-0.5 0.4-1-0.4-0.6 0.6-0.2 1.7h-1.3v0.8l-0.8 1.1-0.7-0.2-0.8 1.2-1.3 1.1-11.3 12.2v-5.5l0.6-0.6v-0.9l-0.4-1 0.4-1.1-0.2-1 1.1-2.3v-3l0.6-3.3-0.6-1.5-0.7-0.2v-1l-1-1.9-0.2-1.3 0.8-1.9-0.6-1.2 0.6-1.5 1.3-0.6-0.7-1.7 0.7-0.2 1.6 0.8 0.9-1.2-0.2-1.3 0.8-0.6 1.1 0.6 1.2-0.6 2.3 2.1 1.3 0.4 1.5-0.2 1.4 1 1.5 0.2 2.1 1.3 1.7 0.2 0.8-0.6 1.9 1.2 2.5 0.5 1.5 0.6h1.3l1.4-0.6 3 0.4 0.4 0.2 0.4 0.4 0.2 0.2 0.2 0.2z"/>
				<path id="polygon56" class="s1" d="m-41.4 9.6l-0.2 0.2h-1.7l-1.2-0.4-5.5-0.6-6.3 0.2-2.5 0.2v-1.3-0.2-0.4l1.7-35.5 5 0.4h6.7l2.1 0.2 7 0.3-0.9 30.4v1.7 0.8l-0.2 1.3v2.1l-0.2 1h-0.6z"/>
				<path id="polygon58" class="s1" d="m270.1 192.2l0.2 10.9 0.3 5.3-11.2 10.3 0.2-5.5 0.3-5.4v-0.9l-0.5-0.6-0.2-0.4-0.4 0.2-0.2-0.2-0.2-0.2h-0.2l-0.2-0.2-0.2-0.3 0.2-0.2-0.2-0.2v-0.2l-0.3-0.2h-0.2-0.2l-0.2-0.4h-0.2l-0.2 0.2-0.2-0.2-0.2-0.4h-0.2v-0.2l-0.5-0.9-1 0.4-0.6-0.8v-1.1l-0.7-0.2-0.4-1 0.2-1.7-1.7-0.2-0.2-1.5-0.8-0.8 0.6-1.3-2.7-1.6-0.8 0.6-1.5-1.1v-0.4l-1.1-0.6 0.2-1.3-0.4-0.8-1.4-1.1-0.7-1-1.2-0.4 0.4-1.3-0.9-1 1.3-1.9h0.6l1.3-2.1 0.6-0.5v-2.7l14.5-0.2h0.6l4.7-0.2 0.2 5h5.2l0.2 6.3v0.5l0.2 3.5z"/>
				<path id="polygon60" class="s1" d="m228.4 107.6l-0.5 3-1 1.2-0.8 0.2v0.3 1.6 0.2 2.1 0.3h0.2 4.8 1.9 0.2v1.6l8.2-0.2h0.6 0.4l9.1-0.2 2.1 0.4 0.2 1.3 0.8 1.2-0.4 1.7 0.8 0.2 1.1 1.1 1.2 0.6v0.9l0.7 1-1.3 0.4 0.2 1.3-0.4 0.8 1 1.5-0.4 1.3 0.9 0.8 0.6 1.5-21.8 0.6h-2.3-0.5-0.2-2.1l-6.7 0.2h-1.5-0.2-0.8l-6.7 0.2-0.2-11.7v-0.5-0.2-0.2-0.2l0.4-1.9-0.4-0.4-0.3-5.5v-3.7l-0.2-1.3 0.9-0.2 0.2-1.1h0.2 0.6 1.7 1.7l0.2-0.2h1.5 0.2z"/>
				<path id="polygon62" class="s1" d="m226.7 146.9h-0.6l-3 0.2v-3.6l-1.5-2.9-0.2-0.2v-0.2l-0.2-0.2h-5.4v-5.1-0.2l6.7-0.2h0.8 0.2 1.5l6.7-0.2h2.1 0.2 0.5 2.3l21.8-0.6 0.4 15.3-0.4 0.4 0.4 0.4-0.4 1.3 0.4 14.7h-0.6l0.2 5.4h0.4v5.7l-14.5 0.2 0.4-0.2v-0.6l-0.4-0.9-0.2-0.6-0.2-1v-0.5l-0.2-0.8-0.8-0.4-0.3-0.2 0.3-0.5v-0.4l-0.5-0.2-0.2-0.8v-0.4l-1-1.3-0.9-1.7-1-1.4-0.9-0.5h-1.2l-1.7-0.8-0.6-1.9-0.2-1-0.7-1.1h-0.4l-0.4-0.6 0.2-0.4-1.2-1.5-1.1-0.9-0.2-0.6-0.8-0.6-0.9 0.2-0.6-0.6-0.9-1.1-0.8-0.4-0.2-0.4v-0.7l0.2-0.2h0.6l0.5 0.5 0.6 0.6 1.2 0.6 0.5 0.4 0.4 0.5 0.4-0.5 0.4-0.8 0.2-1.1v-0.4l0.5-0.4 0.2-0.2 0.2-0.2v-0.2l-0.7-0.4h-0.8-4.4v-1.9-1.7z"/>
				<path id="polygon64" class="s1" d="m305.4 223.5l1.1 3.8v1.5h-0.3l-0.2 0.4 0.2 1.7 0.3 1.2v0.6 0.5 0.2 0.6 0.6 3.8 2.5 0.2l-0.3 0.9v0.6 0.2l-0.2 0.9-0.2 1-0.2 2.3v0.9l-0.2 0.8-0.2 6.7h-0.2v0.9h-0.4l-0.5 0.2-0.2-0.5-0.4 0.3v-0.3h-0.8-2.1-2.8l-1.2-0.2h-0.2-0.2-0.2-0.3-0.2-0.2-2.7l-32.1 0.9v-0.7h0.2l-1.1-23.3-0.2-14 27.3-0.9h0.6 7l5.6-0.2v-0.8h0.3 0.4 0.4 0.6l1.9-0.2 0.6 2.3z"/>
				<path id="polygon66" class="s1" d="m156.2 143.3v-0.2-1.5l0.2-0.6h0.2l0.4-0.4 0.2-0.2v-0.2l0.2-0.4v-0.3l0.4-0.8-0.2-0.4 0.2-1.5 0.9-1.2v-0.3l0.2-0.4 0.2-0.8v-0.4-1.7l0.4-1.1 0.9-0.4 0.2-0.4h2.1 1.9 0.2 1.2 2.7 1.1l13.6-0.4v-2.5h0.3l10.4-0.3 0.3 10.1v3.4h-2.8v5.4h-3.5-0.2-7.8-0.2-2.1l-1.5 0.2h-0.6-1.5-2.5-0.2-0.2l-1.7-0.2-2.3 0.2h-1.9-2.7-0.5-1.2-2.7-2.8-0.4-0.2-0.2-0.4-0.5l0.5-0.8z"/>
				<path id="path68" fill-rule="evenodd" class="s1" d="m155.3 169.8l-0.4-0.4-1.7-1.3-0.4-0.6-1-1.9v-0.6l-0.2-1.3v-0.6l0.2-0.8 0.4-1.7 0.2-0.6 0.2-0.8h0.4v0.2l-0.4 1.7-0.4 1.3h0.4l0.6-1 0.6-1.9 0.2-0.2 0.2-1.7 0.4-1.5v-1.3l0.4-1.5v-4.7l-0.2-0.8-0.2-0.4h-0.4l-0.6-0.2 0.2-1h8.3l0.2 7.1v5.3l-1.9 0.2-1.7 0.2-0.2 0.2h-0.2v1l0.6 0.6h0.2l0.8 0.2 0.2 0.2 0.2 0.4h0.8v0.2h2.3l-0.4 0.4 0.2 0.8 0.4 0.4 0.6 0.4v0.2l2.3-0.6v1.5h-1.7l0.2 1 0.4 0.4 0.2 1-1.3 1.3-0.8 1-0.2 1-0.2 0.6 0.4 1.3v0.4l-0.4 0.8-0.4 0.4-0.6 0.2h-0.6l-0.2-0.2h-0.3v0.6l-0.8-0.4-1 0.2-0.2 0.4-0.2 1.3v0.4l0.2 0.8 0.2 0.2 0.8 0.4-0.4 0.8-1.5 0.8-0.2-0.2v-5.5l-0.2-0.8-0.4-0.6-0.2-0.4-0.4-0.4-0.6-1.5zm-2.3-10.9l-0.4-0.2v-3.1l0.4-0.6v-1l-0.2-0.4-0.2-0.6-0.4-0.6 0.2-0.4 0.2-0.2h0.2l0.2 1 0.2 0.6 0.2 1.3v1.5l-0.4 0.2v0.4l0.2 0.6 0.2 1z"/>
				<path id="polygon70" class="s1" d="m194.8 165.4l-0.2-4.7v-0.2-1.2-0.2-5.1l-0.2-2.7v-1.3-3.5-0.9l-2.8 0.2v-5.4h2.8v-3.4l1.4-0.6 1.7 0.4 0.6 0.6 1.5-0.2v-2.3h5.3v-1h2.1 1.6v0.8h4.4 1.9 0.9v0.2 5.1h5.4l0.2 0.2v0.2l0.2 0.2 1.5 2.9v3.6l3-0.2h0.6 0.2v1.7 1.9h4.4 0.8l0.7 0.4v0.2l-0.2 0.2-0.2 0.2-0.5 0.4v0.4l-0.2 1.1-0.4 0.8-0.4 0.5-0.4-0.5-0.5-0.4-1.2-0.6-0.6-0.6-0.5-0.5h-0.6l-0.2 0.2v0.7l0.2 0.4 0.8 0.4 0.9 1.1 0.6 0.6 0.9-0.2 0.8 0.6 0.2 0.6 1.1 0.9 1.2 1.5-0.2 0.4 0.4 0.6h0.4l0.7 1.1 0.2 1 0.6 1.9 1.7 0.8h1.2l0.9 0.5 1 1.4 0.9 1.7 1 1.3v0.4l0.2 0.8 0.5 0.2v0.4l-0.3 0.5 0.3 0.2 0.8 0.4 0.2 0.8v0.5l0.2 1 0.2 0.6 0.4 0.9v0.6l-0.4 0.2-19.5 0.2h-3.4l-14.2 0.2-12.4 0.2z"/>
				<path id="polygon72" class="s1" d="m195.8 49.9l1.5-0.4 1.9-0.2 1-2.3 1.5-0.9h1.7l2.1-1.6 1.2-0.7 11.6-0.4 0.8 2.5 1.3 1.7 0.8 0.6 0.2 7.8v0.4 0.2l0.5 7.8 1.6 2.5 0.2 1.7 0.7 1.7 1 0.4 1.1-0.4-0.9 1.2-2.9 0.9-2.9 0.8-6.3 1.7 0.2-0.9h1l-0.6-1.8h-4v-3.6h-1.7l-0.2-3.6-3.6 0.2v-2.1l-1 0.5h-2.3l-0.2 0.6-1.3-0.6-1.7 0.6-2.1 0.2-1.4 0.6-1.3 1.3v-7.6l-0.2-0.4v-3.4l0.2-3.1v-0.4l-0.2-0.2h0.2 1.3z"/>
				<path id="polygon74" class="s1" d="m236.1 54.1l-0.8-0.4-0.8 1-1.1-0.2-0.4 0.7-0.9-0.7v1.7l-10.7 0.4v-0.2-0.4l-0.2-7.8-0.8-0.6-1.3-1.7-0.8-2.5-1.1-2.1-0.4-2.1 0.4-1.9-0.4-1.5-1-1-2.6-1.5-1-1.4v-1.9l0.4-1.3v-2.3l1.7-0.2 1.3-0.6h1.2l1.9 0.8 1.5-0.2v1l5.6-0.2-0.4-9h0.4 2.6l1.2 4.8 0.2 0.7 2.8 11.7 0.8 2.5 0.2 0.9 0.9 0.8 0.2 1.1 0.4 1.4v1.5 0.8l0.4 2.1 1 3 0.7 1.4v0.3l0.8 2.3h-0.8z"/>
				<path id="polygon76" class="s1" d="m290.5 184.7h0.4l1.5 4.8 0.8 2.5 1.1 2.3 0.4 1.1 1.7 3.5h-0.7l-1.2 0.3h-2.7v1.8 1.7h-3-3.3l-4.4 0.2-10.8 0.2-0.2-10.9v-0.2l-0.2-3.5v-0.5l-0.2-6.3 8.2-0.2h0.2l5.9-0.2h0.2 2.5 0.6 1.3v-0.2 0.2h0.2 0.4l0.7 1.9z"/>
				<path id="polygon78" class="s1" d="m-64.7 9.8l-0.4 0.2v-1l-7.3 1-3.6 0.9-1.7 0.2-1.2 0.6-2.1-0.4-0.9-0.4v-1.3l0.4-0.8 4-1.3 1.1-0.8v-0.9l-0.2-1 0.8-2.1v-0.9l-1.5-1.9v-0.2l-0.8-0.6h-0.2l-0.2-0.2h-0.2-0.2v-0.2h-0.3-0.2-0.2v-0.2h-0.2-0.2v-0.2h-0.2l-0.2-0.2v-0.3h-0.2v-0.2-0.2h-0.2v-0.2-0.2l-0.2-0.2v-0.2l-0.3-0.2h-0.2l0.2-0.2h-0.2v-0.2l-1-1.1v-1l-0.4-1.5v-1.3l-0.5-1.9 0.3-0.6-0.9-0.4-0.8-0.2-0.4-0.6 0.2-1.5 0.4-0.6-0.6-0.5 0.4-0.8 0.6-1.5-0.2-0.8-0.2-1.1-0.6-0.4 0.4-0.8 1.2-1.9-0.2-0.9 0.2-1 1.3-0.4 0.4-0.2 1.3-1.7 0.8 0.2 2.5-1.9v-0.2h0.2v-0.2l20 0.6-1.7 35.5v0.4 0.2 1.3l-2.7 0.2z"/>
				<path id="polygon80" class="s1" d="m168.5 201.7l-0.8-0.4-0.6-0.7v-1.2l-0.2-0.7-1.3-1.6-1.5-1.5-1-1.7h0.2 4 4.8 0.8 0.5 0.4 0.2 0.4 9.9l0.2 10.7h10.7v10.7h-3.2-2.1-0.8-0.6-1.5-2.3v0.2h-0.2v1.9 3.4h-2.3-1.3-0.4-0.4-0.2-0.2-0.7-0.4-0.4-0.2l-1.5-2.3-0.8-2.1-0.2-0.2-0.2-0.5-1.1-1.4-0.2-0.4v-0.3l-0.8-2.1-0.3-0.8h-0.2l-0.4-1.7-1.9-4.2-1.4-2.5-0.3-0.2z"/>
				<path id="polygon82" class="s1" d="m233.2 116.5h-0.2-1.9-4.8-0.2v-0.3-2.1-0.2-1.6-0.3l0.8-0.2 1-1.2 0.5-3v-0.2-0.2-0.2l-0.5-1.3 0.9-1v-0.2 0.2l0.2-0.2v-0.2h0.2v-0.2h0.2l0.2-0.5 0.4-0.2v-0.2l0.3-0.2 0.2-0.2-0.2-0.2h0.2v-0.2h0.2v-0.2h0.2v-0.2-0.2 0.2 0.2h0.2v0.2h-0.2v0.2 0.2h0.2 0.2 0.2v0.2h0.2-0.2v0.2l1.9 1.3h3.8 1l1.1 1.9 0.8 0.6 0.6-0.4 0.3 1 0.4-0.2 1.4-0.4 0.7-0.4 0.4-1.1 0.2-0.6 0.6-0.2 0.5 0.2 1 0.4 0.8 0.2 0.7 1.7 1 4 0.9 1.3 0.4 1.6 0.8 2.6 0.7 0.8v0.2l-9.1 0.2h-0.4-0.6l-8.2 0.2z"/>
				<path id="polygon84" class="s1" d="m199.6 134.9v2.3l-1.5 0.2-0.6-0.6-1.7-0.4-1.4 0.6-0.3-10.1v-1.8l-0.2-1.1-0.8-0.2-0.4 0.2h-0.9l-0.4-0.6-0.6-0.2h-0.4l-0.5-0.7-0.2-0.6-0.4-0.4-0.6-0.2-0.2 0.2-0.2 0.2h-0.4l-0.5-0.2h-0.2l-0.2-0.2h-0.4l-0.2-0.2-0.4 0.2-0.7-0.4-0.2-0.7-0.4-0.6-0.4-0.6-0.4-0.4-0.2-0.7-0.7-0.6v-0.4l-0.6-0.4 0.2-0.7 0.2-0.2 0.2-0.6 0.4-1.3v-0.8l0.9-1.3 1.2-1 0.9-0.7 0.4-0.8 0.4-0.8 0.4-0.2-0.2-0.7-0.4-0.8-0.8-1.1-1.3-1.2-1-0.9-1.1-1.2-1-1.5-0.9-1.7-0.8-1v-0.2l16.8-0.2h0.6 1.7v1.8 0.7l0.2 3.3v2.6z"/>
				<path id="polygon86" class="s1" d="m129.9 18.4l-0.2-0.2 0.4-0.8 0.2-0.9 0.7-0.6 0.4-0.4v-1.1l-0.2-0.6 0.6-0.6h0.4v-0.2-0.5-0.6l0.2-0.4 0.5-0.2 0.6-0.2 0.6-1.3 0.9-0.8 2.1-1.1h0.8l0.2-0.2h0.2v0.4 0.5l0.6-0.3h0.5 0.4 0.4 0.4 0.4l0.7 0.5 0.4-0.2 0.2-0.3h0.2l0.6 0.3 0.5 0.4h0.4 0.2l0.4 0.2 0.4 0.4 0.2 0.2 0.2 0.2 0.5 0.2 0.2 0.5 0.4 0.2 0.6 0.2h0.2l0.2-0.2h0.5l0.2 0.4v0.4l0.4 0.4h0.2l0.4 0.2 0.2 0.2h0.7l0.2 0.3v0.2l0.4 0.6h0.2l0.4-0.2h0.2l0.2 0.2h0.3l0.4 0.2 0.4-0.2 0.2-0.2 0.2 0.2 0.2 0.2 0.2 21.4h1.7v1.3l-1.2 0.6-0.9 1.5h-0.4l-0.4 0.4-0.4 0.4-0.5 0.4h-0.4-0.8l-0.4 0.2-0.3 0.5v0.2l-0.2 0.4-0.2 0.2h-0.2-0.4l-1.3-0.8-1.4-3.4-3-2.9-1.6-2.3-2.4-1.7-2.5-1.7-1.2-0.2-1.1-0.4-1 0.6-1.3-0.4-1.3-0.7-0.2-1.6-0.8-1.9v-2.3l-0.2-2.1 0.2-0.9h0.2z"/>
				<path id="polygon88" class="s1" d="m119.4 54.3h-0.4l-0.2 0.2-0.4-0.2-1.5-0.8v-0.4l-0.4-0.7-1.1-0.4-1.2-0.4-0.7-0.6-0.4-0.7-0.6-1-0.6-0.4-0.2-0.5-0.3-0.6 0.3-0.2v-0.2l-0.3-1.3-0.4-1-0.6-0.4-0.6-0.5-1.1-2.5-1.2-0.8-0.9-1.3-0.4-0.2-3.8-2.1-1.7-1.2-2.1-0.5-1-0.8-4.4-2.5-0.2-0.2h0.2l-0.2-0.2-1.3-1.1-1.9-1.3v-0.2-0.4l1.3-2.5-0.2-0.6 0.6-0.5 0.6-2.1 1.1-0.2 0.6-1.4 0.2-1.9 0.7-0.2 1-1.1 1.5-0.4 1.2-0.8 0.7-1.1h18.6l-0.2 2.7 5.5-0.2v22.9h0.8v4h1.9v2.7l-1.5 2.1-0.2 3-0.8 1 0.2 0.6h-0.2l-1.7-0.4-0.8 0.4v-0.2z"/>
				<path id="polygon90" class="s1" d="m185.5 30.2v0.2l-1.6 1.7-1.9 0.4-0.7 1.7-1.8 2.7-1.9-0.4-0.2 1.2-2.4 1.1-1.4 0.2-2.3-0.4-0.7 0.2-0.6-0.9-1.3-0.2-1 0.2-0.2-1-0.6-0.4h-0.7l-0.4-0.4-0.4-0.5-0.2-0.4v-0.4l0.2-0.4v-0.4-0.3l0.4-0.2 0.6-0.4h0.5l0.4-0.4v-0.4l-0.2-0.4 0.2-0.5v-0.4l0.2-0.4 0.4-0.4 0.4-0.7 0.4-0.4 0.7-0.2 0.8-0.4 0.6-0.2 0.7-0.9-0.2-1.4 2.3-0.2h0.4l2.5-0.2 11.6-0.3 0.2 1.1-0.4 1-1.3 0.7-0.6 1.9-0.2 0.2z"/>
				<path id="polygon92" class="s1" d="m255.2 90.2l0.9 1.5 0.8 1.5 5 8.1 3.2 5.1h-0.2l-12.6 0.4 0.4 10.7v0.2h-1.2v-0.2l-0.7-0.8-0.8-2.6-0.4-1.6-0.9-1.3-1-4-0.7-1.7-0.8-0.2-1-0.4-0.5-0.2-0.6 0.2-0.2 0.6-0.4 1.1-0.7 0.4-1.4 0.4-0.4 0.2-0.3-1-0.6 0.4-0.8-0.6-1.1-1.9h-1-3.8l-1.9-1.3v-0.2h0.2-0.2v-0.2h-0.2-0.2-0.2v-0.2-0.2h0.2v-0.2h-0.2v-0.2-0.2l0.6-0.7-0.2-1v-1.3-0.8l-0.2-0.7-0.4-0.6 0.2-0.6-0.4-1.3-1.1-1.2-1.7-1.5-2.1-1.9-0.8-1.5-1.7-1.2-0.6-1.7-0.6-1.7-1.1-0.6-0.8-1.1h-1.1-1.5l-0.4-0.4v-0.6l-0.2-0.6-0.6-0.9-0.4-1.4-0.2-0.7-0.7-1.4h-0.8l-0.6-1.5 6.3-1.7 2.9-0.8 2.9-0.9 0.9-1.2 0.2-0.2h0.6l0.2 8.6 14.1-0.7h0.4l-0.4-7.1-0.2-1.7 0.4-0.4 2.3-0.6h0.2l0.2 0.6 3 6.5 1.4 3.2 1.3 2.9 1.5 2.7 0.2 0.9 0.2 0.4 0.4 0.6 0.6 1.3 0.9 1 0.8 1.3 0.4 0.4z"/>
				<path id="polygon94" class="s1" d="m65.3 36.3l-0.5-1.5-0.4-0.4-0.8 0.8h-1.5l-0.4 0.4 0.2-0.8-1.5-0.8-2.3-1.3-1-1.9-1.1-0.2-1.2-2.1 0.2-0.6-1.1-1.1v-3.6l-0.4-0.2-0.2-1.9-1.1-0.8v-1l-1.8-1.1 1.2-2.1h24.8l0.2 1.7 8.8 0.2v10.9l-0.4 0.2h-0.2l-0.4-0.2h-0.5l-0.4 0.4-0.6-0.2-0.6 0.4-1.1 0.7-0.6 0.2-0.6-0.2-1.1-0.9h-0.2l-0.2 0.2-1.7-0.2-0.4-0.4v-0.4l-0.6-0.2-0.7 0.4-0.2 0.2v0.6l0.2 0.5v0.4l-0.4 0.6-0.6 0.2-0.4-0.2-1.1-0.6-1.3 0.4-1 0.2-0.2 2.1 0.2 2.3v0.2h0.6l0.2 0.5 0.2 1-5.2-1z"/>
				<path id="polygon96" class="s1" d="m-16.6 17.2l-4.6-2.1-7.2-2.6-3.9-1.4-3.4-0.7-1.9-0.4 0.2-1v-2.1l0.2-1.3v-0.8-1.7l0.9-30.4 10.7 0.2h7.9l-0.4 17.6 10.3 0.4-1.7 1.3 0.5 1-1.3 0.5-1.5 1.2 0.4 1.3-0.4 1 1.1 0.6 0.4 1.7 0.4 0.2-0.2 3 0.8 0.2 0.5 1-1.1 1.3-0.6-0.2-0.6 1.7-0.9 0.2-1.9-0.2-1.4 0.6-0.9 1.7 0.2 0.8-0.2 4.8-0.2 1.9v0.5 0.2z"/>
				<path id="polygon98" class="s1" d="m10.7 7.5l-19.3-0.6-1.7 1.9-1.3 0.2-0.6-0.7-1.3 0.5-1-0.2-1.5 1.2-0.2-0.8 0.9-1.7 1.4-0.6 1.9 0.2 0.9-0.2 0.6-1.7 0.6 0.2 1.1-1.3-0.5-1-0.8-0.2 0.2-3-0.4-0.2-0.4-1.7-1.1-0.6 0.4-1-0.4-1.3 1.5-1.2 1.3-0.5-0.5-1 1.7-1.3 0.9-1.4 0.2-1.1-0.5-0.4 0.7-2.5 3.5 0.2v0.8h0.9v1.9l6.1 0.2v-1.7l1-1.6 0.2-1.9h6.1v2.7h2.7l-0.4 13.4-2.7-0.2z"/>
				<path id="polygon100" class="s1" d="m192.9 49.5l0.2 1.7 0.2 0.2v0.4l-0.2 3.1v3.4l0.2 0.4v7.6 1.9l-0.8-0.2-0.9 0.8-1-0.2-1.1 0.4-0.4-0.4-0.8 1-0.9-0.6-1.4 0.4-1.1-0.4v-2.3l1.3 0.6-1.9-1.6h-9.7-4.8v0.4h-3.4v-1.9-1.7l-5.2 0.2v-1.7l-0.4-16.1 0.4 0.2 0.8-0.6 0.2-0.9h0.9l1.7-1-0.5-1.3 0.9-0.6v-1.3l1.2-0.6h0.7l0.6-0.9 1-0.2 1.3 0.2 0.6 0.9 0.7-0.2 2.3 0.4h0.4l0.2 0.4h-0.2 0.2v0.2-0.2 0.2 0.2l0.2 0.2-0.2 0.3 0.4 0.6v0.4l0.2-0.2 0.5 0.2 0.8 0.2h0.6l0.2 0.2h1.3l1.9 1.5h0.2l0.4 0.2v0.2h0.2l0.4 0.2 0.5-0.2v-0.2l0.2 0.2 0.2-0.2h0.2l0.2-0.2 0.8 0.4h2.6l0.8 0.4 2.1 0.2 0.4 0.7v1l0.9 1.5 1.2 0.2v1h0.9z"/>
				<path id="polygon102" class="s1" d="m182.8 0.2l-0.2 0.8 0.8 2.1 1.3 1.3-0.4 3.7 0.6 2.1 1.5 1.9 3.5-0.6 0.5 0.6 1.4 0.2 1.1-0.4v5.5 5 0.2l0.2 2.7h-5l-11.6 0.3-2.5 0.2h-0.4l-2.3 0.2-0.2-18.7h0.2l-0.5-8.6h2.4l10.7 0.6z"/>
				<path id="polygon104" class="s1" d="m3.5 30l-1-0.5-0.8-0.4-2.3-1-1.7-1.5-0.2-0.2-0.9-0.8-1.4-1.3-0.9-0.6-0.2-0.2-0.8-0.7-1.3-0.8-1.7-1.1-0.4-0.4-2.3-1.2-0.8-0.5-3.2-1.6v-0.2-0.5l0.2-1.9 0.2-4.8 1.5-1.2 1 0.2 1.3-0.5 0.6 0.7 1.3-0.2 1.7-1.9 19.3 0.6 0.2-8.2 2.7 0.2h2.8v0.2l-0.3 8.4-0.2 0.7-0.2 13-0.2 12.4v4.6l-0.8-0.9-1.1-0.8-1.9-0.6-0.4 0.2-1-0.2-1.1-0.7-1.7-1.4-1.6-1.9-0.5-0.9-0.4-1h-0.6z"/>
				<path id="polygon106" class="s1" d="m193.3 51.2h-0.2l-0.2-1.7-0.6-0.9h-0.9v-1l-1.2-0.2-0.9-1.5v-1l-0.4-0.7-2.1-0.2-0.8-0.4h-2.6l-0.8-0.4-0.2 0.2h-0.2l-0.2 0.2-0.2-0.2v0.2l-0.5 0.2-0.4-0.2h-0.2v-0.2l-0.4-0.2h-0.2l-1.9-1.5h-1.3l-0.2-0.2h-0.6l-0.8-0.2-0.5-0.2-0.2 0.2v-0.4l-0.4-0.6 0.2-0.3-0.2-0.2v-0.2-0.2 0.2-0.2h-0.2 0.2l-0.2-0.4h-0.4l1.4-0.2 2.4-1.1 0.2-1.2 1.9 0.4 1.8-2.7 0.7-1.7 1.9-0.4 1.6-1.7v-0.2h0.3l0.2-0.2 0.6-1.9 1.3-0.7 0.4-1-0.2-1.1h5l0.4 20.6v0.2 0.2 0.5 0.8 0.2z"/>
				<path id="polygon108" class="s1" d="m281.5 163.3h-1.9l-0.2 0.4v0.2 0.2l-0.2 0.2v0.2h-0.2v0.2l-0.3 0.2v0.3h-0.2v0.2h-0.2-0.2-0.2-0.2-0.2-0.4-0.2-0.3-0.2-0.2-0.2-0.2-0.4-0.2-0.2l-16 0.4-0.4-14.7 0.4-1.3-0.4-0.4 0.4-0.4-0.4-15.3-0.6-1.5-0.9-0.8 0.4-1.3-1-1.5 0.4-0.8-0.2-1.3 1.3-0.4-0.7-1v-0.9l-1.2-0.6-1.1-1.1-0.8-0.2 0.4-1.7-0.8-1.2-0.2-1.3-2.1-0.4h1.2v-0.2l-0.4-10.7 12.6-0.4h0.2l0.8 1.4 0.5 0.7v0.2l3.3 4.6 0.2 0.4 1.5 2.1 1.9 2.3 0.4 0.7 0.6 1.4 0.2 1.9 1.5 3.2 0.6 1.2v0.4l-1.8 0.9-0.7 0.6-0.8 1.1-0.2 0.8-0.2 0.4v0.4l-0.2 0.9v0.4l-0.3 1.7v1.5 0.8l0.3 1.9v0.6l0.2 1.1 0.6 3.5 0.2 0.2v0.5l1.3 4.6 1 2.3 0.2 0.4 0.2 0.6 1.5 3.4 0.4 0.8 0.4 0.7 3.2 5.8z"/>
				<path id="polygon110" class="s1" d="m303.5 270.7l-0.2 1.9-0.2 4.2v0.4 0.3h-0.2l-0.6 0.2v-0.2l-0.5 0.2-5.6 0.2-1.9 0.2h-0.9v0.8h-1.6-0.5-0.2-0.2-0.2-0.2-0.2l-4.8 0.2-13.3 0.5v-1.5l-10.7 0.2-0.8-17-0.2-4.6 32.1-0.9h2.7 0.2 0.2 0.3 0.2 0.2 0.2l1.2 0.2h2.8 2.1 0.8v0.3l0.4-0.3 0.2 0.5 0.5-0.2h0.4l-0.2 0.2v3.3l-0.2 0.4v0.5h-0.2v1l-0.7 5.3v1 1.1 1h-0.2v0.2 0.2z"/>
				<path id="polygon112" class="s1" d="m16.1 8.1l0.3-8.4v-0.2l11.1 0.2 0.4-2.5 12.4 0.2-1.7 2.1-1.5 3-0.4 3.1-1.7 5.7-1.6 5.7-1.3 3.1-1.9 1.7v0.4l-14.3-0.4h-0.2l0.2-13z"/>
				<path id="polygon114" class="s1" d="m193.5 222.9v-0.9l0.2-0.2h0.2v-0.2h0.9 0.2l0.2-0.2v-0.4l-0.2-0.6-0.6-0.5h-0.7-0.2-0.2-0.4-0.2-0.4l-0.3 0.2-0.4 0.5-0.6 1.2h-1.3l-0.4 0.2-0.4 0.5 0.2 1.2 0.8 2.7 0.7 3.8-0.2 0.4-1.3 0.3-0.2 0.4h-1.7-0.6l-0.6-0.7-1.7-0.4h-0.2-0.2l-1.1-2.3-0.6-0.8-3-4-1.2-2.3h0.2 0.4 0.4 0.7 0.2 0.2 0.4 0.4 1.3 2.3v-3.4-1.9h0.2v-0.2h2.3 1.5 0.6 0.8 2.1 3.2 0.2 0.4 0.4 0.5 0.2 0.6 0.4 0.4 0.3l0.2-0.2h0.4l23.1-0.4 0.2 16.2-27.3 0.4v-0.2-0.9l0.4-0.8-0.2-1.3v-1-1.3-1l-0.4-0.2-1.5-0.5v-0.4-0.6z"/>
				<path id="polygon116" class="s1" d="m161.8 113.5l-0.2-0.4 0.2-0.4-0.2-0.7-0.4-0.4 0.6-0.6 0.4-1.3v-1-0.4l-0.2-0.5-0.2-0.4v-1.7l0.7-0.6-0.3-1 0.3-1.1-0.3-0.8-0.6-0.7h-1l-0.9-0.2-0.6-1.6-0.4-0.3-0.9-1-0.6-1.3-0.2-1.2h-1.1l0.3-0.2 2.3-2.1 1.2-0.2 4 1.4 0.6-0.2 0.3-1 1 0.2 2.3-1.1h1.3l0.2 0.5 1.2-0.9h0.2v-0.2h0.3v0.2h0.2v-0.2 0.2 0.2h0.2 0.2v0.2l0.2-0.2h0.2l1.1 1.1v0.2l0.2-0.2 0.2 0.2v0.2h0.2l0.4 0.6 1.1-0.4 0.2 0.6 1.6 0.4 0.3 0.5 2.5 1.2 0.2 0.9v0.2l0.8 1 0.9 1.7 1 1.5 1.1 1.2 1 0.9 1.3 1.2 0.8 1.1 0.4 0.8 0.2 0.7-0.4 0.2-0.4 0.8-0.4 0.8-0.9 0.7-1.2 1-0.9 1.3v0.8l-0.4 1.3-0.2 0.6h-0.2l-8.2 0.2v-1.9l-12.2 0.2v-0.2z"/>
				<path id="polygon118" class="s1" d="m193.5 47.6v-0.8-0.5-0.2-0.2l-0.4-20.6-0.2-2.7 12-0.2 1.2-0.2 4.8-0.2h0.3v0.2h0.2v-0.2h0.6 0.6l-0.6 1.2v1.7l0.6 1.5v2.3l-0.4 1.3v1.9l1 1.4 2.6 1.5 1 1 0.4 1.5-0.4 1.9 0.4 2.1 1.1 2.1-11.6 0.4-1.2 0.7-2.1 1.6h-1.7l-1.5 0.9-1 2.3-1.9 0.2-1.5 0.4-1.2 1.3h-1.3l0.2-3.4z"/>
				<path id="polygon120" class="s1" d="m235.3 288.6l-0.6-0.2-1.3-0.9-0.4-0.8-1.3-0.6-0.4-0.2-0.2 0.2h-0.8l-0.9-0.2-0.8-0.9v-0.4h-0.9l-0.8 0.4h-0.4l-0.2-0.2 0.2-0.6-0.2-0.2h-0.9-0.6l-2.1 0.6-0.2 0.2-1.7-0.4-0.6-0.2h-0.9-0.2l-0.6 0.4-0.4 0.4-0.4 1.7-0.5 0.8-0.4-0.2-0.2-0.2-1.3-2.7-0.4-0.4-0.4-0.2v-0.3l-0.2-0.4v-0.8l-0.2-0.2v-0.2l-0.2-0.2-0.2-0.3-0.2-0.2-0.3-0.6v-0.2-1.9l-0.2-0.4h-0.2l-0.4-0.4-2.3-4.9-0.2-3.3-0.2-0.4v-0.2l-0.2-1.3v-0.2l-0.2-0.9v-0.8-0.2l-0.2-0.8v-1.1l-0.7-2.7v-0.2-0.2l-0.2-0.3-0.4-1.6-0.2-0.5v-0.2h1.5v0.9h1.6 1.9 0.4l3.2-0.2h1.7l-0.2-6.3 5.4-0.2-0.2-5.9 0.8 0.4 4.2-0.2 3-0.2 8-0.2 0.2 5.8 0.2 10.3 21.4-0.8 0.8 17 0.2 10.7-6.9 0.2-5.4 1.1-0.3-0.9-13.4 0.2-0.2-0.8z"/>
				<path id="polygon122" class="s1" d="m170.8-1.3l0.5 8.6h-0.2l0.2 18.7 0.2 1.4-0.7 0.9-0.6 0.2-0.8 0.4-0.7 0.2-0.4 0.4-0.4 0.7-0.4 0.4-0.2 0.4v0.4l-0.2 0.5 0.2 0.4v0.4l-0.4 0.4h-0.5l-0.6 0.4-0.4 0.2v0.3 0.4l-0.2 0.4v0.4l0.2 0.4 0.4 0.5 0.4 0.4h0.7l0.6 0.4 0.2 1-0.6 0.9h-0.7l-1.2 0.6v1.3l-0.9 0.6 0.5 1.3-1.7 1h-0.9l-0.2 0.9-0.8 0.6-0.4-0.2-0.4-0.2h-0.9l-0.8-0.5-0.4-0.2-0.3-0.4-0.6-0.2-0.6-0.4-0.6-0.6-0.3-0.7-0.2-0.4-0.2-0.6h-0.2l-0.2-0.2-0.2-0.5v-0.6l-0.2-0.6-0.6-0.2h-0.7-0.2l0.9-1.5 1.2-0.6v-1.3h-1.7l-0.2-21.4 0.2 0.6 0.5 0.2h0.6l0.2-0.2h0.4v0.5h0.9l0.4-0.7 0.6 0.2 0.6-0.2 1.1-0.2 0.4-0.6v-0.6l0.6-0.7 0.2-0.8 0.5-0.6 0.6-0.7-0.2-1-0.2-0.7-0.2-0.8-0.7-0.2v-0.2-0.4l-0.2-0.2-0.2-0.5-0.2-0.4-0.6-0.2-0.4-0.2 0.2-0.4-0.2-0.2-0.5-0.5v-0.6l-0.4-0.4-0.2-0.4-0.2-0.2-0.2-0.2 0.4-0.3 0.2-0.2v-0.4l-0.2-0.2v-0.4l-0.2-0.2v-0.2-0.5l0.4-0.2 0.2-0.2 0.4-0.6v-0.4l0.5-0.4 0.4-0.3 5.4 0.5z"/>
				<path id="polygon124" class="s1" d="m198.8 215.1l-0.2 0.2h-0.3-0.4-0.4-0.6-0.2-0.5-0.4-0.4-0.2v-10.7-8h10.7v-0.2l16-0.4v0.2l0.4 18.3v0.2l-23.1 0.4z"/>
				<path id="polygon126" class="s1" d="m123.2 54.9h0.2l-0.2-0.6 0.8-1 0.2-3 1.5-2.1v-2.7l19.1-0.4 2.1 0.2-0.8 0.8 0.8 0.9-0.8 0.6-0.7 1.9 0.7 0.6-1.1 1.7 1.1 0.8h-0.9l-0.2 2.1 0.2 0.5-0.2 1.4-0.8 0.9v0.8l1 1.5 0.9-0.2v0.2l-1.1 1.9-0.8 1.6-0.4 1.5-0.2 1.9-1.5 1.9-0.6 2.1-0.9 1.7-1.4 2.3-3 1.4-2.3 1.9-0.4-1.4-0.2-0.9 0.2-0.2v-0.8l-0.9-1.3-0.4-0.6-0.2-1.3-0.8-1.4-1.3-0.9-1.2-0.2-0.5 0.2-1-0.2-0.9-1.5v-0.4l-0.2-0.4-0.6-0.2-0.4 0.2-1.1-0.8-0.2-0.7h-0.8l-0.4-0.2-0.2-0.6-0.9-0.2-0.2-0.4 0.2-0.7-0.4-2.7v-1l0.4-1.1-0.2-1.7-0.6-1.7 0.8-0.4z"/>
				<path id="polygon128" class="s1" d="m227.5 13v0.6l0.2 1.3 0.5 1.8 0.2 0.7v0.6h-2.6-0.4l0.4 9-5.6 0.2v-1l-1.5 0.2-1.9-0.8h-1.2l-1.3 0.6-1.7 0.2-0.6-1.5v-1.7l0.6-1.2h-0.6-0.6v0.2h-0.2v-0.2h-0.3l-4.8 0.2-1.2 0.2-12 0.2v-0.2-5l11.3-12.2 1.3-1.1 0.8-1.2 0.7 0.2 0.8-1.1v-0.8h1.3l0.2-1.7 0.6-0.6 1 0.4 0.5-0.4 1.4 0.4v0.6l1.1-1.4 1.2-0.7h0.9l0.4 1.1-0.4 0.8 1.2-0.6-0.2 0.8 0.7 0.9 1.2-0.4 0.6 1.2 0.7-0.2 0.4-0.8-0.2-1.1 0.6-0.6 0.6 0.2 1.3 1.9 1.9 1.3-0.2 0.4 0.4 0.4h0.6l0.9 0.8 0.4 3.8 0.4 1.3v0.2l0.2 3.6z"/>
				<path id="polygon130" class="s1" d="m-80.4 12.5l-3.4 0.3-0.6-0.3-0.8-0.2-1.3 0.2-1.7 0.3-3.6 1-5.2 0.8v-0.2l3.6-1v-0.6l-1.7 0.4-1.3-0.4 0.5-1.1 2.1-0.4 0.4-0.6 0.2-1.5 1.2-2.3h1.1l2.1-1.3-0.2-1-2.3-0.7-1.1-1.4 0.4-0.5-0.8-1.4v-0.9l0.6-1.4 1.1-0.7 1-2.7 0.2-2.3-0.6-1.9-2.3-1.7-1.3-0.2v-0.6l-1.2-0.4-1.7-1.5-0.8-2.5-1.3-1.5-1.3-0.8-1.2-1.7-0.4-1.1 2.5-5.8-0.4-2.1h5.8 0.3l0.2 0.2 11.1 0.2h0.2 0.2 0.2l0.9 0.2 3.9-0.2v0.2h-0.2v0.2l-2.5 1.9-0.8-0.2-1.3 1.7-0.4 0.2-1.3 0.4-0.2 1 0.2 0.9-1.2 1.9-0.4 0.8 0.6 0.4 0.2 1.1 0.2 0.8-0.6 1.5-0.4 0.8 0.6 0.5-0.4 0.6-0.2 1.5 0.4 0.6 0.8 0.2 0.9 0.4-0.3 0.6 0.5 1.9v1.3l0.4 1.5v1l1 1.1v0.2h0.2l-0.2 0.2h0.2l0.3 0.2v0.2l0.2 0.2v0.2 0.2h0.2v0.2 0.2h0.2v0.3l0.2 0.2h0.2v0.2h0.2 0.2v0.2h0.2 0.2 0.3v0.2h0.2 0.2l0.2 0.2h0.2l0.8 0.6v0.2l1.5 1.9v0.9l-0.8 2.1 0.2 1v0.9l-1.1 0.8-4 1.3-0.4 0.8v1.3l0.9 0.4 2.1 0.4 1.2-0.6 1.7-0.2 3.6-0.9 7.3-1v1l-12.6 2.3z"/>
				<path id="polygon132" class="s1" d="m232.1 54.5l0.9 0.7 0.4-0.7 1.1 0.2 0.8-1 0.8 0.4 1.1-0.8h0.8v0.2l2.7 6.9 0.9 1.9 0.2 0.4 1.3 2.5 1.2 3h-0.2l-2.3 0.6-0.4 0.4 0.2 1.7 0.4 7.1h-0.4l-14.1 0.7-0.2-8.6h-0.6l-0.2 0.2-1.1 0.4-1-0.4-0.7-1.7-0.2-1.7-1.6-2.5-0.5-7.8 10.7-0.4z"/>
				<path id="polygon134" class="s1" d="m61.7 35.6l0.4-0.4h1.5l0.8-0.8 0.4 0.4 0.5 1.5 0.8-0.2 5.2 1v0.8l0.3 0.3 0.2 1-0.2 0.6-0.5 0.9-0.2 0.2-1.6 0.2-1.3-0.4-1.1-0.2-0.6-0.2-0.4-0.5-0.4-0.8-1.1 0.2-1.2 0.6-1.1-0.2-1.2 0.4-2.1 1.3-1.5 0.8-0.4 0.5-1.9 1.2-0.4 0.7v0.2l-0.9 0.2h-0.6-0.4l-2.1 1.4-1.5 1.1h-0.2l-3.4 1.9h-0.6l-1.7 0.8-0.8 0.6-0.2 0.7h-0.2l-0.7-0.9 0.7-1.2 0.8-1.1-1-0.6-0.5-0.2-0.6 0.2-0.4 0.6-0.9 1.5-0.4 0.2-1 0.2-0.2 0.9-0.5 0.4-0.8 0.4h-0.2l-2.1 0.2-1.9-0.4h-1.7-1l-1.7 0.4-1.3 0.6-2.1 0.2 0.7-1 5.2-3.8 1.5 0.4 0.8-1 1.3 0.4 0.2-0.8 0.8-0.9v-1l-0.6-0.4 0.4-1.3 0.7-0.2 0.2-1.1-0.2-1.8-0.3-1.1 0.3-1.5-0.7-1.6 0.7-1.7 0.6-0.7-0.2-0.2 24.5 0.5 1.5 0.8z"/>
				<path id="polygon136" class="s2" d="m51.2 49.9l1-1.3 0.3 0.3v0.2l-1.1 1.2-2.7 2.5-0.7 0.5-1.2 0.6-2.9 1-1.7 0.7-3.8 2.5-4.2 1.3-0.8 0.2-0.3-0.2-0.8-0.9-1.3-1-0.2-0.2 0.2-0.3 1.5 1.1 1.5 0.6 0.8 0.2 0.4-0.4 1.5-0.4 1.1-0.4 1.9-1.1 0.4-0.6 0.2-0.2 1.5-0.4 1.6-0.9 2.8-1 0.6-0.7 1.2-0.4 2.6-1.9z"/>
				<path id="polygon138" class="s2" d="m28.9 53.5l1.1-0.2 1 0.2 0.7 0.4 0.2 0.6-0.6 1.3-0.5 0.8-1.4 0.4-0.9-0.4-1-1-1.3-0.9-1-0.4-0.9-0.4v-0.2h0.7 1.2 0.9l0.6 0.2 1-0.4z"/>
				<path id="polygon140" class="s1" d="m74.5-7.2v0.2l-0.8 0.4v0.7 1.2l-0.7 0.9-0.4 0.6-0.4 0.6-0.2 0.7-0.7 0.2-0.8 0.6-0.8 0.6-0.4 1.3-0.5 1.7-0.2 0.6-0.4 0.6 0.2 0.9h0.2v0.2h-0.2l0.2 0.2h-0.2v0.2h-0.2v0.2 0.2h-0.2l-0.2 0.2h-0.2v0.2h-0.2v0.2h-0.2l-1.3 0.3h-1.5-1l-0.9 0.6-1 0.6h-0.9l-1.2 0.6-1.3 1.1-0.6-0.2-1.1 0.4-1.2 0.8v0.5h-1.7v-1.9h-1.9v-2.5h-3.3l-0.3-3.6h-1.6v-1.1h-3.6v-4.4h-2.5l1.2-0.8 0.3-1.3 0.8-1.4 0.6-0.5 1.1-1.6-0.4-0.9 25.6 1.5z"/>
				<path id="polygon142" class="s1" d="m154.1 38.6l0.6 0.2 0.2 0.6v0.6l0.2 0.5 0.2 0.2h0.2l0.2 0.6 0.2 0.4 0.3 0.7 0.6 0.6 0.6 0.4 0.6 0.2 0.3 0.4 0.4 0.2 0.8 0.5h0.9l0.4 0.2 0.4 16.1-5.5 0.2v-1l-0.8-0.4h-4.4v-0.4l-4.4 0.2-0.9 0.2-1-1.5v-0.8l0.8-0.9 0.2-1.4-0.2-0.5 0.2-2.1h0.9l-1.1-0.8 1.1-1.7-0.7-0.6 0.7-1.9 0.8-0.6-0.8-0.9 0.8-0.8 1.5-0.2 0.2-1.1 0.6-1.4-0.2-1.3h0.2l0.2-0.2 0.2-0.4v-0.2l0.3-0.5 0.4-0.2h0.8 0.4l0.5-0.4 0.4-0.4 0.4-0.4h0.4 0.2z"/>
				<path id="polygon144" class="s1" d="m229.4 230.9h-1-0.5-5.4l-0.2-16.2h11.9l0.7-0.4v0.4l3.5-0.2-0.2-5.3 5.5-0.2v-5.4l12.2-0.2v0.2h0.2l0.2 0.4 0.2 0.2 0.2-0.2h0.2l0.2 0.4h0.2 0.2l0.3 0.2v0.2l0.2 0.2-0.2 0.2 0.2 0.3 0.2 0.2h0.2l0.2 0.2 0.2 0.2 0.4-0.2 0.2 0.4 0.5 0.6v0.9l-0.3 5.4-0.2 5.5-2.9 11.5h-1.3-0.2-0.4l-25 0.7z"/>
				<path id="polygon146" class="s1" d="m20.1 46.1v-0.2l-0.2-0.2-0.4-0.2v-0.4-0.4-0.2l-0.2-0.5-0.4-0.4h-0.4l-0.3-0.2-0.4-1.5-0.8-1.6-1.3-1.3-0.2-0.2v-4.6l0.2-12.4h0.2l14.3 0.4-0.4 0.4-0.6 2.3-0.5 1.3v1.5l0.5 1.4v2.1l1.2 1.5 1.7 1 1.9 1.3 0.8 1.1 0.7 1.6-0.3 1.5 0.3 1.1 0.2 1.8-0.2 1.1-0.7 0.2-0.4 1.3 0.6 0.4v1l-0.8 0.9-0.2 0.8-1.3-0.4-0.8 1-1.5-0.4-5.2 3.8-0.7 1h-0.6l-1.7 0.9-1.6-0.2-1.5 0.2-1.3 0.4-0.2 0.4v0.7l-0.4-0.3-0.8-1.2-0.5-1.1-1-2.7-0.9-3.6v-1.6-0.9l0.3-0.6 0.4-0.8 0.6-0.5-0.2 0.9-0.4 1.7-0.2 1.6 0.6 2.5 0.8 3.2 0.9 1 0.4 0.7h0.6l1.3-0.4 0.4-0.5 0.6-5.2v-0.9z"/>
				<path id="polygon148" class="s1" d="m158.9-2.2l-0.4 0.3-0.5 0.4v0.4l-0.4 0.6-0.2 0.2-0.4 0.2v0.5 0.2l0.2 0.2v0.4l0.2 0.2v0.4l-0.2 0.2-0.4 0.3 0.2 0.2 0.2 0.2 0.2 0.4 0.4 0.4v0.6l0.5 0.5 0.2 0.2-0.2 0.4 0.4 0.2 0.6 0.2 0.2 0.4 0.2 0.5 0.2 0.2v0.4 0.2l0.7 0.2 0.2 0.8 0.2 0.7 0.2 1-0.6 0.7-0.5 0.6-0.2 0.8-0.6 0.7v0.6l-0.4 0.6-1.1 0.2-0.6 0.2-0.6-0.2-0.4 0.7h-0.9v-0.5h-0.4l-0.2 0.2h-0.6l-0.5-0.2-0.2-0.6-0.2-0.2-0.2-0.2-0.2 0.2-0.4 0.2-0.4-0.2h-0.3l-0.2-0.2h-0.2l-0.4 0.2h-0.2l-0.4-0.6v-0.2l-0.2-0.3h-0.7l-0.2-0.2-0.4-0.2h-0.2l-0.4-0.4v-0.4l-0.2-0.4h-0.5l-0.2 0.2h-0.2l-0.6-0.2-0.4-0.2-0.2-0.5-0.5-0.2-0.2-0.2-0.2-0.2-0.4-0.4-0.4-0.2h-0.2-0.4l-0.5-0.4-0.6-0.3h-0.2l-0.2 0.3-0.4 0.2-0.7-0.5h-0.4-0.4-0.4-0.4-0.5l-0.6 0.3v-0.5-0.4h-0.2l-0.2 0.2h-0.8l-2.1 1.1-0.9 0.8-0.6 1.3-3-5.1-1.8-7.1-2.8-2.9 3 0.2 6.3 0.2z"/>
				<path id="polygon150" class="s1" d="m221.6 179.4l0.3 16.6-16 0.4v0.2h-10.7l-0.2-18.9 12.4-0.2 14.2-0.2z"/>
				<path id="polygon152" class="s1" d="m227.9 230.9h0.5 1 0.2l25-0.7h0.4 0.2 1.3l2.9-11.5 0.2 14 1.1 23.3h-0.2v0.7l0.2 4.6-21.4 0.8-0.2-10.3-0.2-5.8-8 0.2-3 0.2-4.2 0.2-0.8-0.4-0.2-4.8v-1.1l-0.2-9.4z"/>
				<path id="polygon154" class="s1" d="m174.4 115.8l8.2-0.2h0.2l-0.2 0.2-0.2 0.7 0.6 0.4v0.4l0.7 0.6 0.2 0.7 0.4 0.4 0.4 0.6 0.4 0.6 0.2 0.7 0.7 0.4 0.4-0.2 0.2 0.2h0.4l0.2 0.2h0.2l0.5 0.2h0.4l0.2-0.2 0.2-0.2 0.6 0.2 0.4 0.4 0.2 0.6 0.5 0.7h0.4l0.6 0.2 0.4 0.6h0.9l0.4-0.2 0.8 0.2 0.2 1.1v1.8l-10.4 0.3h-0.3v2.5l-13.6 0.4h-1.1-2.7-1.2-0.2-1.9-2.1l0.2-0.4-0.2-1.1 0.4-0.4 0.2-1.3 0.2-0.2-0.2-0.6-0.2-0.2v-1.1l0.2-0.6h0.2l0.2-0.8-0.2-0.4v-0.3l0.2-0.8 0.2-1.5-0.6-0.8 0.4-1v-0.9l0.2-1.9 0.4-1.7 12.2-0.2z"/>
				<path id="polygon156" class="s1" d="m244.5 177.1v2.7l-0.6 0.5-1.3 2.1h-0.6l-1.3 1.9 0.9 1-0.4 1.3 1.2 0.4 0.7 1 1.4 1.1 0.4 0.8-0.2 1.3 1.1 0.6v0.4l1.5 1.1 0.8-0.6 2.7 1.6-0.6 1.3 0.8 0.8 0.2 1.5 1.7 0.2-0.2 1.7 0.4 1 0.7 0.2v1.1l0.6 0.8 1-0.4 0.5 0.9-12.2 0.2v5.4l-5.5 0.2 0.2 5.3-3.5 0.2v-0.4l-0.7 0.4h-11.9v-0.2l-0.4-18.3v-0.2l-0.3-16.6v-2.1h3.4z"/>
				<path id="polygon158" class="s1" d="m175.7 163.3l-0.2-0.5-0.2-0.2v-0.2h-0.7-0.4l-1-0.2-0.5-0.4v-0.2l-0.2-0.2-0.8-0.4-0.6 0.4v0.4 0.4 0.2l0.2 0.4v1.5 0.4 0.2l0.4 0.5 0.4 0.4 0.2 0.2v0.2l-0.2 0.6v0.5l-0.2 0.2-0.8-0.2h-0.5l-0.6-0.3-0.4-0.2-0.4-0.2v-0.2h-0.2l-0.3-0.2-1-0.4v-0.2-0.7l0.8-0.2v-0.2l0.2-0.2 0.3-0.4-0.5-0.4-0.2-0.2v-0.2l0.2-0.3 0.2-0.2 0.3-0.2-0.3-0.8v-0.9-0.2l-0.2-0.4-0.2-0.4v-0.2l-0.2-0.2-0.4-0.9h-0.2l-1.9-0.2-1.5 0.2-1.6 0.2v-3.1-1.1-0.4-0.8l-0.3-7.2h0.5 2.7 1.9l2.3-0.2 1.7 0.2h0.2 0.2 2.5 1.5 0.6l1.5-0.2h2.1 0.2 7.8 0.2 3.5l2.8-0.2v0.9 3.5 1.3l0.2 2.7v5.1 0.2 1.2 0.2l0.2 4.7 0.2 12.3-16.6 0.3-9 0.2h-0.9-0.6-0.2l1-1.7 1.3-2.1 1.1-0.6 0.6-0.3 0.2-0.2v-0.4-0.2l-0.2-0.4 0.2-0.2 1-0.4 1.3-0.9 0.2-0.2-0.2-0.4 0.2-0.2v-0.2l0.6-0.7v-0.6l0.5-0.4 0.4-0.2 0.4-1.5-0.2-0.8-0.2-1.9v-0.2h-0.2z"/>
				<path id="polygon160" class="s1" d="m4-13.1v1.7l-6.1-0.2v-1.9h-0.9v-0.8l-3.5-0.2-0.7 2.5 0.5 0.4-0.2 1.1-0.9 1.4-10.3-0.4 0.4-17.6 28.4 0.4-1.9 1.9v1.7l-0.8 0.4-1.5 1.9-1.3 3.3v0.9l-0.2 1.9z"/>
				<path id="polygon162" class="s1" d="m288.6 181.3v-0.2 0.2h-1.3-0.6-2.5-0.2l-5.9 0.2h-0.2l-8.2 0.2h-5.2l-0.2-5-4.7 0.2h-0.6v-5.7h-0.4l-0.2-5.4h0.6l16-0.4h0.2 0.2 0.4 0.2 0.2 0.2 0.2 0.3 0.2 0.4 0.2 0.2 0.2 0.2 0.2v-0.2h0.2v-0.3l0.3-0.2v-0.2h0.2v-0.2l0.2-0.2v-0.2-0.2l0.2-0.4h1.9l0.4-0.5v0.3l2.9 5.6 0.7 1.5 0.2 0.2 1.2 4.4 0.4 1.3v0.2l0.3 0.6 0.2 0.8 0.6 0.7 0.2 0.4 0.2 0.4 0.2 1.3 0.2 0.6v0.2h-0.4z"/>
				<path id="polygon164" class="s1" d="m14-13.9h-2.7v-2.7h-6.1v-0.9l1.3-3.3 1.5-1.9 0.8-0.4v-1.7l1.9-1.9h0.4 25.6l-0.2 1.5 1.5 0.8-0.2 1.7 2.1 2.9 0.4 0.2-0.2 0.7 0.6 1.8-0.6 0.7v0.8l1 2.5 0.2 1.5 0.9 0.2 1.7 2.3 0.4 0.9-1.1 1.6-0.6 0.5-0.8 1.4-0.3 1.3-1.2 0.8-12.4-0.2-0.4 2.5-11.1-0.2h-2.8z"/>
				<path id="polygon166" class="s1" d="m94.7 19.5l-0.7 0.2-0.2 1.9-0.6 1.4-1.1 0.2-0.6 2.1-0.6 0.5 0.2 0.6-1.3 2.5v0.4l-0.4-0.6-1.3-0.4h-1.2l-0.9 0.2-0.6 0.4v-10.9-5.9l0.2-2.7v-1.3l1.7-1.6v-1.3-2.3h3.4l-0.5-1.7 0.5-0.2-1.1-1.3-0.4-2.3v-3.7l13.8 0.8 7 0.4 0.4 0.8v3.4h-0.8v0.8h-0.9v1.1h-1.9v0.8h-1.7v0.9h-1l-0.6 1 0.2 0.9 0.6 3.5-1.7 1.7-0.2 1.3-2.3 0.4-0.4 0.8 1 2.6-1.6 1.2-0.7 1.1-1.2 0.8-1.5 0.4z"/>
				<path id="polygon168" class="s1" d="m125.7 45.5h-1.9v-4h-0.8v-22.9h6.3 0.2l-0.2 0.9 0.2 2.1v2.3l0.8 1.9 0.2 1.6 1.3 0.7 1.3 0.4 1-0.6 1.1 0.4 1.2 0.2 2.5 1.7 2.4 1.7 1.6 2.3 3 2.9 1.4 3.4 1.3 0.8h0.4l0.2 1.3-0.6 1.4-0.2 1.1-1.5 0.2-2.1-0.2z"/>
				<path id="polygon170" class="s1" d="m220.6 107.6l-0.2 0.2h-1.7-1.7-0.6-0.2l-0.2 1.1-0.9 0.2 0.2 1.3v3.7l0.3 5.5 0.4 0.4-0.4 1.9v0.2 0.2 0.2 0.5l0.2 11.7h-0.9-1.9-4.4v-0.8h-1.6-2.1v1h-5.3l-0.2-28.9v-2.6l-0.2-3.3v-0.7-1.8l1-0.3h0.2 4.9l9.6-0.2v-5.2h1.1v-1.1l-0.2-4.2-0.2-8.8 0.2 0.7 0.4 1.4 0.6 0.9 0.2 0.6v0.6l0.4 0.4h1.5 1.1l0.8 1.1 1.1 0.6 0.6 1.7 0.6 1.7 1.7 1.2 0.8 1.5 2.1 1.9 1.7 1.5 1.1 1.2 0.4 1.3-0.2 0.6 0.4 0.6 0.2 0.7v0.8 1.3l0.2 1-0.6 0.7v0.2 0.2h-0.2v0.2h-0.2v0.2h-0.2l0.2 0.2-0.2 0.2-0.3 0.2v0.2l-0.4 0.2-0.2 0.5h-0.2v0.2h-0.2v0.2l-0.2 0.2v-0.2 0.2l-0.9 1 0.5 1.3v0.2 0.2 0.2h-6.1-0.2z"/>
			</g>
		</g>
		<g id="Clip-Path: g178" clip-path="url(#cp3)">
			<g id="g178">
				<g id="g176">
					<path id="path174" fill-rule="evenodd" class="s3" d="m56.7 30c0 7.7-10 16.3-10 16.3 0 0-10-8.8-10-16.3 0-5.5 4.5-10 10-10 5.5 0 10 4.5 10 10zm-5.4-0.5c0-2.5-2.1-4.6-4.6-4.6-2.5 0-4.6 2.1-4.6 4.6 0 2.5 2.1 4.6 4.6 4.6 2.6 0 4.6-2.1 4.6-4.6z"/>
				</g>
			</g>
		</g>
	</g>
	<path id="Florida" class="s3" aria-label="Florida"  d="m48.3 82.3c-6.4 0.1-8.1 0.1-9.9 0.1-2 0-4.4 0-6.4-0.1 0.2 1.6 0.4 2.5 0.4 7.8 0 4.2-0.2 6.4-0.4 7.9 0.8 0 1.7-0.1 2.5-0.1 0.8 0 1.7 0.1 2.5 0.1-0.1-1.4-0.3-2.9-0.3-6.6h5.4c1 0 3.3 0.1 4.2 0.3-0.1-0.5-0.1-0.8-0.1-1.2 0-0.4 0-0.8 0.1-1.2-0.9 0.2-3.2 0.2-4.2 0.2h-5.4c0-2.5 0-4.3 0.1-5.3h9.2c1.3 0 2.4 0.2 2.9 1l0.3-0.1-0.6-2.4c0-0.3-0.1-0.4-0.3-0.4zm15.1 15.7c0.4 0 0.5-0.1 0.6-0.3l1.6-3.1-0.3-0.1c-1.5 1.6-2.2 1.7-3.7 1.7h-6.2c-0.1-1.2-0.2-2.8-0.2-5.1 0-4.6 0.2-5.4 0.4-6.8-0.8 0.1-1.6 0.1-2.3 0.1-0.8 0-1.6 0-2.3-0.1 0.1 1.4 0.3 2.2 0.3 6.8 0 3.7-0.2 5.5-0.3 6.9 1.2 0 2.6-0.1 3.8-0.1 1.1 0 2.3 0.1 8.6 0.1zm2.7-6.6c0 4.5 5 7 10.4 7 6.8 0 11-3.3 11-7.5 0-4.5-4.9-7-10.4-7-6.7 0-11 3.2-11 7.5zm10.7-6c3.6 0 6 2.2 6 5.8 0 3.8-2.7 5.7-6 5.7-3.6 0-5.9-2.2-5.9-5.8 0-3.8 2.6-5.7 5.9-5.7zm17.5 12.6c-0.1-1.2-0.2-2.6-0.3-5.1h2.4c3.9 0 1.7 5.5 8.2 5.5 1.9 0 3.1-0.5 3.9-1l-0.2-0.3c-0.5 0.4-1.1 0.5-1.7 0.5-1.8-0.1-2.3-2.1-3.6-3.9-0.2-0.4-0.5-0.8-0.9-1.2 2.7-0.5 3.7-1.7 3.7-3.9 0-3.2-2.1-4.3-8.3-4.3-0.9 0-3.4 0.1-4.4 0.1-1.1 0-2.3 0-3.4-0.1 0.2 1.4 0.4 2.2 0.4 6.8 0 3.7-0.2 5.5-0.4 6.9 0.8 0 1.6-0.1 2.3-0.1 0.8 0 1.6 0.1 2.3 0.1zm3.2-11.9c3.3 0 3.9 1.1 3.9 2.5 0 1.4-0.6 2.4-3.9 2.4h-3.5c0-2.8 0.1-4 0.1-4.9zm16.5 11.9c-0.1-1.4-0.3-3.2-0.3-6.9 0-4.6 0.2-5.4 0.3-6.8-0.7 0.1-1.5 0.1-2.3 0.1-0.7 0-1.5 0-2.3-0.1 0.2 1.4 0.4 2.2 0.4 6.8 0 3.7-0.2 5.5-0.4 6.9 0.8 0 1.6-0.1 2.3-0.1 0.8 0 1.6 0.1 2.3 0.1zm2.8 0c1.1 0 2.9-0.1 4-0.1 1.3 0 2.1 0.1 5 0.1 6.4 0 10-2.7 10-6.9 0-4.1-3.6-6.8-10-6.8-2.8 0-3.6 0.1-5.1 0.1-1.1 0-2.8 0-3.9-0.1 0.1 1.4 0.2 2.2 0.2 6.8 0 3.7-0.2 5.5-0.2 6.9zm9-1.9c-1.5 0-3.3 0-4.8-0.1-0.1-1.3-0.1-2.7-0.1-4.9 0-2.5 0-3.6 0-4.8 1.6-0.1 3.4-0.1 4.9-0.1 3.5 0 5.6 1.6 5.6 4.9 0 3.4-2.1 5-5.6 5zm20.6-11.8c-0.4 0-1.1 0.1-1.8 0.1-0.8 0-1.9-0.1-2.7-0.1v0.3c1 0.1 1.4 0.2 1.7 0.8 0.1 0 0.1 0.1 0.2 0.1-2.4 3.8-6 9.2-8.6 12.5 0.7-0.2 2.7-0.2 3.4 0 0.4-1 1-2.1 1.6-3.3h8.7c0.5 1.1 1.1 2.2 1.5 3.3 2.5-0.2 2.9-0.2 5.4 0-3.3-4.7-4.9-7.8-7.5-12.5-0.5-1-0.9-1.2-1.9-1.2zm1.6 8.5h-6.7c1.1-1.9 2.4-4 3.5-5.6 1.1 2 2.2 3.8 3.2 5.6z"/>
	<path id="rect184" class="s4" d="m1.8 1.8h186.5v186.5h-186.5z"/>
</svg>