<?xml version="1.0" encoding="utf-8"?>
<!-- Generator: Adobe Illustrator 27.1.1, SVG Export Plug-In . SVG Version: 6.00 Build 0)  -->
<svg version="1.1" id="Layer_1" xmlns="http://www.w3.org/2000/svg" xmlns:xlink="http://www.w3.org/1999/xlink" x="0px" y="0px"
	 viewBox="0 0 1920 1080" style="enable-background:new 0 0 1920 1080;" xml:space="preserve">
<style type="text/css">
	.st0{clip-path:url(#SVGID_00000054976282662457330490000005994222208168165556_);fill:none;}
	
		.st1{clip-path:url(#SVGID_00000054976282662457330490000005994222208168165556_);fill:none;stroke:#CACCCD;stroke-width:0.8504;stroke-miterlimit:10;}
	.st2{opacity:0.25;clip-path:url(#SVGID_00000054976282662457330490000005994222208168165556_);fill:#CACCCD;}
	
		.st3{opacity:0.5;clip-path:url(#SVGID_00000054976282662457330490000005994222208168165556_);fill-rule:evenodd;clip-rule:evenodd;fill:#ADCCD0;}
	.st4{clip-path:url(#SVGID_00000054976282662457330490000005994222208168165556_);fill:none;stroke:#E7097E;stroke-miterlimit:10;}
	.st5{clip-path:url(#SVGID_00000054976282662457330490000005994222208168165556_);}
	.st6{fill:#137476;}
	.st7{font-family:'Arboria-Book';}
	.st8{font-size:14.4732px;}
	.st9{font-size:12.8296px;}
	.st10{font-family:'AvianoFlareMedium';}
	.st11{font-size:9.6488px;}
	.st12{font-size:9.6489px;}
	.st13{clip-path:url(#SVGID_00000054976282662457330490000005994222208168165556_);fill:#D1DBD9;}
	.st14{font-size:16.8855px;}
	.st15{fill:#757779;}
	.st16{clip-path:url(#SVGID_00000140011777525666779280000017630884296291534226_);fill:#FFFFFF;}
	.st17{clip-path:url(#SVGID_00000027565212089422466580000010415462999216884613_);fill:#207E80;}
	.st18{fill:#207E80;}
	.st19{clip-path:url(#SVGID_00000118391855080984356160000006388637649032098189_);fill:#207E80;}
	.st20{clip-path:url(#SVGID_00000096042541335671951970000016503170594397764238_);fill:#207E80;}
	.st21{clip-path:url(#SVGID_00000059273601603112873600000016733787437110812088_);fill:#207E80;}
	
		.st22{clip-path:url(#SVGID_00000059273601603112873600000016733787437110812088_);fill:none;stroke:#207E80;stroke-width:0.4383;stroke-miterlimit:10;}
	.st23{opacity:0.25;clip-path:url(#SVGID_00000054976282662457330490000005994222208168165556_);fill:#96C4CE;}
</style>
<g>
	<defs>
		<rect id="SVGID_1_" x="0" y="0" width="1920" height="1080"/>
	</defs>
	<clipPath id="SVGID_00000069384518762642112570000008974251430721059235_">
		<use xlink:href="#SVGID_1_"  style="overflow:visible;"/>
	</clipPath>
	
		<rect x="0" y="107.4" style="clip-path:url(#SVGID_00000069384518762642112570000008974251430721059235_);fill:none;" width="1946.9" height="1005.1"/>
	
		<path style="clip-path:url(#SVGID_00000069384518762642112570000008974251430721059235_);fill:none;stroke:#CACCCD;stroke-width:0.8504;stroke-miterlimit:10;" d="
		M2221.1,732.5l-130.6-3.2V775h65.3c0,0,7.4,4.6,0,7.9h-65.3l-2.1,43.2h69c0,0,11.1,5.7,0,7.5l-69-1.4v45h60.4l20.4,3.6
		c0,0,10.7,5.7-0.7,6.1l-21.1-2.9l-60.4-1.1v45h134.2v7.9l-136-1.8v52.5h136v9.6l-136-2.5v120.8"/>
	
		<path style="clip-path:url(#SVGID_00000069384518762642112570000008974251430721059235_);fill:none;stroke:#CACCCD;stroke-width:0.8504;stroke-miterlimit:10;" d="
		M441.9,699.3l363.8,112.9v-153c0,0-32.5-35.7-44.7-86.8L699.2,527l-27.5-15l-84.7-5.4l-1.8,60.8l38.6-16.4l10.7-0.4
		c0,0,7.9-2.5,7.5,1.4c0,0,2.1,5.4-5.2,3.9l-11.2-0.4l-41.8,19.3c0,0,11.1,45.4-18.6,79.3l-15.4,11.4l-0.7,8.6l-6.4,17.9
		c0,0,12.2,8.6,6.1,10.4c0,0-8.6,1.4-12.5-6.8c0,0,0.7-14.3,8.9-25l-0.4-6.1l-99.3-6.8L441.9,699.3z"/>
	
		<path style="clip-path:url(#SVGID_00000069384518762642112570000008974251430721059235_);fill:none;stroke:#CACCCD;stroke-width:0.8504;stroke-miterlimit:10;" d="
		M446.2,650.7c0,0,31.8,6.8,101.8,7.1l7.9-7.1l-22.2-14.3l-31.1-16.1L450.2,606L446.2,650.7z"/>
	
		<path style="clip-path:url(#SVGID_00000069384518762642112570000008974251430721059235_);fill:none;stroke:#CACCCD;stroke-width:0.8504;stroke-miterlimit:10;" d="
		M559.2,646l-58.1-32.2l-50.6-14.3L487,484.9c0,0,21.8-42.2,40.4-41.8l12.5,0l-1.8,63.6c0,0-0.7,8.6,5.7,5.4l1.4-69h33.9v143.3
		C579.2,586.4,579.5,638.5,559.2,646z"/>
	
		<path style="clip-path:url(#SVGID_00000069384518762642112570000008974251430721059235_);fill:none;stroke:#CACCCD;stroke-width:0.8504;stroke-miterlimit:10;" d="
		M587,443.1v56.1h46.1c0,0,14.7,5.7,42.5,7.5l29.7,15.7l52.2,40.4c0,0-22.5-64.7-64.3-94.7c0,0-29.7-22.9-69.3-25H587z"/>
	
		<path style="clip-path:url(#SVGID_00000069384518762642112570000008974251430721059235_);fill:none;stroke:#CACCCD;stroke-width:0.8504;stroke-miterlimit:10;" d="
		M587,433.1l-1.8-59c0,0,74.3-1.4,108.6,15.7l14.7-3.2c0,0,5.4,19.3,13.2,20.5l-28.2,52.4l-36.8-19.3
		C656.7,440.2,636.7,433.8,587,433.1z"/>
	
		<path style="clip-path:url(#SVGID_00000069384518762642112570000008974251430721059235_);fill:none;stroke:#CACCCD;stroke-width:0.8504;stroke-miterlimit:10;" d="
		M698.5,463.2l29.3-49.8c0,0,59.3,34.3,75.8,96.8l2.1,84.3v53.2c0,0-15.7-17.2-23.2-40l-13.9-37.9
		C768.6,569.9,735,477.3,698.5,463.2z"/>
	
		<polygon style="clip-path:url(#SVGID_00000069384518762642112570000008974251430721059235_);fill:none;stroke:#CACCCD;stroke-width:0.8504;stroke-miterlimit:10;" points="
		810.9,812.2 812.5,792.1 819.8,792.1 858.1,804.7 858.1,827.2 	"/>
	
		<path style="clip-path:url(#SVGID_00000069384518762642112570000008974251430721059235_);fill:none;stroke:#CACCCD;stroke-width:0.8504;stroke-miterlimit:10;" d="
		M863.7,829.4V801L823,785.7h-9.1V664.8l18.5,11.5l24.1,7.2l68.1-0.8l-1.3,58.7c0,0-0.8,8.6,4.6,3.2l2.9-61.6l33.5,2.1V716
		c0,0-0.8,7.8,5.4,2.4v-34.8l59.8,1.1c0,0,11.5,1.6,9.4,18.5c-0.3,1.9-2.4,24.9-2.4,24.9l-18-0.3l-2.1-16.6c0,0-4.3-11.3-15.8-3.5
		l-1.9,5.1l0.5,12.3l9.1,14.2l0.8,18.5l-55.5-0.5l-6.4,6.4l0.3,12.3l7.5,5.9l51.7,1.1l3.8,1.6l2.1-1.6l1.1-7.5l0.8-37.3
		c0,0-0.5-4.8,7.2-4.6l13.7,0.8l-0.5,104.8c0,0,1.9,40.5,15.3,46.9L863.7,829.4z"/>
	
		<polygon style="clip-path:url(#SVGID_00000069384518762642112570000008974251430721059235_);fill:none;stroke:#CACCCD;stroke-width:0.8504;stroke-miterlimit:10;" points="
		1007.6,762.4 1007.6,775.5 957.3,775.5 952.4,772.3 952.4,765 955.1,762.4 	"/>
	
		<path style="clip-path:url(#SVGID_00000069384518762642112570000008974251430721059235_);fill:none;stroke:#CACCCD;stroke-width:0.8504;stroke-miterlimit:10;" d="
		M1010.9,725.8v-13.3c0,0-3.5-3.4-6.7,0v12.1l6,8.8l3.1-2.9L1010.9,725.8z"/>
	
		<path style="clip-path:url(#SVGID_00000069384518762642112570000008974251430721059235_);fill:none;stroke:#CACCCD;stroke-width:0.8504;stroke-miterlimit:10;" d="
		M838.4,636.7v-16.6l3.8-3.4h17.5l11.6,5.7l-25.2,18.9c0,0-3.8,2.9-5.7-0.9L838.4,636.7z"/>
	
		<path style="clip-path:url(#SVGID_00000069384518762642112570000008974251430721059235_);fill:none;stroke:#CACCCD;stroke-width:0.8504;stroke-miterlimit:10;" d="
		M1200.9,829.4l4-104.8l5.1-4.6h58.7l13.4,8.8l-5.6,65.1c0,0-3.5,34-32.4,35.4l-43.2,2.7V829.4z"/>
	
		<path style="clip-path:url(#SVGID_00000069384518762642112570000008974251430721059235_);fill:none;stroke:#CACCCD;stroke-width:0.8504;stroke-miterlimit:10;" d="
		M1414.5,790.8c0,0-17,1.1-22.5,4.6c0,0-24.3,11.6-43.1,3.8l0.9-71.3c0,0,0.2-8.9,12.3-7.9l54.5,1.3c0,0,10.7-2.1,8.9,10l-3.6,52
		C1422,783.3,1422.5,790,1414.5,790.8z"/>
	
		<line style="clip-path:url(#SVGID_00000069384518762642112570000008974251430721059235_);fill:none;stroke:#CACCCD;stroke-width:0.8504;stroke-miterlimit:10;" x1="1361.6" y1="1003" x2="1385.9" y2="966.8"/>
	
		<path style="clip-path:url(#SVGID_00000069384518762642112570000008974251430721059235_);fill:none;stroke:#CACCCD;stroke-width:0.8504;stroke-miterlimit:10;" d="
		M1369.8,1006.4l21.8-36.1c0,0,34.1,23.6,33.8,24.3c-0.4,0.7-18.2,26.3-18.2,26.3l-38.8-14.5"/>
	
		<path style="clip-path:url(#SVGID_00000069384518762642112570000008974251430721059235_);fill:none;stroke:#CACCCD;stroke-width:0.8504;stroke-miterlimit:10;" d="
		M1415.8,1022.3l16.6-23.6l11.8,6.6v5.9l20.4,1.6l8.4-14.1l-2.1-4.6l0.4-3.2l-4.5-2.7l-5.7-12.9c0,0,12.3-8.4,26.1-6.4l-2.5,66.5
		l-25-1.1L1415.8,1022.3z"/>
	
		<polygon style="clip-path:url(#SVGID_00000069384518762642112570000008974251430721059235_);fill:none;stroke:#CACCCD;stroke-width:0.8504;stroke-miterlimit:10;" points="
		1438.1,990.4 1453.1,979.3 1460.6,992.1 1464.7,993.8 1466.1,999.5 1462.2,1005.9 1452.1,1004.1 	"/>
	
		<polygon style="clip-path:url(#SVGID_00000069384518762642112570000008974251430721059235_);fill:none;stroke:#CACCCD;stroke-width:0.8504;stroke-miterlimit:10;" points="
		1432.2,984.9 1396.9,960.5 1409.3,941.6 1425.4,929.1 1448.1,973.9 	"/>
	
		<path style="clip-path:url(#SVGID_00000069384518762642112570000008974251430721059235_);fill:none;stroke:#CACCCD;stroke-width:0.8504;stroke-miterlimit:10;" d="
		M1458.8,968.6l-21.6-44.7c0,0,18-8.6,51.5-5.2l-1.6,43.8C1487,962.5,1461.5,964.6,1458.8,968.6z"/>
	
		<path style="clip-path:url(#SVGID_00000069384518762642112570000008974251430721059235_);fill:none;stroke:#CACCCD;stroke-width:0.8504;stroke-miterlimit:10;" d="
		M1392.5,957c0.5-0.6,9.3-15.2,9.3-15.2"/>
	
		<path style="clip-path:url(#SVGID_00000069384518762642112570000008974251430721059235_);fill:none;stroke:#CACCCD;stroke-width:0.8504;stroke-miterlimit:10;" d="
		M1494.9,1035.4l4.3-110.3l49.1,3.8c1.3,0.1,2.3,1.2,2.2,2.5l-5.5,106.7L1494.9,1035.4z"/>
	
		<path style="clip-path:url(#SVGID_00000069384518762642112570000008974251430721059235_);fill:none;stroke:#CACCCD;stroke-width:0.8504;stroke-miterlimit:10;" d="
		M1833.3,459h-72.1l-2.9-7.2l7.8-9.9l4.6-132.1h58.4l-10.7,33.8v50.4c0,0-7.2,34.8,9.4,54.4C1827.7,448.2,1833.6,452.3,1833.3,459z"
		/>
	
		<path style="clip-path:url(#SVGID_00000069384518762642112570000008974251430721059235_);fill:none;stroke:#CACCCD;stroke-width:0.8504;stroke-miterlimit:10;" d="
		M1826.6,353.4l8.8-43.7c0,0,49-7.8,64.6,24.1c0,0,10.5,19.3,0,24.9l-7,1.9l-21.2-5.4L1826.6,353.4z"/>
	
		<polygon style="clip-path:url(#SVGID_00000069384518762642112570000008974251430721059235_);fill:none;stroke:#CACCCD;stroke-width:0.8504;stroke-miterlimit:10;" points="
		1643.1,424.3 1679,391.1 1687.2,364.3 1714.9,362.7 1717.4,366.2 1714.9,385.2 1681.2,421.6 1677,430.2 1651.3,430.2 	"/>
	
		<path style="clip-path:url(#SVGID_00000069384518762642112570000008974251430721059235_);fill:none;stroke:#CACCCD;stroke-width:0.8504;stroke-miterlimit:10;" d="
		M1833.3,465.7h-77.7v17.2l28.7,53.1l8.3,8.3h17.2l11.5-10.7c0,0,7-39.7,15.5-54.7L1833.3,465.7z"/>
	
		<path style="clip-path:url(#SVGID_00000069384518762642112570000008974251430721059235_);fill:none;stroke:#CACCCD;stroke-width:0.8504;stroke-miterlimit:10;" d="
		M1144.5,333h-55.4l1.6-80.8c0,0-2.7-7.5,12-6.1c14.7,1.4,167.6-0.2,167.6-0.2v74.2l2.9,14.7l-122.9-1.8l0.7-36.8c0,0-3.9-3.9-5,0.4
		L1144.5,333z"/>
	
		<path style="clip-path:url(#SVGID_00000069384518762642112570000008974251430721059235_);fill:none;stroke:#CACCCD;stroke-width:0.8504;stroke-miterlimit:10;" d="
		M1487.8,334.8c0,0-8,2.1-9.8-2.9C1477.9,331.9,1489.2,330.3,1487.8,334.8z"/>
	
		<path style="clip-path:url(#SVGID_00000069384518762642112570000008974251430721059235_);fill:none;stroke:#CACCCD;stroke-width:0.8504;stroke-miterlimit:10;" d="
		M1472.6,408.4l-1.1,16.3c0,0,0.9,6.6,6.4,0.7l0.7-16.1C1478.7,409.3,1476.5,404.3,1472.6,408.4z"/>
	
		<path style="clip-path:url(#SVGID_00000069384518762642112570000008974251430721059235_);fill:none;stroke:#CACCCD;stroke-width:0.8504;stroke-miterlimit:10;" d="
		M585.2,368l1.8-81.1h6.1V304l2.9,7.1l20.4,1.1c0,0,38.6,8.4,55.9,28.7c0,0,8.4,8.5,13.4-7.9v-46.1h21.4v93.3l-13.6,3.6
		C693.5,383.7,672.8,369.4,585.2,368z"/>
	
		<path style="clip-path:url(#SVGID_00000069384518762642112570000008974251430721059235_);fill:none;stroke:#CACCCD;stroke-width:0.8504;stroke-miterlimit:10;" d="
		M598.5,302.3v-17.2l80,1.8v44.3C678.5,331.2,643.5,305.5,598.5,302.3z"/>
	
		<path style="clip-path:url(#SVGID_00000069384518762642112570000008974251430721059235_);fill:none;stroke:#CACCCD;stroke-width:0.8504;stroke-miterlimit:10;" d="
		M707.1,280.8v-67.9c0,0,2.9-12.5,22.9-11.1l7.9-0.1v-41h-96.5l-9.6-2.1l-6.1-10.7V100l-3.9-9.6h-32.5l-2.5,126.9l91.8,1.1l11.1,6.1
		l-2.5,33.2l-8.6,5l-67.5-2.1l-3.9-6.1l-1.8-28.9h-18.6v53.2L707.1,280.8z"/>
	
		<polygon style="clip-path:url(#SVGID_00000069384518762642112570000008974251430721059235_);fill:none;stroke:#CACCCD;stroke-width:0.8504;stroke-miterlimit:10;" points="
		613.1,249.7 613.1,224.7 681,224.7 681,252.2 678.5,255.1 614.9,255.1 	"/>
	
		<polygon style="clip-path:url(#SVGID_00000069384518762642112570000008974251430721059235_);fill:none;stroke:#CACCCD;stroke-width:0.8504;stroke-miterlimit:10;" points="
		745.8,202.2 744.4,162.3 761.9,162.3 767.5,162.3 763.5,169.2 771.2,170.8 773.1,203.3 	"/>
	
		<polyline style="clip-path:url(#SVGID_00000069384518762642112570000008974251430721059235_);fill:none;stroke:#CACCCD;stroke-width:0.8504;stroke-miterlimit:10;" points="
		156.4,347.5 156.4,314.8 165.2,312.4 226.6,314.2 226.6,350.1 155.1,348 	"/>
	
		<polygon style="clip-path:url(#SVGID_00000069384518762642112570000008974251430721059235_);fill:none;stroke:#CACCCD;stroke-width:0.8504;stroke-miterlimit:10;" points="
		232.5,307.5 232.5,272.7 267.9,272.7 266.3,309.4 	"/>
	
		<polygon style="clip-path:url(#SVGID_00000069384518762642112570000008974251430721059235_);fill:none;stroke:#CACCCD;stroke-width:0.8504;stroke-miterlimit:10;" points="
		1966.8,1047 1966.8,990.2 2077.6,993.8 2075.4,1047 	"/>
	
		<polygon style="clip-path:url(#SVGID_00000069384518762642112570000008974251430721059235_);fill:none;stroke:#CACCCD;stroke-width:0.8504;stroke-miterlimit:10;" points="
		1966.8,982 1969,931.9 2077.6,935.9 2077.6,986.6 	"/>
	
		<polygon style="clip-path:url(#SVGID_00000069384518762642112570000008974251430721059235_);fill:none;stroke:#CACCCD;stroke-width:0.8504;stroke-miterlimit:10;" points="
		1969.3,924.4 1971.5,880.1 2077.6,882.3 2077.6,928 	"/>
	
		<polygon style="clip-path:url(#SVGID_00000069384518762642112570000008974251430721059235_);fill:none;stroke:#CACCCD;stroke-width:0.8504;stroke-miterlimit:10;" points="
		1969.3,871.9 1971.8,826.9 2080.8,831.5 2080.8,874.8 	"/>
	
		<polyline style="clip-path:url(#SVGID_00000069384518762642112570000008974251430721059235_);fill:none;stroke:#CACCCD;stroke-width:0.8504;stroke-miterlimit:10;" points="
		1973.2,778.6 2082.6,780.8 2080.8,822.6 1973.2,819.4 1973.2,780.4 	"/>
	
		<polygon style="clip-path:url(#SVGID_00000069384518762642112570000008974251430721059235_);fill:none;stroke:#CACCCD;stroke-width:0.8504;stroke-miterlimit:10;" points="
		1975,771.8 1975,725.4 2085.1,729.3 2082.6,774 	"/>
	
		<path style="clip-path:url(#SVGID_00000069384518762642112570000008974251430721059235_);fill:none;stroke:#CACCCD;stroke-width:0.8504;stroke-miterlimit:10;" d="
		M1957.6,1044.6l11.6-336.1c0-1.3-1-2.4-2.3-2.5l-169.5-5.8c-0.1,0-0.2,0-0.2,0c-3.1,0.2-66.2,4.5-82.4-5c-0.4-0.2-0.8-0.4-1.2-0.4
		h-91l-112.1-3.1c-1.3,0-2.4,1-2.5,2.3l-8,221.4c0,1.4,1,2.5,2.4,2.5l51.1,0.3c1.4,0,2.5,1.2,2.4,2.5l-4.9,111.6
		c-0.1,1.3,1,2.5,2.3,2.5l402,12C1956.4,1047,1957.6,1045.9,1957.6,1044.6z"/>
	
		<path style="clip-path:url(#SVGID_00000069384518762642112570000008974251430721059235_);fill:none;stroke:#CACCCD;stroke-width:0.8504;stroke-miterlimit:10;" d="
		M1506,369.1l-45.7-0.2l0.6-11c10.5-6.2,14.3-19.7,14.3-19.7c3.4,4.2,11,2.8,11,2.8c12.9-1.3,7.5-8,7.5-8
		c-4.6-10.4-20.4-5.4-20.4-5.4l-7.1,16.4l-12.5,12.5v11.8h-29.3v-31.4c-1.8-6.1-6.1,0-6.1,0v31.4H1365l4.3-126.1
		c-2.5-4.3-6.8-0.7-6.8-0.7l-3.9,125.4l-40.2-2.9l-16.6-6.4l-20.2-22.9l-3.8-11.1l-0.7-29.7h37.5c7.9-2.1,0-5.7,0-5.7l-37.5-1.4V246
		l7.6-4.6h31.7c5.7-3.7-2.9-4.6-2.9-4.6h-28.9l-11.5,4.6h-182.4l-3.8-3.8c-5.7-2.5-5,2.1-5,2.1l3.2,6.3l-2,2.3l-1.3,83.6H954.6v6.7
		l127.4-1.6l1.5,2.7l192.7,1.2l19.6,20.7l-22.6,48.2l-29.4,30l5.1,5.1l27.1-26.3l20.2,10.9l4.2-4.2l-20.1-11.3l20.4-49.3l8.6,4.6
		l48,5.6l-1.1,59.5h5.6l1.6-58.2l54.7-1.3l-2.1,48.8h6.2l1.3-48l28.9,0.3l1.3,15.8l12.3,15.2l-1.1,19.7l5.4,5.6h7.5l5.6-4.3l0.3-21
		l-6.2-5.3l-8-1.6l-10.2-10.7l0.7-14.3h46.7"/>
	
		<path style="clip-path:url(#SVGID_00000069384518762642112570000008974251430721059235_);fill:none;stroke:#CACCCD;stroke-width:0.8504;stroke-miterlimit:10;" d="
		M2075.4,1114.5v-60l-37.9,4.3l-33.2,0.4v55.4h-7.5v-57.1l-146.5-2.9v60h-8.2v-60l-349.5-8.1l2.1,68.1h-7.9v-68.6
		c-11.4,2.9-62.9-8.6-62.9-8.6l-336.6-127.9L604.9,762.2L106,609.2v-11.1l2.9-151.9c-4.4-15,3-21.1,3-21.1l17.7-0.7l1.8-16.1
		l8.2-15.7c-0.7-4.6-6.8-4.6-6.8-4.6l-10.7-1.1c-3.2-8.2,12.2-5.4,12.2-5.4l11.4,5.7c10.4-15,5.7-51.5,5.7-51.5l-25-2.1
		c-3.2-3.9,2.1-4.6,2.1-4.6l23.2,1.4l-0.4-3.6v-14.7c-0.4-8.2,3.6-5,3.6-5l71.8,1.1c0,0-1-44.5,0.4-48.2s5.4,0.3,5.4,0.3l0.5,5.6
		l44,0.8c7.5,0.3,3.5,5.9,3.5,5.9h-7.8l-0.5,37.5l16.6,0.3c5.9,2.7,1.9,6.7,1.9,6.7L232,315l-0.5,46.6
		c-5.4,20.6-15.3,23.9-15.3,23.9c-5.6,0-2.4-4.6-2.4-4.6c12.9-8.8,11-25.7,11-25.7L158,355c1.1,36.2-21.2,52.3-21.2,52.3l-2.1,23.3
		l-20.4,0.5l-2.4,69.1l42.1-0.8l5.6-5.6c5.9-1.1,4.3,4.6,4.3,4.6l-2.7,3.2l-6.2,4.3l-43.2,0.3v94.3l320.3,97.3l5.8-43.3l-50.7-5.7
		l-7.1-5.2c-3.2-7.5,3.9-6.1,3.9-6.1c-0.4,3.4,4.6,4.6,4.6,4.6l4.8,0.9l2.7-11.3c3-3.9,5,0.9,5,0.9l-2.3,10.9l40.6,5.2l2.9-47.4
		l-18.2-2.7c-11.3-3.8-22,1.9-22,1.9l-12.3,11.8c-5.4,5.4-6.4,2.7-6.4,2.7c-3.5-2.9,0-5.1,0-5.1l13.9-13.9c11-9.9,47.4,0,47.4,0
		l4.3-18.2l-31.9-49.6l-37-37.5c-7.4,0.7-5.1-4.3-5.1-4.3c-0.3-4,8.3-0.8,8.3-0.8l40.7,43.2l27.6,43.4l21.2-69.7L406.2,445
		c-20.6-17.4-35.4-9.9-51.5-12.3c-16.1-2.4-13.4-17.7-13.4-17.7v-43.2c4.3-6.7,5.2,0.8,5.2,0.8l0.2,31.9
		c-1.6,20.1,7.5,22.8,7.5,22.8l21.7,0.5c23-0.5,35.4,13.9,35.4,13.9l64.6,55.5c4.3-24.4,32.2-53.7,32.2-53.7l-21.1-28l-29.3,0.1
		c-5.4-3.3,0.4-5.9,0.4-5.9l17.3-0.4c-4.5-4.3-0.1-12.2-0.1-12.2c-8.6-8.3-13.4-39.7-13.4-39.7c-1.3-14.2-22.8-21.4-22.8-21.4
		l-17.4-0.3l0.3,21.4l-6.7,10.7c-9.1,9.9-19.8,8-19.8,8l-1.6-1.3l-15.8-10.2c-7.8-7-13.1-5.1-13.1-5.1c-10.2-0.3-4.3-6.7-4.3-6.7
		c9.4-2.7,32.4,14.5,32.4,14.5c5.6,7.2,15.3,0.3,15.3,0.3c13.7-11.3,7.8-33,7.8-33c-0.5-59.8-9.1-89.8-9.1-89.8
		c-2.4-9.9,6.2-8.8,6.2-8.8l8.4,94.6h18c15-0.1,27.3,22.2,27.3,22.2c3.2,31.1,13.4,41.3,13.4,41.3c5.4-3.4,8.9,1.6,8.9,1.6l5.6-7.5
		l-0.4-50.5c0.1-12.2-9.6-23.9-9.6-23.9c-10.6-7.5-16.8-17.4-16.8-17.4c-7.8-9.8-4.4-33.1-4.4-33.1l5.9-19.7c5.1-18-9-16.5-9-16.5
		l-41.8-0.8l-3.5,5.1c-7.8,10.9-14.4,1.4-14.4,1.4c-5.4-14,10.2-12.3,10.2-12.3c4.2,4,8,0,8,0l41,0.4c20.5,1.8,15.7,21.6,15.7,21.6
		l-5.9,19.1C459,293.1,489,309.1,489,309.1l11.3,21.4l0.5,57.9l-6.2,9.5c3.9,9.2,0,10.5,0,10.5l23.5,28.3l60.7-1.6V434v-58.6h-2
		h-42.9c-11.5-0.4-7.4-8.4-7.4-8.4c4.2-4,8.3,2.9,8.3,2.9h41.9l2-430.9c0-3.6,2.9-6.5,6.6-6.5h0c3.7,0,6.6,3,6.6,6.7l-2.7,142.5
		h34.3v-30c0,0-4.3-7.9,19.3-8.6l46.8-1.1c0,0-36.8-19.7-19.7-85.1v-16.5v-4.4c0-2,1.6-3.6,3.6-3.6h0c2,0,3.6,1.6,3.6,3.6v32.7
		c0,0-11.4,46.8,16.8,65.4c0,0,12.9,20,50,20H760c0,0,8.9,2.1,4.3,6.4h-30.7l-31.4-11.8L636,50c0,0-7.5,2.5-6.1,28.2l3.2,24.3
		l0.7,47.2c0,0,0,4.6,14.3,5h103.6h16.8c0,0,11.8,2.1,17.9-13.9v-25c0,0,0.7-6.1,5-1.4v29.7c0,0-0.4,9.3-15,20.7
		c0,0,6.1,0.4,3.9,30.4c0,0,4.3,14.3-7.9,15.4h-50c0,0-10.7-7.1-8.6,27.9v23.2h67.9c0,0,7.9,0.4,2.9,7.1h-70l-0.7,51.5l59.7,19.3
		c0,0,2.1,7.9-6.1,4.3l-54-18.2l-1.1,44.3c0,0-1.1,16.1,12.9,32.2c0,0,61.5,39.7,74.7,78.3c0,0,18.9,15.4,12.5,111.9l1.3,63.6
		c0,0,18.3,19.7,50.5,20.7l96.8,1.8l-3.9-13.9l-79.7-40.2L850,645.3c0,0-7.9,7.1-11.8,0.7l-5.4-5.7l-1.4-21.1l6.4-8.6l23.2-0.7
		l100.1,49.3l6.4,18.9h63.3l7.9,2.1c0,0,44.3,6.4,50.4-30.7c0,0,9.3-25.4,46.5-19.3l21.8-0.4v-58.6l-26.1-3.2c0,0-14.7,5.7-27.5,1.8
		l-15-6.4l-28.6,1.8c0,0-6.4-3.2,0.7-6.1l29.3-0.7l18.9,6.4l21.4-2.1l23.9,2.5l7.5,0.7v65.8l25.4,16.8c0,0,4.6,4.3,18.2,3.6h23.6
		c0,0,5-0.7,5,3.2c0,0,8.2,4.6-32.9,2.9c0,0-15.4-0.7-24.7-9.6l-14.7-11.1l0.4,17.9c0,0-2.5,10.4-6.1,0.7l-0.4-20.7l-41.8,1.1
		c0,0-21.8,9.3-22.9,28.9c0,0-13.2,22.5-36.1,20l-13.6,0.2l0.7,128.5c0,0-5,48.2,12.5,65.4l12.2,12.5l96.5,35.7
		c0,0,2.5-27.5,31.4-36.5l4.3-169l6.8-8.2l66.1-0.4c0,0,15.7-1.4,16.4,18.9c0,2.9-5.4,66.5-5.4,66.5s1.8,44.7-82.2,40.4l-0.7,50.7
		c0,0,20.4,17.9,54,15c0,0,35-15.7,78.3-66.8c0,0,17.5-34.3,11.1-111.1c0,0-0.7-17.9,37.9-13.6l39.3,2.1c0,0,11.8-2.5,10.4,22.5
		l-2.9,47.5c0,0-6.1,16.1-26.4,12.9c0,0-19.3,4.6-20.4,7.1c0,0-12.5,5.4-33.9-0.4c0,0-0.7,32.2-20.7,48.2l-47.5,44.3l-14.3,8.9
		c0,0,7.5,12.5-3.6,15.4c0,0-8.6,2.5-11.1-11.8c0,0-5.7,9.6-53.6-8.6c0,0-21.1,2.5-27.2,28.9l143.3,53.6l42.2,17.9l25-39.7
		l-44.7-34.7c0,0,0.7-8.6,7.1-2.1l40.4,27.9h3.2l10.7-17.9l26.1-21.4l-7.5-12.9c0,0-23.2,9.3-39,35c0,0-3.9,3.6-5.4-4.6
		c0,0,25-32.9,42.2-35.4l-17.5-35.7c0,0-37.5,20.7-54.7,49.7c0,0-5.4-2.1-2.9-7.1c0,0,20.7-30.7,56.8-48.2l30-10.7
		c0,0,8.9,0.4,1.4,5l-25,10l17.2,33.2c0,0,18.2-9.6,38.2-8.9c0,0,3.2,0.7-1.4,5c0,0-30.9,3.6-33.6,11.4l6.1,12.5l21.1-7.5l40,0.4
		l10-299.8l5.5-191.2l1.5-39.3"/>
	
		<path style="clip-path:url(#SVGID_00000069384518762642112570000008974251430721059235_);fill:none;stroke:#CACCCD;stroke-width:0.8504;stroke-miterlimit:10;" d="
		M1506.3,369.7l5.6-147.6l2.9-187.4v-60.9v-37.5c0-2,1.6-3.6,3.6-3.6h5.8c2,0,3.6,1.6,3.6,3.6V48.5v74.3l101.1,5.4h15.4
		c0,0,9.3,1.4,0,5.7l-123.1-2.1l-2,50.4l99.7,2.1h4.6c0,0,8.6,2.1-2.1,7.1l-102.2-2.1l-4.6,146.9v35h16.8V358c0,0,6.4-7.1,6.8,5.4
		l-1.4,69.7c0,0,0,15.4,35.4,12.2l38.2,0.4l62.9-55.5l10.7-30.4l7.1-3.6l27.5,0.7l4.3,7.5v20l-35.7,39.3l-8.2,12.2H1650l-9.3-6.8
		l-24.7,21.8h-69c0,0-19.7-1.7-17.2-21.8v-52.6h-15.4l-8.2,166.2c0,0,15.4-2.9,42.9,4.3h36.5l5.7-3.6l10.7-25.4
		c0,0,3.6-6.4,12.5-11.1l-8.9-25.7c0,0-1.8-12.5,7.1,0l8.2,25l13.2-5.7c0,0,29.3,12.9,42.5,1.8c0.7-2.1,8.2-15.4,8.2-15.4l-16.1-9.3
		l-12.5,0.4c0,0-6.4-7.1,5.7-6.4l8.9,1.1l17.5,8.2l10-17.7l8.6-4.1l42.2-0.4l8.9-17.9l6.4-135.8c0,0,5.7-23.6-18.9-25.4l-18.2,7.5
		l-5,29.3c0,0-17.5,4.6-41.1-1.8c0,0-6.4-5.4,3.6-6.8l8.6,2.1l24.7,0.7l2.5-21.4l-37.9,13.2c0,0-5.4-3.9-0.4-7.1l12.5-3.2
		l-14.3-40.7c0,0-1.1-8.6,6.8-2.9l14.3,41.1l44-15.7c0,0,25.4-1.8,25.7,28.9l58.6-0.7l4.3-12.2v-5l4.3-0.4v7.1l-2.5,10.4
		c0,0,67.9-12.2,74,44.7v13.6l-6.8,5.4l-11.4,2.1l-21.8-6.4l-45,1.1c0,0-3.6,62.5,3.9,75.4c0,0,23.9,24.3,12.9,47.5
		c0,0-8.9,16.1-11.8,41.5c0,0-7.1,21.1-13.2,20c0,0,16.4,31.4,59.3,21.4l15-1.1c0,0-4.3-21.1,10.7-31.4l19.7-13.6h22.2
		c0,0,6.4,2.9,0,5l-20.7,0.7c0,0-28.2,13.9-26.4,30.7l0.4,11.6h46.8l8.2,8.4v27.5l-7.1,10l-110.8-2.1c0,0-7.9-5.7,2.9-5.4l105.8,0.7
		l3.6-4.6l-0.7-25l-3.6-3.2l-94-1.1c0,0-23.6-3.6-37.5-26.1c0,0-15.7,6.4-28.6-5.7l-28.9-43.6l-5.4-16.4l0.4-17.2l-44.7-0.4
		l-19.3,40c0,0-5.7,10.4-21.4,8.2l-26.4-7.1l-22.5,8.2l-17.5,34.3l-7.9,4.6l-37.9,0.4l-44-3.9l-1.8,44.7l136.5,5.4l5.4,0.7
		c0,0,5.4,5.7-1.1,5.4l-140.8-5.4l-3.2,83.3l129.4,2.5h83.3c0,0,53.2,14.3,81.8,5.4l136.5,2.9h15.7l14.7,3.1v-20l-11.8-0.7l-25-18.9
		c0,0-4.6-6.8,3.6-6.1l23.2,19.7l10-0.4v-13.6c0,0,4.6-3.9,5.7,1.8l6.6,43.6v15l103.5,2.5h36.5l99.5,1.4"/>
	<path style="opacity:0.25;clip-path:url(#SVGID_00000069384518762642112570000008974251430721059235_);fill:#CACCCD;" d="
		M1077.1,810.4l7.1,5c3.3,2.3,5.7,5.7,7,9.5l4.2,12.9c2.5,7.7,9.6,12.9,17.5,12.9l0,0c9.3,0,17.2-7.1,18.3-16.5l12.4-101.6
		c0.2-1.9,0.2-3.8-0.2-5.7l-8.2-45.8c-0.1-0.8-0.2-1.6-0.3-2.3c-0.4-7.6-3.7-52.3-28.1-57.9c-24.8-5.6-111.4-62.5-123.1-70.2
		c-0.9-0.6-1.7-1-2.7-1.5c-8.3-3.7-52.5-24.1-57.9-43.3c-5.7-20.3-0.5-137.7,0-147.5c0-0.4,0-0.8,0-1.2c-0.1-4.6,0.2-35.3,20.7-29.7
		c17.7,4.8,70.9-2.8,92-6.1c6.2-1,11.5-5.1,14.1-11c3.1-7.2,5.5-17.4,0.6-26.7c-8.4-15.6-10.2-183.9-10.4-203.7
		c0-1.3-0.2-2.5-0.4-3.8L1027.3,16c-1.8-8.7-9.4-14.9-18.1-14.9H884.2c-10.2,0-18.5,8.4-18.5,18.9v167.1v294.4
		c0,2.2-0.4,4.4-1.1,6.5c-5,13.9-23.5,70.8,1.1,80.1c25.1,9.4,97.3,60.9,112.6,72c1.9,1.4,4.1,2.4,6.4,2.9l52,12.6
		c4.3,1.1,8.2,3.7,10.8,7.4l7.9,11.3c1.9,2.7,3,5.9,3.4,9.2l10.6,113.2C1069.8,802.3,1072.7,807.3,1077.1,810.4z"/>
	
		<polygon style="opacity:0.5;clip-path:url(#SVGID_00000069384518762642112570000008974251430721059235_);fill-rule:evenodd;clip-rule:evenodd;fill:#ADCCD0;" points="
		1069.4,351.7 926.7,351.7 926.7,384.1 932.7,385.1 940.3,376.2 957.6,376.4 968,384.6 973.3,392.3 974.2,400.7 971.8,406 
		972.3,410.2 976.2,411.9 983.1,406.3 993,409.4 996,413 1000.3,410.5 1006.6,413.6 1015.1,426.8 1022.4,418.1 1030.7,427.6 
		1036.4,443.3 1037.5,457.3 1029.9,460.5 1024.4,460.8 1012,455.4 1001.1,462.3 997,466.4 983.3,470.5 962.9,478 958.2,482.1 
		953.3,491.7 949.3,493.9 953.3,497.1 956.5,500.6 959.4,509.5 969.8,516 970.3,519.8 982.9,524.2 995.5,525.9 1018.2,538.8 
		1031.1,546 1042.8,549.3 1046.6,558.1 1051.8,555.9 1060.5,558 1068.1,565.3 1068.3,553.3 1131,553.6 1131.2,426.4 1194.6,426.5 
		1214.4,405.4 1253,397.1 1260.1,378.3 1291.1,354 1225.6,352.8 1211.6,372.6 1189.7,346.9 1070.3,348.1 	"/>
	
		<path style="clip-path:url(#SVGID_00000069384518762642112570000008974251430721059235_);fill:none;stroke:#E7097E;stroke-miterlimit:10;" d="
		M-1283.4,537.8"/>
	
		<path style="clip-path:url(#SVGID_00000069384518762642112570000008974251430721059235_);fill:none;stroke:#E7097E;stroke-miterlimit:10;" d="
		M1975,660.7"/>
	<g style="clip-path:url(#SVGID_00000069384518762642112570000008974251430721059235_);">
		<g>
			<path class="st6" d="M1476.4,943.3c-7.1,0-12.8,5.7-12.8,12.8c0,9.7,12.8,20.9,12.8,20.9s12.8-11,12.8-20.9
				C1489.2,949,1483.5,943.3,1476.4,943.3z M1476.4,961.3c-3.3,0-5.9-2.6-5.9-5.9c0-3.3,2.6-5.9,5.9-5.9s5.9,2.6,5.9,5.9
				C1482.3,958.7,1479.7,961.3,1476.4,961.3z"/>
		</g>
	</g>
	<g style="clip-path:url(#SVGID_00000069384518762642112570000008974251430721059235_);">
		<g>
			<path class="st6" d="M1050.2,883.5c-7.1,0-12.8,5.7-12.8,12.8c0,9.7,12.8,20.9,12.8,20.9s12.8-11,12.8-20.9
				C1063,889.2,1057.3,883.5,1050.2,883.5z M1050.2,901.6c-3.3,0-5.9-2.6-5.9-5.9c0-3.3,2.6-5.9,5.9-5.9s5.9,2.6,5.9,5.9
				C1056.1,898.9,1053.4,901.6,1050.2,901.6z"/>
		</g>
	</g>
	<g style="clip-path:url(#SVGID_00000069384518762642112570000008974251430721059235_);">
		<g>
			<path class="st6" d="M1169.3,960.9c-7.1,0-12.8,5.7-12.8,12.8c0,9.7,12.8,20.9,12.8,20.9s12.8-11,12.8-20.9
				C1182.2,966.6,1176.4,960.9,1169.3,960.9z M1169.3,978.9c-3.3,0-5.9-2.6-5.9-5.9c0-3.3,2.6-5.9,5.9-5.9c3.3,0,5.9,2.6,5.9,5.9
				C1175.2,976.3,1172.6,978.9,1169.3,978.9z"/>
		</g>
	</g>
	<g style="clip-path:url(#SVGID_00000069384518762642112570000008974251430721059235_);">
		<g>
			<path class="st6" d="M1476.4,729.3c-7.1,0-12.8,5.7-12.8,12.8c0,9.7,12.8,20.9,12.8,20.9s12.8-11,12.8-20.9
				C1489.2,735.1,1483.5,729.3,1476.4,729.3z M1476.4,747.4c-3.3,0-5.9-2.6-5.9-5.9c0-3.3,2.6-5.9,5.9-5.9s5.9,2.6,5.9,5.9
				C1482.3,744.7,1479.7,747.4,1476.4,747.4z"/>
		</g>
	</g>
	<g style="clip-path:url(#SVGID_00000069384518762642112570000008974251430721059235_);">
		<g>
			<path class="st6" d="M1448.1,864.5c-7.1,0-12.8,5.7-12.8,12.8c0,9.7,12.8,20.9,12.8,20.9s12.8-11,12.8-20.9
				C1460.9,870.2,1455.2,864.5,1448.1,864.5z M1448.1,882.5c-3.3,0-5.9-2.6-5.9-5.9c0-3.3,2.6-5.9,5.9-5.9s5.9,2.6,5.9,5.9
				C1454,879.9,1451.4,882.5,1448.1,882.5z"/>
		</g>
	</g>
	<g style="clip-path:url(#SVGID_00000069384518762642112570000008974251430721059235_);">
		<g>
			<path class="st6" d="M647.1,70.3c-7.1,0-12.8,5.7-12.8,12.8c0,9.7,12.8,20.9,12.8,20.9s12.8-11,12.8-20.9
				C659.9,76.1,654.2,70.3,647.1,70.3z M647.1,88.4c-3.3,0-5.9-2.6-5.9-5.9s2.6-5.9,5.9-5.9c3.3,0,5.9,2.6,5.9,5.9
				S650.3,88.4,647.1,88.4z"/>
		</g>
	</g>
	<g style="clip-path:url(#SVGID_00000069384518762642112570000008974251430721059235_);">
		<g>
			<path class="st6" d="M1509.9,985.1c-7.1,0-12.8,5.7-12.8,12.8c0,9.7,12.8,20.9,12.8,20.9s12.8-11,12.8-20.9
				C1522.8,990.9,1517,985.1,1509.9,985.1z M1509.9,1003.2c-3.3,0-5.9-2.6-5.9-5.9c0-3.3,2.6-5.9,5.9-5.9s5.9,2.6,5.9,5.9
				C1515.9,1000.5,1513.2,1003.2,1509.9,1003.2z"/>
		</g>
	</g>
	<g style="clip-path:url(#SVGID_00000069384518762642112570000008974251430721059235_);">
		<text transform="matrix(1 0 0 1 1078.7129 986.6082)" class="st6 st7 st8">Vue on 30a</text>
	</g>
	<g style="clip-path:url(#SVGID_00000069384518762642112570000008974251430721059235_);">
		<text transform="matrix(1 0 0 1 946.6167 910.3083)" class="st6 st7 st8">Beach Access</text>
	</g>
	<g style="clip-path:url(#SVGID_00000069384518762642112570000008974251430721059235_);">
		<g>
			<path class="st6" d="M430.8,674.9c-7.1,0-12.8,5.7-12.8,12.8c0,9.7,12.8,20.9,12.8,20.9s12.8-11,12.8-20.9
				C443.6,680.7,437.8,674.9,430.8,674.9z M430.8,693c-3.3,0-5.9-2.6-5.9-5.9c0-3.3,2.6-5.9,5.9-5.9c3.3,0,5.9,2.6,5.9,5.9
				C436.7,690.4,434,693,430.8,693z"/>
		</g>
	</g>
	<g style="clip-path:url(#SVGID_00000069384518762642112570000008974251430721059235_);">
		<text transform="matrix(1 0 0 1 399.2632 727.2009)"><tspan x="0" y="0" class="st6 st7 st9">West Allen</tspan><tspan x="0" y="15.4" class="st6 st7 st9">Loop Beach</tspan><tspan x="0" y="30.8" class="st6 st7 st9">Access</tspan></text>
	</g>
	<g style="clip-path:url(#SVGID_00000069384518762642112570000008974251430721059235_);">
		<g>
			<path class="st6" d="M345,653.2c-7.1,0-12.8,5.7-12.8,12.8c0,9.7,12.8,20.9,12.8,20.9s12.8-11,12.8-20.9
				C357.8,658.9,352,653.2,345,653.2z M345,671.2c-3.3,0-5.9-2.6-5.9-5.9c0-3.3,2.6-5.9,5.9-5.9c3.3,0,5.9,2.6,5.9,5.9
				C350.9,668.6,348.2,671.2,345,671.2z"/>
		</g>
	</g>
	<g style="clip-path:url(#SVGID_00000069384518762642112570000008974251430721059235_);">
		<text transform="matrix(1 0 0 1 330.5649 702.9055)"><tspan x="0" y="0" class="st6 st7 st9">Dune </tspan><tspan x="0" y="15.4" class="st6 st7 st9">Allen Beach</tspan><tspan x="0" y="30.8" class="st6 st7 st9">Access</tspan></text>
	</g>
	<g style="clip-path:url(#SVGID_00000069384518762642112570000008974251430721059235_);">
		<text transform="matrix(1 0 0 1 1346.6875 1016.5129)" class="st6 st7 st8">Shunk Gulley Gyster Bar</text>
	</g>
	<g style="clip-path:url(#SVGID_00000069384518762642112570000008974251430721059235_);">
		<g>
			<path class="st6" d="M1469.5,1024.3c-7.1,0-12.8,5.7-12.8,12.8c0,9.7,12.8,20.9,12.8,20.9s12.8-11,12.8-20.9
				C1482.3,1030,1476.6,1024.3,1469.5,1024.3z M1469.5,1042.3c-3.3,0-5.9-2.6-5.9-5.9s2.6-5.9,5.9-5.9s5.9,2.6,5.9,5.9
				S1472.7,1042.3,1469.5,1042.3z"/>
		</g>
	</g>
	<g style="clip-path:url(#SVGID_00000069384518762642112570000008974251430721059235_);">
		<text transform="matrix(1 0 0 1 1287.9746 1053.0701)" class="st6 st7 st8">Shunk Gulley Beach Access</text>
	</g>
	<g style="clip-path:url(#SVGID_00000069384518762642112570000008974251430721059235_);">
		<text transform="matrix(1 0 0 1 1340.0332 893.4031)" class="st6 st7 st8">Steve’s Market</text>
	</g>
	<g style="clip-path:url(#SVGID_00000069384518762642112570000008974251430721059235_);">
		<g>
			<path class="st6" d="M1400.5,909.9c-7.1,0-12.8,5.7-12.8,12.8c0,9.7,12.8,20.9,12.8,20.9s12.8-11,12.8-20.9
				C1413.3,915.6,1407.5,909.9,1400.5,909.9z M1400.5,928c-3.3,0-5.9-2.6-5.9-5.9c0-3.3,2.6-5.9,5.9-5.9s5.9,2.6,5.9,5.9
				C1406.4,925.3,1403.7,928,1400.5,928z"/>
		</g>
	</g>
	<g style="clip-path:url(#SVGID_00000069384518762642112570000008974251430721059235_);">
		<text transform="matrix(1 0 0 1 1292.3984 938.8215)"><tspan x="0" y="0" class="st6 st7 st8">Chef’s 30A Deli</tspan><tspan x="0" y="17.4" class="st6 st7 st8">  </tspan></text>
	</g>
	<g style="clip-path:url(#SVGID_00000069384518762642112570000008974251430721059235_);">
		<text transform="matrix(1 0 0 1 1387.3535 775.4963)" class="st6 st7 st8">South of Philly</text>
	</g>
	<g style="clip-path:url(#SVGID_00000069384518762642112570000008974251430721059235_);">
		<g>
			<path class="st6" d="M1522.9,618.5c-7.1,0-12.8,5.7-12.8,12.8c0,9.7,12.8,20.9,12.8,20.9s12.8-11,12.8-20.9
				C1535.8,624.3,1530,618.5,1522.9,618.5z M1522.9,636.6c-3.3,0-5.9-2.6-5.9-5.9s2.6-5.9,5.9-5.9s5.9,2.6,5.9,5.9
				C1528.8,633.9,1526.2,636.6,1522.9,636.6z"/>
		</g>
	</g>
	<g style="clip-path:url(#SVGID_00000069384518762642112570000008974251430721059235_);">
		<text transform="matrix(1 0 0 1 1544.6602 632.5916)"><tspan x="0" y="0" class="st6 st7 st8">Emerald Coast</tspan><tspan x="0" y="17.4" class="st6 st7 st8">Compounding Pharmacy</tspan></text>
	</g>
	<g style="clip-path:url(#SVGID_00000069384518762642112570000008974251430721059235_);">
		<text transform="matrix(1 0 0 1 1398.4648 193.6062)"><tspan x="0" y="0" class="st6 st10 st8">Access </tspan><tspan x="0" y="17.4" class="st6 st10 st8">To 1-98</tspan></text>
	</g>
	<g style="clip-path:url(#SVGID_00000069384518762642112570000008974251430721059235_);">
		<text transform="matrix(1 0 0 1 654.7476 106.9885)" class="st6 st7 st8">Driving Range</text>
	</g>
	<g style="clip-path:url(#SVGID_00000069384518762642112570000008974251430721059235_);">
		<g>
			<path class="st6" d="M937.8,229.1c-7.1,0-12.8,5.7-12.8,12.8c0,9.7,12.8,20.9,12.8,20.9s12.8-11,12.8-20.9
				C950.7,234.8,944.9,229.1,937.8,229.1z M937.8,247.1c-3.3,0-5.9-2.6-5.9-5.9s2.6-5.9,5.9-5.9s5.9,2.6,5.9,5.9
				S941.1,247.1,937.8,247.1z"/>
		</g>
	</g>
	<g style="clip-path:url(#SVGID_00000069384518762642112570000008974251430721059235_);">
		<text transform="matrix(0 1 -1 0 580.4058 110.5945)" class="st6 st7 st11">Thompson Rd</text>
	</g>
	<g style="clip-path:url(#SVGID_00000069384518762642112570000008974251430721059235_);">
		<text transform="matrix(0 1 -1 0 578.1919 303.9836)" class="st6 st7 st11">Thompson Rd</text>
	</g>
	<g style="clip-path:url(#SVGID_00000069384518762642112570000008974251430721059235_);">
		<text transform="matrix(1 0 0 1 1490.8379 956.9924)"><tspan x="0" y="0" class="st6 st7 st8">Perfect Pig Grill </tspan><tspan x="0" y="18.1" class="st6 st7 st8">&amp; Fish House</tspan></text>
	</g>
	<g style="clip-path:url(#SVGID_00000069384518762642112570000008974251430721059235_);">
		<text transform="matrix(0.9334 0.3588 -0.3588 0.9334 1136.2834 925.9847)" class="st6 st7 st12">W County Hwy 30A</text>
	</g>
	<g style="clip-path:url(#SVGID_00000069384518762642112570000008974251430721059235_);">
		<text transform="matrix(0.9558 0.294 -0.294 0.9558 524.0889 733.4284)" class="st6 st7 st12">W County Hwy 30A</text>
	</g>
	<path style="clip-path:url(#SVGID_00000069384518762642112570000008974251430721059235_);fill:none;" d="M-94.5,217.2
		c1.9-0.9,2.2-2.6,2.6-4.4c4.9-21.6,13.9-41,29.4-57.3c5.1-5.3,8.4-12.2,16-14.9c2.9-1,5.6-2,8.7-1.8c12.8,0.8,25.7,0.7,38.3,2.8
		c7.6,1.3,14.9,5.7,20.6,11.5c7.5,7.7,14.7,15.7,22.2,23.6c1.4-2,0-3.4-0.2-4.9c-0.7-6,2.5-12.1,8.2-14.4c16-6.4,32.5-9.7,49.9-7
		c10.1,1.6,15.4,8.8,20.8,15.9c2.1,2.8,3.2,6.5,5,9.6c1.4,2.4,1.1,4.6,0.1,6.8c-1.8,3.9-4,7.4-3.2,12.3c0.8,4.7-6,3-7.3,6.7
		c-0.1-2-0.2-3.9-0.3-5.9c-0.2-4-1.3-7.5-5.4-9.2c-1.1-0.5-2.3-1.1-3-2c-6.7-9.3-17.2-9.1-26.9-10.9c-5-0.9-9.3,1.2-12.9,3.9
		c-7.4,5.7-15.3,4.6-23.4,3c-0.9-0.2-1.8-0.9-2.4-1.7c-6-7.8-13.6-14.2-20.1-21.6c-7.4-8.5-16.8-13.8-28.7-14.1
		c-10.4-0.3-20.7-1.7-31.1-2.2c-7.1-0.4-12.7,2.8-17,8.4c-5.5,7.1-10.8,14.5-16.9,21.1C-82,182-83.9,196.6-88.5,210.1
		c-1.3,4-2.4,8.1-6.1,10.7C-94.5,219.6-94.5,218.4-94.5,217.2z"/>
	<path style="clip-path:url(#SVGID_00000069384518762642112570000008974251430721059235_);fill:none;" d="M140.5,557.4
		c-0.1-3.5,0.8-6.7,2.5-9.8c4.1-7.4,7.9-14.9,11.9-22.3c0.8-1.6,2.1-2.9,3.2-4.3c2-2.6,4.4-3,7.4-1.5c3.3,1.6,3.5,4.4,2.7,7.1
		c-1.5,5.1-3.4,10.2-5.5,15.2c-2,4.8,1.3,15.8,5.8,18.1c1.8,0.9,10.8-4.3,12.2-7.2c1.5-3.1,2.4-6.4,2.1-9.9
		c-0.2-2.7-0.2-5.6,2.8-6.7c2.6-1,3.8,1.8,5.2,3.2c6.2,6,12.2,12.1,20.8,14.8c12.2,3.9,18.8,2,26.4-8.4c0.5-0.6,1.2-1.3,1.2-2
		c0.3-8.9,5.1-16.3,8.5-24.1c2.4-5.6,9.2-8.7,14.3-5.5c5.7,3.6,11.2,6,17.8,2.4c2.2-1.2,3.7,0.7,4.9,2.4c1.2,1.8,2.3,3.7,4.5,4.9
		c2.4-1.6,2.2-4,2.1-6.3c-0.7-20.1,1.6-40.1,1.3-60.2c0-2.3,0.8-4.7,1.1-7.1c0.3-2.3,1.2-4,3.7-3.9c3.2,0,2.3,2.7,2.4,4.5
		c0.5,10-0.8,20-1.1,30c-0.4,11.2,0.6,22.5-1.2,33.6c-0.9,5.7,2.8,11.7-2,17.3c-1.6,1.8,0,5.1,3.4,6.4c5.1,2,9-0.8,13-2.7
		c2-1,1.3-3.4,0.1-5.3c-0.8-1.3-4.2-1.4-2.2-3.9c1.7-2.2,3.6-4.3,6.9-4c4.8,0.4,9.5,1.1,14.3,1.3c4.7,0.2,6.4-1.6,7.1-5.8
		c1.3-7.9,2.8-15.7,4.2-23.6c2.6,0.9,4.2,2,4.6,5c0.6,4.7,4.3,7.9,8.4,8.3c12.2,1.2,21.8,7.4,30.8,14.7c4.6,3.7,9.7,5.4,15.3,6.1
		c1.6,0.2,3.5,0.2,4.2,1.9c1.7,4.3,3.9,8.5,4.5,13c1,6.9-4.4,9.9-9.7,11.7c-8.1,2.7-15.9,6.9-24.9,6.1c-1.1-0.1-2.9,0.1-3.3,0.9
		c-5.8,9-15.5,6.3-23.6,7.2c-5.7,0.7-11.1,2.3-13.6,6.3c-5.2,8.1-13.1,12.1-20.4,17.1c-4.1,2.8-7.1,6.4-9.8,10.4
		c-11.1,16.3-25.8,28-45.3,32.2c-5,1.1-11.1,0.6-15.9-3.2c-3.4-2.7-7.3-5-10.5-7.9c-6.1-5.5-13.5-6.3-20.8-4.7
		c-16.9,3.6-32-0.6-43.6-12.3c-9-9.1-18.7-17.9-25.6-29.1c-0.3-0.6-0.5-1.2-0.2-1.7C146.3,569.2,142.9,563.4,140.5,557.4z"/>
	<path style="clip-path:url(#SVGID_00000069384518762642112570000008974251430721059235_);fill:none;" d="M247.6,189.5
		c-9.8,0-19.7-0.2-29.5,0.1c-7.8,0.2-12.1-5.5-17.4-9.6c-1.8-1.4-0.2-2.9,1.1-3.9c6.2-4.7,12.2-9.8,18.8-14
		c5.4-3.5,12.1-1.6,18.2-2.6c15.1-2.3,30.4-1.4,45.6-1.3c7.1,0,14.1,2.6,21.3-0.8c2.9-1.4,4.5,1.2,3.2,4.2
		c-1.8,4.2-4.1,8.3-7.6,11.4c-4.6,4.2-9.3,8.2-13.9,12.3c-3.4,3.1-7.2,4.4-12,4.2C266.1,189.2,256.8,189.5,247.6,189.5
		C247.6,189.5,247.6,189.5,247.6,189.5z"/>
	<path style="clip-path:url(#SVGID_00000069384518762642112570000008974251430721059235_);fill:#D1DBD9;" d="M955.4,57.2
		c4.4,1.2,7.4,4.3,10.6,6.8c5.1,4,10.9,5.8,16.9,7.2c1.7,0.4,3.4,1.6,4.7-0.7c1.2-2.1,1.6-4.2-0.1-6.1c-1.6-1.8-3.2-3.4-5.5-4.4
		c-6.1-2.6-12-5.6-17.9-8.6c-1.5-0.7-3.9-1.3-2.2-3.8c2.7-3.9,4-8.8,7.6-12.2c1.2-1.1,2.3-4.1,4.7-1.7c1.5,1.5,3.3,3.4,1.3,5.7
		c-3.3,3.7-1.7,5.4,2.1,7.4c11.6,6.3,21.5,14.6,27.6,26.6c3.4,6.7,1.4,10.5-5.8,12.1c-2.4,0.5-6.1-0.2-6.7,2.7
		c-0.6,3.3,3,4.2,5.5,5.5c2.5,1.3,5,2.5,7.5,3.8c1.6,0.8,2.3,2.1,2.2,3.9c-0.1,1.9-1.3,2.6-3,3.2c-7.3,2.7-19.7-2-23.2-8.8
		c-1-2-2.5-3.7-3.2-5.8c-2.9-9.3-9.5-12.2-18.7-12.1c-6.2,0-8.8-4.3-7.3-10.3C953.4,64.3,954.4,60.9,955.4,57.2z"/>
	<path style="clip-path:url(#SVGID_00000069384518762642112570000008974251430721059235_);fill:#D1DBD9;" d="M1695.9,152
		c1.8-7.5-0.5-12.8-6.6-16.8c-2.5-1.6-1.5-6.6,1.8-8c3.4-1.5,7.1-3.5,10.9-2.7c7.8,1.6,15.6,0.9,23.3,1c5.6,0.1,11.2,0.2,16.5,2.2
		c1.7,0.6,4.3-0.6,5,2.3c0.6,2.7-0.8,4.6-2.7,6.2c-5.8,4.9-11.6,9.8-17.5,14.5c-5,4-9.9,8.2-15.2,11.6c-4.5,2.9-9.3,3.5-14.1-0.7
		C1693.4,158.3,1698.4,154.8,1695.9,152z"/>
	<path style="clip-path:url(#SVGID_00000069384518762642112570000008974251430721059235_);fill:#D1DBD9;" d="M834.4,536.8
		c9.8-9.8,23.3-12.3,33.8-19.8c8-5.6,15.8-11.4,23.2-18c7-6.2,16.7-8.8,27.1-12.7c-2.1,3.9-4.7,4.3-6.8,5.4c-8,3.9-16.3,6.7-23,13.4
		c-8.1,8-17.7,14.9-28.1,19.2c-7.8,3.2-14.2,8-21,12.3c-7,4.5-7.6,11.8-9.1,18.7c-2.4,11.3-9.8,19.8-15.5,29.8
		c-2.3-2.7-0.6-3.8,0.2-5c13-17.4,17-37.5,17.7-58.7c0.5-16.8,3.9-33.3,6.5-49.8c2.5-16,7.1-31.6,6.8-48c-0.1-3.6-0.9-6.6-2.9-9.5
		c-9.1-13.4-17.4-27.4-26.6-40.8c-5-7.2-4-15.6,1.3-23c11.6-16.3,23.1-32.8,35-48.9c5.1-7,7.5-15.5,13.7-21.8c2.3-2.3,4-5.3,7-6.9
		c1,1.2,0.4,1.9,0,2.5c-17.2,23.6-32.5,48.5-50.4,71.6c-4.6,5.9-8.4,12.2-6.2,20.4c0.6,2.1,0.9,4.1,2.3,5.9
		c10.2,13.4,18.5,28.1,27.5,42.3c3.7,5.9,2.3,13.1,1.4,19.4c-3.4,22.3-8,44.4-11.3,66.7C835.2,513.2,835.2,525.1,834.4,536.8z"/>
	<path style="clip-path:url(#SVGID_00000069384518762642112570000008974251430721059235_);fill:none;" d="M97.5,225.6
		c3.9,3.1,10-1.4,12.9,4.4c0.2,0.4,1.8,0.5,2.2,0.1c5.2-5,11.4-1.4,17-2.1c4.1-0.5,3.9,1.9,2.1,4.2c-2.3,3-4.6,6.1-8.7,7
		c-0.8,0.2-1.6,0.4-2.2,0.9c-9.7,6.7-17.2,2-24.7-4.3c-2.6-2.2-2.9-4.7-2.3-7.5C94.2,226.5,96.1,226.4,97.5,225.6z"/>
	<path style="clip-path:url(#SVGID_00000069384518762642112570000008974251430721059235_);fill:none;" d="M541.7,639.2
		c-0.5-4-2.5-7.5,1.6-10c2-1.2,1.4-3.3,1.2-4.9c-1.4-14.5-2.9-29-4.3-43.5c-0.2-2.2-0.4-4.4-0.5-6.6c0-18.3,0-36.5,0-54.8
		c0-2.1-0.5-4.3,1-6.8c2.1,2.2,1.4,4.4,1.4,6.4c0.1,17.3-0.6,34.5,0.2,51.7c0.7,16.3,3,32.6,4.3,48.9c0.5,6,0.3,12,7.9,15
		c-3.4,2.1-4-1-5.3-0.4c-1.7,0.7,0.3,3.1-1.6,3.9c-2.3-1.9,1-6.8-2.5-6.7C541.7,631.5,545,636.5,541.7,639.2z"/>
	<g style="clip-path:url(#SVGID_00000069384518762642112570000008974251430721059235_);">
		<text transform="matrix(2.974000e-02 -0.9996 0.9996 2.974000e-02 1514.827 822.5934)" class="st6 st7 st12">S County Hwy 393</text>
	</g>
	<g style="clip-path:url(#SVGID_00000069384518762642112570000008974251430721059235_);">
		<text transform="matrix(4.279000e-02 -0.9991 0.9991 4.279000e-02 1497.6855 538.2195)" class="st6 st7 st11">S County Hwy 393</text>
	</g>
	<g style="clip-path:url(#SVGID_00000069384518762642112570000008974251430721059235_);">
		<text transform="matrix(4.279000e-02 -0.9991 0.9991 4.279000e-02 1504.9291 299.2129)" class="st6 st7 st11">S County Hwy 393</text>
	</g>
	<g style="clip-path:url(#SVGID_00000069384518762642112570000008974251430721059235_);">
		<text transform="matrix(1 0 0 1 1100.707 350.1428)" class="st6 st7 st11">Fairway Dr</text>
	</g>
	<g style="clip-path:url(#SVGID_00000069384518762642112570000008974251430721059235_);">
		<text transform="matrix(1 0 0 1 1142.543 239.8362)" class="st6 st7 st11">Ridge Rd</text>
	</g>
	<g style="clip-path:url(#SVGID_00000069384518762642112570000008974251430721059235_);">
		<g>
			
				<rect x="1472.7" y="190.9" transform="matrix(8.942612e-03 -1 1 8.942612e-03 1285.1085 1681.6747)" class="st6" width="36.5" height="3.3"/>
		</g>
		<g>
			<g>
				<polygon class="st6" points="1495.2,175.5 1491.2,168.4 1487,175.4 				"/>
			</g>
		</g>
	</g>
	<g style="clip-path:url(#SVGID_00000069384518762642112570000008974251430721059235_);">
		<text transform="matrix(0.6964 -0.7176 0.7176 0.6964 1215.46 401.3141)" class="st6 st7 st8">Fox Lake</text>
	</g>
	<g style="clip-path:url(#SVGID_00000069384518762642112570000008974251430721059235_);">
		<text transform="matrix(0 -1 1 0 1367.3164 338.3533)" class="st6 st7 st11">Beth Ln</text>
	</g>
	<g style="clip-path:url(#SVGID_00000069384518762642112570000008974251430721059235_);">
		<text transform="matrix(1 0 0 1 1369.4141 363.5833)" class="st6 st7 st11">Ridge Rd</text>
	</g>
	<g style="clip-path:url(#SVGID_00000069384518762642112570000008974251430721059235_);">
		<text transform="matrix(1 0 0 1 856.4585 239.8958)"><tspan x="0" y="0" class="st6 st10 st14">Golf</tspan><tspan x="2.2" y="20.3" class="st6 st10 st14">Club</tspan></text>
	</g>
	<g style="clip-path:url(#SVGID_00000069384518762642112570000008974251430721059235_);">
		<polygon class="st15" points="829.7,811.8 843.6,854.4 888.4,854.4 902.2,811.8 866,785.5 		"/>
		<g>
			<defs>
				<rect id="SVGID_00000083065794944173780500000009498804282239823781_" x="829.7" y="785.5" width="72.5" height="68.9"/>
			</defs>
			<clipPath id="SVGID_00000003785377337830508460000017462206268117105053_">
				<use xlink:href="#SVGID_00000083065794944173780500000009498804282239823781_"  style="overflow:visible;"/>
			</clipPath>
			<path style="clip-path:url(#SVGID_00000003785377337830508460000017462206268117105053_);fill:#FFFFFF;" d="M880.1,833.8h-5.9
				c1-1.6,2.1-3.3,3-4.7C878.2,830.6,879.2,832.2,880.1,833.8 M878.1,827.7c-0.2,0-0.7,0.1-1.1,0.1c-0.4,0-1-0.1-1.4-0.1v0.1
				c0.6,0.1,0.9,0.1,1.1,0.4c-1.8,2.8-4.4,6.5-6.3,9.2c0.2,0,0.5-0.1,0.8-0.1c0.3,0,0.7,0,0.8,0.1c0.5-0.8,1-1.8,1.6-2.7h7
				c0.5,0.9,1,1.8,1.4,2.7c0.6,0,1-0.1,1.3-0.1c0.4,0,0.7,0,1.3,0.1c-2.3-3.3-3.7-5.9-5.6-9.1C878.8,827.8,878.6,827.7,878.1,827.7
				 M864.1,836.9c-1.8,0-3.3-1.3-3.3-4.4c0-3,1.5-4.2,3.2-4.2c1.8,0,3.3,1.3,3.3,4.5C867.3,835.8,865.9,836.9,864.1,836.9
				 M869.6,832.5c0-3.5-2.5-5-5.4-5c-2.9,0-5.5,1.6-5.5,5.3c0,3.5,2.5,5,5.4,5C867,837.7,869.6,836.1,869.6,832.5 M848.4,827.7
				l-0.4,1.6l0.2,0.1c0.4-0.4,0.9-0.5,1.7-0.5h5l-4.4,3.2v0.2c2.7,0,4.6,0.3,4.6,2.2c0,2.2-2,2.4-3.3,2.4c-1.5,0-3.1-0.5-4.2-1.9
				l-0.1,0l0.3,1.5c0.9,0.8,2.9,1.1,4.3,1.1c1.6,0,5.2-0.2,5.2-3.1c0-2.6-2.6-2.8-4.7-2.8l4.9-4v-0.1H848.4z"/>
			<path style="clip-path:url(#SVGID_00000003785377337830508460000017462206268117105053_);fill:#FFFFFF;" d="M881,821.3
				c-0.1-0.5-0.2-1.2-0.2-2.4c0-1.5,1.2-3.8,2.8-5.1c0.6-0.4,1.3-0.7,1.9-0.7c0.2,0,0.5,0,0.7,0.1l0.1-0.1c-0.5-0.2-1-0.3-1.5-0.3
				c-2,0-3.7,1.8-4.4,4.2c-0.6-2.7-2-4.2-4.4-4.2c-0.7,0-1.5,0.1-2.3,0.4l0.1,0.1c0.3-0.1,0.6-0.1,0.9-0.1c2.6,0,4.3,3.5,4.3,5.7
				c0,1.1-0.1,1.8-0.2,2.3c0.4,0,0.8-0.1,1.1-0.1C880.3,821.2,880.6,821.2,881,821.3 M861.8,821.5c1.1-2.1,2.3-4.3,3.4-6.4
				c1.2,2.1,2.4,4.2,3.6,6.4h0.1c1.7-3.1,3.1-5.9,4.7-8.7c-0.2,0-0.4,0.1-0.7,0.1c-0.2,0-0.4,0-0.7-0.1c-1.1,2.4-2,4-2.9,6
				c-1.1-1.9-2.3-4-3.5-6.2h-0.2c-1.2,2.3-2.4,4.4-3.5,6.2c-0.9-1.9-2-4-2.9-6c-0.3,0-0.8,0.1-1.2,0.1c-0.4,0-0.9,0-1.2-0.1
				c1.6,2.9,3.1,5.8,4.6,8.7H861.8z M856,821.3c-0.1-0.8-0.2-2-0.2-4.3c0-2.8,0.1-3.4,0.2-4.2c-0.4,0-0.8,0.1-1.1,0.1
				c-0.4,0-0.8,0-1.1-0.1c0.1,0.8,0.2,1.3,0.2,3.7h-6.5c0-2.4,0.1-2.9,0.2-3.7c-0.4,0-0.8,0.1-1.1,0.1c-0.4,0-0.8,0-1.1-0.1
				c0.1,0.8,0.2,1.3,0.2,4.2c0,2.3-0.1,3.5-0.2,4.3c0.4,0,0.8-0.1,1.1-0.1c0.4,0,0.8,0,1.1,0.1c-0.1-0.8-0.2-1.9-0.2-3.9h6.5
				c0,2-0.1,3.1-0.2,3.9c0.4,0,0.8-0.1,1.1-0.1C855.2,821.2,855.6,821.2,856,821.3"/>
		</g>
	</g>
	<g style="clip-path:url(#SVGID_00000069384518762642112570000008974251430721059235_);">
		<g>
			<defs>
				<rect id="SVGID_00000133516836011443244270000012335971907624726182_" x="935.2" y="394.6" width="246" height="103.7"/>
			</defs>
			<clipPath id="SVGID_00000126325949901780995510000015529406393671194034_">
				<use xlink:href="#SVGID_00000133516836011443244270000012335971907624726182_"  style="overflow:visible;"/>
			</clipPath>
			<path style="clip-path:url(#SVGID_00000126325949901780995510000015529406393671194034_);fill:#207E80;" d="M1058.2,424.4
				c-6.3,0-11.3-5.1-11.3-11.3c0-6.3,5.1-11.3,11.3-11.3c6.3,0,11.3,5.1,11.3,11.3C1069.5,419.3,1064.4,424.4,1058.2,424.4
				 M1058.2,394.6c-10.3,0-18.6,8.3-18.6,18.6c0,14,18.6,30.4,18.6,30.4s18.6-16,18.6-30.4C1076.8,402.9,1068.4,394.6,1058.2,394.6"
				/>
			<path style="clip-path:url(#SVGID_00000126325949901780995510000015529406393671194034_);fill:#207E80;" d="M988.4,467.8
				c0.5,3.3,0.5,6.7,0.5,10c0,6.4-4.4,8.9-8.8,8.9c-4.1,0-8.1-2.6-8.1-8.9v-1.2c0-2.9,0-5.9,0.4-8.8c-0.7,0.1-1.8,0.2-2.9,0.2
				c-1.1,0-2.2-0.1-2.9-0.2c0.5,3.3,0.5,6.7,0.5,10c0,8.5,6,11.2,12.1,11.2c6.5,0,12.3-3.5,12.3-11.2c0-3.3,0-6.7,0.4-10
				c-0.5,0.1-1.1,0.2-1.8,0.2S988.8,467.9,988.4,467.8 M963.2,464.8c-0.4,0.1-1.5,0.1-2.6,0.1h-21.9c-1,0-1.8,0-2.6-0.1h-0.4
				l-0.7,3.7l0.4,0.1c0.9-1.2,1.8-1.6,3.1-1.6h8.4c0.1,1.7,0.2,4.1,0.2,9.4c0,6.4-0.3,9.7-0.4,11.9c0.9-0.1,2-0.1,2.9-0.1
				s2,0.1,2.9,0.1c-0.2-2.3-0.4-5.5-0.4-11.9c0-5.3,0.1-7.7,0.2-9.4h8.4c1.3,0,2.3,0.4,3.1,1.6l0.4-0.1l-0.7-3.7H963.2z M1125.6,468
				c-0.9,0-1.8-0.1-2.7-0.1c0.2,2,0.4,3.3,0.4,10.2c0,5.6-0.3,8.4-0.4,10.4c0.9-0.1,1.8-0.1,2.7-0.1c0.9,0,1.9,0.1,2.7,0.1
				c-0.2-2-0.4-4.8-0.4-10.4c0-6.9,0.2-8.2,0.4-10.2C1127.4,467.9,1126.5,468,1125.6,468 M1180.9,484.2c-1.8,1.8-3.2,2.1-6,2.1
				h-10.9c0-2.4-0.2-4.8-0.2-7.3h7.2c1.3,0,4.3,0.1,5.4,0.4c-0.1-0.6-0.1-1-0.1-1.5c0-0.5,0-0.9,0.1-1.5c-1.1,0.3-4.1,0.4-5.4,0.4
				h-7.2c0-2.2,0.1-4.4,0.2-6.7h12c1.6,0,3.2,0.2,3.8,1.2l0.3-0.1l-0.6-2.9c-0.1-0.3-0.2-0.4-0.5-0.4c-7.7,0-10.6,0.1-12.9,0.1
				c-2.3,0-5.1-0.1-7.4-0.1c0.2,2,0.4,3.3,0.4,10.2c0,5.6-0.3,8.4-0.4,10.4c2.3-0.1,5-0.1,7.3-0.1c2.5,0,5.4,0.1,12.7,0.1
				c0.6,0,0.7,0,0.9-0.5l1.7-3.6L1180.9,484.2z M1137,472.5c0-2.6,4.1-3.3,7.1-3.3c3.3,0,7,0.7,8.9,2.9l0.4-0.1l-0.7-3.1
				c-1.3-0.7-4.3-1.7-8.4-1.7c-4.3,0-11.4,0.4-11.4,6.3c0,9.2,17.6,3.8,17.6,9.7c0,3-3.8,3.9-7.7,3.9c-4.9,0-9.2-1.8-10.4-4
				l-0.4,0.1l1,4c2.6,1.1,5.1,1.9,9.9,1.9c4,0,11.9-0.6,11.9-7C1154.6,472.7,1137,477.7,1137,472.5 M1113.2,478.2
				c0-5.7-4.2-9.1-10.2-9.1c-5.6,0-10.2,3-10.2,9c0,5.7,4.2,9.1,10.2,9.1C1108.6,487.2,1113.2,484.2,1113.2,478.2 M1118.8,477.8
				c0,6.5-6.5,11.3-16,11.3c-8.5,0-15.6-3.9-15.6-10.7c0-6.5,6.5-11.2,15.9-11.2C1111.7,467.2,1118.8,471,1118.8,477.8 M1046.6,488
				c5.2-1.9,8.3-5.7,8.3-10.4c0-7-7.3-11-16.1-11c-0.6,0-1.1,0-1.6,0.1l-0.1,2c0.5-0.1,1-0.1,1.5-0.1c6.2,0,10.5,3.6,10.5,9.5
				c0,5.5-3.7,8.6-8.6,9.2c-2.7,0.5-4.4,1.2-5.2,1.5c-0.4,0.2-0.6,0.3-0.6,0.3c-0.5,0.2-1,0.5-1.4,0.9c-1.8,1.2-3.5,2.9-5.1,5.3
				c18.5-19,35.2,16.7,52.1-3.5C1071,498.4,1058.2,490.1,1046.6,488 M1080.4,467.8c0.5,3.3,0.5,6.7,0.5,10c0,6.4-4.4,8.9-8.8,8.9
				c-4.1,0-8.1-2.6-8.1-8.9v-1.2c0-2.9,0-5.9,0.4-8.8c-0.7,0.1-1.8,0.2-2.9,0.2s-2.2-0.1-2.9-0.2c0.5,3.3,0.5,6.7,0.5,10
				c0,8.5,6,11.2,12.1,11.2c6.5,0,12.3-3.5,12.3-11.2c0-3.3,0-6.7,0.4-10c-0.5,0.1-1.1,0.2-1.8,0.2
				C1081.4,468,1080.8,467.9,1080.4,467.8 M1014.4,474.1c0-2.4-1.2-4.1-6.4-4.1h-6.7c-0.1,1.4-0.2,3.2-0.2,8.1h6.8
				C1013.2,478.2,1014.4,476.6,1014.4,474.1 M1023.6,487.1l0.2,0.4c-1.2,0.8-2.8,1.4-5.3,1.4c-9,0-6-8.5-12.1-8.5h-5.3
				c0,4,0.2,6.3,0.4,8c-0.9-0.1-1.8-0.1-2.7-0.1c-0.9,0-1.8,0.1-2.7,0.1c0.2-2,0.4-4.8,0.4-10.4c0-6.9-0.2-8.2-0.4-10.2
				c1.3,0.1,2.9,0.1,4.2,0.1c1.3,0,6-0.1,7.6-0.1c8.4,0,11.6,1.5,11.6,6.3c0,3.5-1.7,5.2-5.9,5.9c0.7,0.6,1.2,1.3,1.7,2.1
				c1.7,2.7,2.6,5.8,5.4,5.8C1021.8,487.9,1022.6,487.7,1023.6,487.1"/>
		</g>
		<polygon class="st18" points="1030.5,472.6 1024.2,465.2 1024.6,464.8 1030.6,472.5 1030.6,472.6 		"/>
		<g>
			<defs>
				<rect id="SVGID_00000091713145593310731190000017019512670064653728_" x="935.2" y="394.6" width="246" height="103.7"/>
			</defs>
			<clipPath id="SVGID_00000178193308094317947350000011906582281994839721_">
				<use xlink:href="#SVGID_00000091713145593310731190000017019512670064653728_"  style="overflow:visible;"/>
			</clipPath>
			<path style="clip-path:url(#SVGID_00000178193308094317947350000011906582281994839721_);fill:#207E80;" d="M1024.7,464.8
				L1024.7,464.8l-0.5,0.4l-0.1,0.1l0.1,0.1l6.3,7.3l0.1,0.1l0.1-0.1l0-0.1l0-0.1L1024.7,464.8L1024.7,464.8z M1024.6,464.9l5.9,7.6
				c0,0,0,0,0,0l-6.3-7.3L1024.6,464.9z"/>
		</g>
		<polygon class="st18" points="1029.4,474.5 1020.9,469.6 1021.2,469 1029.5,474.4 1029.4,474.5 		"/>
		<g>
			<defs>
				<rect id="SVGID_00000011746848628147813890000000258411983565428633_" x="935.2" y="394.6" width="246" height="103.7"/>
			</defs>
			<clipPath id="SVGID_00000166634187170109548250000002111541435521835148_">
				<use xlink:href="#SVGID_00000011746848628147813890000000258411983565428633_"  style="overflow:visible;"/>
			</clipPath>
			<path style="clip-path:url(#SVGID_00000166634187170109548250000002111541435521835148_);fill:#207E80;" d="M1021.2,469
				L1021.2,469l-0.3,0.5l0,0.1l0.1,0l8.4,4.9l0.1,0.1l0-0.1l0-0.1l-0.1-0.1L1021.2,469L1021.2,469z M1021.3,469.1l8.2,5.3
				c0,0,0,0,0,0l-8.4-4.9L1021.3,469.1z"/>
		</g>
		<polygon class="st18" points="1034.8,458.9 1035.7,469 1035.7,469 1035.8,469 1035.4,458.9 		"/>
		<path class="st18" d="M1034.8,459l0.5,0l0.4,10l0,0L1034.8,459z M1035.4,458.9l-0.5,0l-0.1,0l0,0.1l0.9,10l0,0.1l0.1,0l0.1,0
			l0-0.1L1035.4,458.9L1035.4,458.9L1035.4,458.9z"/>
		<polygon class="st18" points="1032.5,470.6 1029,460.9 1029.6,460.7 1032.6,470.6 1032.5,470.6 		"/>
		<g>
			<defs>
				<rect id="SVGID_00000168796061811859259350000003534929310869175450_" x="935.2" y="394.6" width="246" height="103.7"/>
			</defs>
			<clipPath id="SVGID_00000111149099953865420390000006158565451904297099_">
				<use xlink:href="#SVGID_00000168796061811859259350000003534929310869175450_"  style="overflow:visible;"/>
			</clipPath>
			<path style="clip-path:url(#SVGID_00000111149099953865420390000006158565451904297099_);fill:#207E80;" d="M1029.6,460.6
				L1029.6,460.6l-0.6,0.2l-0.1,0l0,0.1l3.5,9.7l0,0.1l0.1-0.1l0.1,0l0-0.1L1029.6,460.6L1029.6,460.6z M1029.5,460.7l3,9.8
				c0,0,0,0,0,0l-3.5-9.7L1029.5,460.7z"/>
			<path style="clip-path:url(#SVGID_00000111149099953865420390000006158565451904297099_);fill:#207E80;" d="M1033.8,469.3
				l-0.7-6.8c-0.1,0-0.2,0.1-0.3,0.1L1033.8,469.3C1033.8,469.3,1033.8,469.3,1033.8,469.3"/>
			
				<path style="clip-path:url(#SVGID_00000111149099953865420390000006158565451904297099_);fill:none;stroke:#207E80;stroke-width:0.4383;stroke-miterlimit:10;" d="
				M1033.8,469.3l-0.7-6.8c-0.1,0-0.2,0.1-0.3,0.1L1033.8,469.3C1033.8,469.3,1033.8,469.3,1033.8,469.3z"/>
			<path style="clip-path:url(#SVGID_00000111149099953865420390000006158565451904297099_);fill:#207E80;" d="M1023,477
				c0,0.1,0.1,0.2,0.1,0.3l5.4,0.5c0,0,0,0,0,0L1023,477z"/>
			
				<path style="clip-path:url(#SVGID_00000111149099953865420390000006158565451904297099_);fill:none;stroke:#207E80;stroke-width:0.4383;stroke-miterlimit:10;" d="
				M1023,477c0,0.1,0.1,0.2,0.1,0.3l5.4,0.5c0,0,0,0,0,0L1023,477z"/>
			<path style="clip-path:url(#SVGID_00000111149099953865420390000006158565451904297099_);fill:#207E80;" d="M1031.1,471.2
				l-3.1-6.4c-0.1,0.1-0.2,0.2-0.4,0.3L1031.1,471.2C1031.1,471.2,1031.1,471.2,1031.1,471.2"/>
			
				<path style="clip-path:url(#SVGID_00000111149099953865420390000006158565451904297099_);fill:none;stroke:#207E80;stroke-width:0.4383;stroke-miterlimit:10;" d="
				M1031.1,471.2l-3.1-6.4c-0.1,0.1-0.2,0.2-0.4,0.3L1031.1,471.2C1031.1,471.2,1031.1,471.2,1031.1,471.2z"/>
			<path style="clip-path:url(#SVGID_00000111149099953865420390000006158565451904297099_);fill:#207E80;" d="M1033.7,486.8
				c0.1,0.1,0.2,0.1,0.4,0.2l0.2-0.9c0,0-0.1-0.1-0.1-0.1L1033.7,486.8z"/>
			
				<path style="clip-path:url(#SVGID_00000111149099953865420390000006158565451904297099_);fill:none;stroke:#207E80;stroke-width:0.4383;stroke-miterlimit:10;" d="
				M1033.7,486.8c0.1,0.1,0.2,0.1,0.4,0.2l0.2-0.9c0,0-0.1-0.1-0.1-0.1L1033.7,486.8z"/>
			<path style="clip-path:url(#SVGID_00000111149099953865420390000006158565451904297099_);fill:#207E80;" d="M1024.2,469.1l5.5,4
				c0,0,0,0,0,0l-5.2-4.4C1024.4,468.8,1024.3,469,1024.2,469.1"/>
			
				<path style="clip-path:url(#SVGID_00000111149099953865420390000006158565451904297099_);fill:none;stroke:#207E80;stroke-width:0.4383;stroke-miterlimit:10;" d="
				M1024.2,469.1l5.5,4c0,0,0,0,0,0l-5.2-4.4C1024.4,468.8,1024.3,469,1024.2,469.1z"/>
			<path style="clip-path:url(#SVGID_00000111149099953865420390000006158565451904297099_);fill:#207E80;" d="M1028.8,475.2
				l-5.9-2.5c0,0.1-0.1,0.3-0.1,0.4L1028.8,475.2C1028.7,475.2,1028.8,475.2,1028.8,475.2"/>
			
				<path style="clip-path:url(#SVGID_00000111149099953865420390000006158565451904297099_);fill:none;stroke:#207E80;stroke-width:0.4383;stroke-miterlimit:10;" d="
				M1028.8,475.2l-5.9-2.5c0,0.1-0.1,0.3-0.1,0.4L1028.8,475.2C1028.7,475.2,1028.8,475.2,1028.8,475.2z"/>
			<path style="clip-path:url(#SVGID_00000111149099953865420390000006158565451904297099_);fill:#207E80;" d="M1028.5,479.2
				C1028.5,479.2,1028.5,479.2,1028.5,479.2l-4.7-0.1c0.1,0.1,0.1,0.1,0.2,0.2L1028.5,479.2z"/>
			
				<path style="clip-path:url(#SVGID_00000111149099953865420390000006158565451904297099_);fill:none;stroke:#207E80;stroke-width:0.4383;stroke-miterlimit:10;" d="
				M1028.5,479.2C1028.5,479.2,1028.5,479.2,1028.5,479.2l-4.7-0.1c0.1,0.1,0.1,0.1,0.2,0.2L1028.5,479.2z"/>
			<path style="clip-path:url(#SVGID_00000111149099953865420390000006158565451904297099_);fill:#207E80;" d="M1031.3,484.8
				C1031.3,484.8,1031.3,484.8,1031.3,484.8l-1.3,0.5c0.1,0,0.2,0.1,0.3,0.1L1031.3,484.8z"/>
			
				<path style="clip-path:url(#SVGID_00000111149099953865420390000006158565451904297099_);fill:none;stroke:#207E80;stroke-width:0.4383;stroke-miterlimit:10;" d="
				M1031.3,484.8C1031.3,484.8,1031.3,484.8,1031.3,484.8l-1.3,0.5c0.1,0,0.2,0.1,0.3,0.1L1031.3,484.8z"/>
			<path style="clip-path:url(#SVGID_00000111149099953865420390000006158565451904297099_);fill:#207E80;" d="M1032.9,485.6
				C1032.9,485.5,1032.9,485.5,1032.9,485.6l-1.2,0.6c0.1,0.1,0.3,0.1,0.4,0.2L1032.9,485.6z"/>
			
				<path style="clip-path:url(#SVGID_00000111149099953865420390000006158565451904297099_);fill:none;stroke:#207E80;stroke-width:0.4383;stroke-miterlimit:10;" d="
				M1032.9,485.6C1032.9,485.5,1032.9,485.5,1032.9,485.6l-1.2,0.6c0.1,0.1,0.3,0.1,0.4,0.2L1032.9,485.6z"/>
			<path style="clip-path:url(#SVGID_00000111149099953865420390000006158565451904297099_);fill:#207E80;" d="M1030.2,483.7
				C1030.2,483.6,1030.2,483.6,1030.2,483.7l-2,0.5c0.1,0.1,0.2,0.1,0.3,0.2L1030.2,483.7z"/>
			
				<path style="clip-path:url(#SVGID_00000111149099953865420390000006158565451904297099_);fill:none;stroke:#207E80;stroke-width:0.4383;stroke-miterlimit:10;" d="
				M1030.2,483.7C1030.2,483.6,1030.2,483.6,1030.2,483.7l-2,0.5c0.1,0.1,0.2,0.1,0.3,0.2L1030.2,483.7z"/>
			<path style="clip-path:url(#SVGID_00000111149099953865420390000006158565451904297099_);fill:#207E80;" d="M1028.5,476.5
				C1028.5,476.5,1028.5,476.5,1028.5,476.5l-5.8-1.7c0,0,0,0,0,0c0,0.1,0,0.2,0,0.4L1028.5,476.5z"/>
			
				<path style="clip-path:url(#SVGID_00000111149099953865420390000006158565451904297099_);fill:none;stroke:#207E80;stroke-width:0.4383;stroke-miterlimit:10;" d="
				M1028.5,476.5C1028.5,476.5,1028.5,476.5,1028.5,476.5l-5.8-1.7c0,0,0,0,0,0c0,0.1,0,0.2,0,0.4L1028.5,476.5z"/>
			<path style="clip-path:url(#SVGID_00000111149099953865420390000006158565451904297099_);fill:#207E80;" d="M1026.6,482.8
				l2.7-0.5c0,0,0,0,0,0l-3,0.3C1026.4,482.7,1026.5,482.8,1026.6,482.8"/>
			
				<path style="clip-path:url(#SVGID_00000111149099953865420390000006158565451904297099_);fill:none;stroke:#207E80;stroke-width:0.4383;stroke-miterlimit:10;" d="
				M1026.6,482.8l2.7-0.5c0,0,0,0,0,0l-3,0.3C1026.4,482.7,1026.5,482.8,1026.6,482.8z"/>
			<path style="clip-path:url(#SVGID_00000111149099953865420390000006158565451904297099_);fill:#207E80;" d="M1028.6,480.9
				l-3.6,0.1c0.1,0,0.1,0.1,0.2,0.1L1028.6,480.9C1028.7,480.9,1028.6,480.9,1028.6,480.9"/>
			
				<path style="clip-path:url(#SVGID_00000111149099953865420390000006158565451904297099_);fill:none;stroke:#207E80;stroke-width:0.4383;stroke-miterlimit:10;" d="
				M1028.6,480.9l-3.6,0.1c0.1,0,0.1,0.1,0.2,0.1L1028.6,480.9C1028.7,480.9,1028.6,480.9,1028.6,480.9z"/>
		</g>
	</g>
	<g style="clip-path:url(#SVGID_00000069384518762642112570000008974251430721059235_);">
		<path class="st18" d="M230.6,593c-7.1,0-12.8,5.7-12.8,12.8c0,9.7,12.8,20.9,12.8,20.9s12.8-11,12.8-20.9
			C243.4,598.8,237.7,593,230.6,593z M230.6,611.1c-3.3,0-5.9-2.6-5.9-5.9c0-3.3,2.6-5.9,5.9-5.9c3.3,0,5.9,2.6,5.9,5.9
			C236.5,608.4,233.9,611.1,230.6,611.1z"/>
	</g>
	<g style="clip-path:url(#SVGID_00000069384518762642112570000008974251430721059235_);">
		<text transform="matrix(1 0 0 1 246.2759 611.6809)"><tspan x="0" y="0" class="st6 st7 st8">Stinky&apos;s </tspan><tspan x="0" y="17.9" class="st6 st7 st8">Fish Camp</tspan></text>
	</g>
	<path style="opacity:0.25;clip-path:url(#SVGID_00000069384518762642112570000008974251430721059235_);fill:#96C4CE;" d="
		M1833.3,1288.2l-500.1-182.9c0,0-36-26.1-122.9-39.2l-127.2-37c0,0-233.1-113.2-404.8-135l-226.8-89.3l-61.5-26.1
		c0,0-146.2-8.7-258.5-89.3c0,0-170.8-6.5-226.3-65.3v371.6v292.6v864.2h1921.3v-847.7l0,0L1833.3,1288.2z"/>
</g>
</svg>
