<?xml version="1.0" encoding="utf-8"?>
<!-- Generator: Adobe Illustrator 27.1.1, SVG Export Plug-In . SVG Version: 6.00 Build 0)  -->
<svg version="1.1" id="Layer_1" xmlns="http://www.w3.org/2000/svg" xmlns:xlink="http://www.w3.org/1999/xlink" x="0px" y="0px"
	 viewBox="0 0 165.3 165.8" style="enable-background:new 0 0 165.3 165.8;" xml:space="preserve">
<style type="text/css">
	
		.st0{clip-path:url(#SVGID_00000062155156392885224700000004180028142060015491_);fill:none;stroke:#CACCCD;stroke-width:0.272;stroke-miterlimit:10;}
	.st1{opacity:0.25;clip-path:url(#SVGID_00000062155156392885224700000004180028142060015491_);}
	.st2{clip-path:url(#SVGID_00000090293481838463772470000003632505521120607887_);}
	.st3{clip-path:url(#SVGID_00000034806938366575347780000010509585070038103998_);fill:#CACCCD;}
	.st4{opacity:0.5;clip-path:url(#SVGID_00000062155156392885224700000004180028142060015491_);}
	.st5{clip-path:url(#SVGID_00000114752449442325383100000016315965740345564830_);fill:#ACCCD0;}
	.st6{clip-path:url(#SVGID_00000062155156392885224700000004180028142060015491_);fill:#167375;}
	.st7{clip-path:url(#SVGID_00000002357422319033553290000004561156090935346860_);fill:#167375;}
	.st8{clip-path:url(#SVGID_00000002357422319033553290000004561156090935346860_);fill:#D1DAD8;}
	.st9{clip-path:url(#SVGID_00000002357422319033553290000004561156090935346860_);}
	.st10{fill:#167375;}
	.st11{font-family:'Arboria-Book';}
	.st12{font-size:4.0637px;}
	.st13{font-size:6.0954px;}
	.st14{font-family:'AvianoFlareMedium';}
	.st15{font-size:7.1114px;}
	.st16{clip-path:url(#SVGID_00000010289806859641954530000016550695561575073169_);fill:#FFFFFF;}
	.st17{clip-path:url(#SVGID_00000134248417429310182880000011312421891234637961_);fill:#207E80;}
	.st18{fill:#207E80;}
	.st19{clip-path:url(#SVGID_00000136400571307439233220000012637813015017326526_);fill:#207E80;}
	.st20{clip-path:url(#SVGID_00000081628370218874420010000000883066002180832142_);fill:#207E80;}
	.st21{clip-path:url(#SVGID_00000165194120612421422820000001488605509841878410_);fill:#207E80;}
	
		.st22{clip-path:url(#SVGID_00000165194120612421422820000001488605509841878410_);fill:none;stroke:#207E80;stroke-width:0.14;stroke-miterlimit:10;}
	.st23{clip-path:url(#SVGID_00000106147298898594033780000004371255941761723557_);fill:#207E80;}
	.st24{opacity:0.25;clip-path:url(#SVGID_00000104705155075268155540000009090035063313898373_);}
	.st25{clip-path:url(#SVGID_00000043419848392487261650000009526656491647880855_);}
	.st26{clip-path:url(#SVGID_00000132065156958517907210000006380310776314478783_);fill:#96C4CE;}
	.st27{clip-path:url(#SVGID_00000020365730108210556780000015116478753119663762_);}
	.st28{clip-path:url(#SVGID_00000071561370154302346310000014870647421871984005_);fill:#167375;}
	.st29{fill:none;stroke:#227E80;stroke-width:1.984;}
</style>
<g>
	<g>
		<defs>
			<polygon id="SVGID_1_" points="3,2.6 1.1,53.8 3.5,90.7 4.3,162.1 41.4,160.8 163.1,164.6 163.1,2.6 			"/>
		</defs>
		<clipPath id="SVGID_00000068651014878362263520000002578280761721804730_">
			<use xlink:href="#SVGID_1_"  style="overflow:visible;"/>
		</clipPath>
		
			<path style="clip-path:url(#SVGID_00000068651014878362263520000002578280761721804730_);fill:none;stroke:#CACCCD;stroke-width:0.272;stroke-miterlimit:10;" d="
			M570.2,199.6l-55-1.4v19.3h27.5c0,0,3.1,2,0,3.3h-27.5l-0.9,18.2h29c0,0,4.7,2.4,0,3.2l-29-0.6v19h25.4l8.6,1.5
			c0,0,4.5,2.4-0.3,2.6l-8.9-1.2l-25.4-0.5v19h56.5v3.3l-57.3-0.8v22.1h57.3v4.1l-57.3-1.1v50.9"/>
		
			<path style="clip-path:url(#SVGID_00000068651014878362263520000002578280761721804730_);fill:none;stroke:#CACCCD;stroke-width:0.272;stroke-miterlimit:10;" d="
			M-179.1,185.6l153.2,47.6v-64.4c0,0-13.7-15.1-18.8-36.6l-26-19.1l-11.6-6.3l-35.7-2.3l-0.8,25.6l16.3-6.9l4.5-0.2
			c0,0,3.3-1.1,3.2,0.6c0,0,0.9,2.3-2.2,1.7l-4.7-0.1l-17.6,8.1c0,0,4.7,19.1-7.8,33.4l-6.5,4.8l-0.3,3.6l-2.7,7.5
			c0,0,5.1,3.6,2.6,4.4c0,0-3.6,0.6-5.3-2.9c0,0,0.3-6,3.8-10.5l-0.2-2.6l-41.8-2.9L-179.1,185.6z"/>
		
			<path style="clip-path:url(#SVGID_00000068651014878362263520000002578280761721804730_);fill:none;stroke:#CACCCD;stroke-width:0.272;stroke-miterlimit:10;" d="
			M-177.3,165.1c0,0,13.4,2.9,42.9,3l3.3-3l-9.3-6l-13.1-6.8l-22.1-6L-177.3,165.1z"/>
		
			<path style="clip-path:url(#SVGID_00000068651014878362263520000002578280761721804730_);fill:none;stroke:#CACCCD;stroke-width:0.272;stroke-miterlimit:10;" d="
			M-129.8,163.2l-24.5-13.5l-21.3-6l15.4-48.3c0,0,9.2-17.8,17-17.6h5.3l-0.8,26.8c0,0-0.3,3.6,2.4,2.3l0.6-29h14.3V138
			C-121.3,138-121.2,160-129.8,163.2z"/>
		
			<path style="clip-path:url(#SVGID_00000068651014878362263520000002578280761721804730_);fill:none;stroke:#CACCCD;stroke-width:0.272;stroke-miterlimit:10;" d="
			M-118,77.7v23.6h19.4c0,0,6.2,2.4,17.9,3.2l12.5,6.6l22,17c0,0-9.5-27.2-27.1-39.9c0,0-12.5-9.6-29.2-10.5H-118z"/>
		
			<path style="clip-path:url(#SVGID_00000068651014878362263520000002578280761721804730_);fill:none;stroke:#CACCCD;stroke-width:0.272;stroke-miterlimit:10;" d="
			M-118,73.5l-0.8-24.8c0,0,31.3-0.6,45.8,6.6l6.2-1.4c0,0,2.3,8.1,5.6,8.6l-11.9,22.1l-15.5-8.1C-88.7,76.5-97.1,73.8-118,73.5z"/>
		
			<path style="clip-path:url(#SVGID_00000068651014878362263520000002578280761721804730_);fill:none;stroke:#CACCCD;stroke-width:0.272;stroke-miterlimit:10;" d="
			M-71.1,86.2l12.3-21c0,0,25,14.4,31.9,40.8l0.9,35.5v22.4c0,0-6.6-7.2-9.8-16.9l-5.9-16C-41.6,131.1-55.7,92.1-71.1,86.2z"/>
		
			<path style="clip-path:url(#SVGID_00000068651014878362263520000002578280761721804730_);fill:none;stroke:#CACCCD;stroke-width:0.272;stroke-miterlimit:10;" d="
			M-1.5,240.4v-12l-17.2-6.4h-3.8v-50.9l7.8,4.9l10.2,3l28.7-0.3l-0.6,24.7c0,0-0.3,3.6,1.9,1.4l1.2-26l14.1,0.9v13
			c0,0-0.3,3.3,2.3,1V179l25.2,0.5c0,0,4.9,0.7,4,7.8c-0.1,0.8-1,10.5-1,10.5l-7.6-0.1l-0.9-7c0,0-1.8-4.7-6.7-1.5l-0.8,2.1l0.2,5.2
			l3.8,6l0.3,7.8L36.3,210l-2.7,2.7l0.1,5.2l3.2,2.5l21.8,0.5l1.6,0.7l0.9-0.7l0.5-3.2L62,202c0,0-0.2-2,3-1.9l5.8,0.3l-0.2,44.1
			c0,0,0.8,17,6.4,19.8L-1.5,240.4z"/>
		
			<path style="clip-path:url(#SVGID_00000068651014878362263520000002578280761721804730_);fill:none;stroke:#CACCCD;stroke-width:0.272;stroke-miterlimit:10;" d="
			M60.5,196.7v-5.6c0,0-1.5-1.4-2.8,0v5.1l2.5,3.7l1.3-1.2L60.5,196.7z"/>
		
			<path style="clip-path:url(#SVGID_00000068651014878362263520000002578280761721804730_);fill:none;stroke:#CACCCD;stroke-width:0.272;stroke-miterlimit:10;" d="
			M-12.1,159.3v-7l1.6-1.4h7.4l4.9,2.4l-10.6,8c0,0-1.6,1.2-2.4-0.4L-12.1,159.3z"/>
		
			<path style="clip-path:url(#SVGID_00000068651014878362263520000002578280761721804730_);fill:none;stroke:#CACCCD;stroke-width:0.272;stroke-miterlimit:10;" d="
			M140.5,240.4l1.7-44.1l2.1-1.9h24.7l5.6,3.7l-2.4,27.4c0,0-1.5,14.3-13.7,14.9l-18.2,1.1V240.4z"/>
		
			<path style="clip-path:url(#SVGID_00000068651014878362263520000002578280761721804730_);fill:none;stroke:#CACCCD;stroke-width:0.272;stroke-miterlimit:10;" d="
			M230.5,224.1c0,0-7.1,0.5-9.5,2c0,0-10.2,4.9-18.1,1.6l0.4-30c0,0,0.1-3.8,5.2-3.3l23,0.5c0,0,4.5-0.9,3.8,4.2l-1.5,21.9
			C233.6,221,233.8,223.8,230.5,224.1z"/>
		
			<path style="clip-path:url(#SVGID_00000068651014878362263520000002578280761721804730_);fill:none;stroke:#CACCCD;stroke-width:0.272;stroke-miterlimit:10;" d="
			M211.7,315l9.2-15.2c0,0,14.4,9.9,14.2,10.2c-0.2,0.3-7.7,11.1-7.7,11.1l-16.3-6.1"/>
		
			<path style="clip-path:url(#SVGID_00000068651014878362263520000002578280761721804730_);fill:none;stroke:#CACCCD;stroke-width:0.272;stroke-miterlimit:10;" d="
			M231,321.6l7-9.9l5,2.8v2.5l8.6,0.7l3.5-5.9l-0.9-2l0.1-1.4l-1.9-1.1l-2.4-5.4c0,0,5.2-3.5,11-2.7l-1.1,28l-10.5-0.5L231,321.6z"
			/>
		
			<path style="clip-path:url(#SVGID_00000068651014878362263520000002578280761721804730_);fill:none;stroke:#CACCCD;stroke-width:0.272;stroke-miterlimit:10;" d="
			M249.1,299l-9.1-18.8c0,0,7.6-3.6,21.7-2.2l-0.7,18.4C261,296.4,250.3,297.3,249.1,299z"/>
		
			<path style="clip-path:url(#SVGID_00000068651014878362263520000002578280761721804730_);fill:none;stroke:#CACCCD;stroke-width:0.272;stroke-miterlimit:10;" d="
			M221.2,294.1c0.2-0.2,3.9-6.4,3.9-6.4"/>
		
			<path style="clip-path:url(#SVGID_00000068651014878362263520000002578280761721804730_);fill:none;stroke:#CACCCD;stroke-width:0.272;stroke-miterlimit:10;" d="
			M264.3,327.1l1.8-46.5l20.7,1.6c0.5,0,1,0.5,0.9,1.1l-2.3,45L264.3,327.1z"/>
		
			<path style="clip-path:url(#SVGID_00000068651014878362263520000002578280761721804730_);fill:none;stroke:#CACCCD;stroke-width:0.272;stroke-miterlimit:10;" d="
			M406.9,84.4h-30.4l-1.2-3l3.3-4.2l1.9-55.7h24.6l-4.5,14.2v21.2c0,0-3,14.7,3.9,22.9C404.5,79.9,407,81.6,406.9,84.4z"/>
		
			<path style="clip-path:url(#SVGID_00000068651014878362263520000002578280761721804730_);fill:none;stroke:#CACCCD;stroke-width:0.272;stroke-miterlimit:10;" d="
			M404,39.9l3.7-18.4c0,0,20.7-3.3,27.2,10.2c0,0,4.4,8.1,0,10.5l-2.9,0.8l-8.9-2.3L404,39.9z"/>
		
			<path style="clip-path:url(#SVGID_00000068651014878362263520000002578280761721804730_);fill:none;stroke:#CACCCD;stroke-width:0.272;stroke-miterlimit:10;" d="
			M406.9,87.2h-32.7v7.2l12.1,22.4l3.5,3.5h7.2l4.9-4.5c0,0,2.9-16.7,6.5-23L406.9,87.2z"/>
		
			<path style="clip-path:url(#SVGID_00000068651014878362263520000002578280761721804730_);fill:none;stroke:#CACCCD;stroke-width:0.272;stroke-miterlimit:10;" d="
			M116.8,31.3H93.4l0.7-34c0,0-1.1-3.2,5-2.6c6.2,0.6,70.6-0.1,70.6-0.1v31.2l1.2,6.2l-51.8-0.8l0.3-15.5c0,0-1.7-1.7-2.1,0.2
			L116.8,31.3z"/>
		
			<path style="clip-path:url(#SVGID_00000068651014878362263520000002578280761721804730_);fill:none;stroke:#CACCCD;stroke-width:0.272;stroke-miterlimit:10;" d="
			M261.3,32.1c0,0-3.4,0.9-4.1-1.2C257.2,30.9,261.9,30.2,261.3,32.1z"/>
		
			<path style="clip-path:url(#SVGID_00000068651014878362263520000002578280761721804730_);fill:none;stroke:#CACCCD;stroke-width:0.272;stroke-miterlimit:10;" d="
			M254.9,63.1l-0.5,6.8c0,0,0.4,2.8,2.7,0.3l0.3-6.8C257.5,63.5,256.6,61.3,254.9,63.1z"/>
		
			<path style="clip-path:url(#SVGID_00000068651014878362263520000002578280761721804730_);fill:none;stroke:#CACCCD;stroke-width:0.272;stroke-miterlimit:10;" d="
			M-118.8,46.1l0.8-34.2h2.6v7.2l1.2,3l8.6,0.5c0,0,16.3,3.5,23.6,12.1c0,0,3.5,3.6,5.6-3.3V11.9h9v39.3l-5.7,1.5
			C-73.2,52.7-81.9,46.7-118.8,46.1z"/>
		
			<path style="clip-path:url(#SVGID_00000068651014878362263520000002578280761721804730_);fill:none;stroke:#CACCCD;stroke-width:0.272;stroke-miterlimit:10;" d="
			M-113.2,18.4v-7.2l33.7,0.8v18.7C-79.5,30.6-94.2,19.7-113.2,18.4z"/>
		
			<path style="clip-path:url(#SVGID_00000068651014878362263520000002578280761721804730_);fill:none;stroke:#CACCCD;stroke-width:0.272;stroke-miterlimit:10;" d="
			M-67.4,9.3v-28.6c0,0,1.2-5.3,9.6-4.7l3.3,0v-17.3h-40.6l-4.1-0.9l-2.6-4.5v-20.2l-1.7-4.1h-13.7l-1.1,53.4l38.7,0.5l4.7,2.6
			l-1.1,14l-3.6,2.1l-28.4-0.9l-1.7-2.6l-0.8-12.2h-7.8V8.4L-67.4,9.3z"/>
		
			<path style="clip-path:url(#SVGID_00000068651014878362263520000002578280761721804730_);fill:none;stroke:#CACCCD;stroke-width:0.272;stroke-miterlimit:10;" d="
			M459.2,331l4.9-141.6c0-0.6-0.4-1-1-1.1l-71.4-2.4c0,0-0.1,0-0.1,0c-1.3,0.1-27.9,1.9-34.7-2.1c-0.2-0.1-0.3-0.1-0.5-0.1h-38.3
			l-47.2-1.3c-0.6,0-1,0.4-1,1l-3.4,93.3c0,0.6,0.4,1,1,1.1l21.5,0.1c0.6,0,1,0.5,1,1.1l-2.1,47c0,0.6,0.4,1,1,1.1l169.3,5.1
			C458.7,332,459.2,331.6,459.2,331z"/>
		
			<path style="clip-path:url(#SVGID_00000068651014878362263520000002578280761721804730_);fill:none;stroke:#CACCCD;stroke-width:0.272;stroke-miterlimit:10;" d="
			M269,46.5l-19.3-0.1l0.2-4.6c4.4-2.6,6-8.3,6-8.3c1.4,1.7,4.6,1.2,4.6,1.2c5.4-0.6,3.1-3.4,3.1-3.4c-2-4.4-8.6-2.3-8.6-2.3l-3,6.9
			l-5.3,5.3v5h-12.3V33c-0.8-2.6-2.6,0-2.6,0v13.2h-22.4l1.8-53.1c-1.1-1.8-2.9-0.3-2.9-0.3l-1.7,52.8L190,44.4l-7-2.7l-8.5-9.6
			l-1.6-4.7l-0.3-12.5h15.8c3.3-0.9,0-2.4,0-2.4l-15.8-0.6V-5.3l3.2-1.9h13.4c2.4-1.5-1.2-1.9-1.2-1.9h-12.2L171-7.3H94.1l-1.6-1.6
			C90.1-9.9,90.4-8,90.4-8l1.4,2.6l-0.8,1l-0.6,35.2H36.8v2.8L90.4,33l0.7,1.1l81.2,0.5l8.2,8.7L171,63.7l-12.4,12.6l2.1,2.1
			l11.4-11.1l8.5,4.6l1.8-1.7l-8.5-4.7l8.6-20.8l3.6,1.9l20.2,2.4l-0.5,25.1h2.4l0.7-24.5l23-0.6L231,69.6h2.6l0.6-20.2l12.2,0.1
			l0.6,6.7l5.2,6.4l-0.5,8.3l2.3,2.4h3.2l2.4-1.8l0.1-8.8l-2.6-2.2l-3.4-0.7l-4.3-4.5l0.3-6h19.7"/>
		
			<path style="clip-path:url(#SVGID_00000068651014878362263520000002578280761721804730_);fill:none;stroke:#CACCCD;stroke-width:0.272;stroke-miterlimit:10;" d="
			M508.8,360.5v-25.3l-16,1.8l-14,0.2v23.3h-3.2v-24.1l-61.7-1.2v25.3h-3.5v-25.3l-147.2-3.4l0.9,28.7H261v-28.9
			c-4.8,1.2-26.5-3.6-26.5-3.6L92.7,274.1l-203.2-62l-210.1-64.4V143l1.2-64c-1.9-6.3,1.3-8.9,1.3-8.9l7.4-0.3l0.8-6.8l3.5-6.6
			c-0.3-2-2.9-2-2.9-2l-4.5-0.5c-1.4-3.5,5.1-2.3,5.1-2.3l4.8,2.4c4.4-6.3,2.4-21.7,2.4-21.7l-10.5-0.9c-1.4-1.7,0.9-2,0.9-2
			l9.8,0.6l-0.2-1.5v-6.2c-0.2-3.5,1.5-2.1,1.5-2.1l30.3,0.5c0,0-0.4-18.7,0.2-20.3c0.6-1.6,2.3,0.1,2.3,0.1l0.2,2.4l18.5,0.3
			c3.2,0.1,1.5,2.5,1.5,2.5h-3.3l-0.2,15.8l7,0.1c2.5,1.1,0.8,2.8,0.8,2.8l-24.7-0.9l-0.2,19.6c-2.3,8.7-6.4,10-6.4,10
			c-2.4,0-1-1.9-1-1.9c5.4-3.7,4.6-10.8,4.6-10.8l-28.1-0.1c0.5,15.2-8.9,22-8.9,22l-0.9,9.8l-8.6,0.2l-1,29.1l17.7-0.3l2.4-2.4
			c2.5-0.5,1.8,1.9,1.8,1.9l-1.1,1.4l-2.6,1.8l-18.2,0.1V144l134.9,41l2.4-18.2l-21.4-2.4l-3-2.2c-1.4-3.2,1.7-2.6,1.7-2.6
			c-0.2,1.4,2,2,2,2l2,0.4l1.1-4.7c1.3-1.7,2.1,0.4,2.1,0.4l-1,4.6l17.1,2.2l1.2-20l-7.7-1.1c-4.7-1.6-9.3,0.8-9.3,0.8l-5.2,5
			c-2.3,2.3-2.7,1.1-2.7,1.1c-1.5-1.2,0-2.1,0-2.1l5.9-5.9c4.6-4.2,20,0,20,0l1.8-7.7l-13.4-20.9l-15.6-15.8
			c-3.1,0.3-2.1-1.8-2.1-1.8c-0.1-1.7,3.5-0.3,3.5-0.3l17.2,18.2L-175,132l8.9-29.3l-28.1-24.2c-8.7-7.3-14.9-4.2-21.7-5.2
			c-6.8-1-5.6-7.5-5.6-7.5V47.7c1.8-2.8,2.2,0.3,2.2,0.3l0.1,13.4c-0.7,8.5,3.2,9.6,3.2,9.6l9.1,0.2c9.7-0.2,14.9,5.9,14.9,5.9
			l27.2,23.4c1.8-10.3,13.5-22.6,13.5-22.6l-8.9-11.8l-12.3,0c-2.3-1.4,0.2-2.5,0.2-2.5l7.3-0.2c-1.9-1.8,0-5.2,0-5.2
			c-3.6-3.5-5.6-16.7-5.6-16.7c-0.6-6-9.6-9-9.6-9l-7.3-0.1l0.1,9l-2.8,4.5c-3.8,4.2-8.4,3.4-8.4,3.4l-0.7-0.6l-6.7-4.3
			c-3.3-2.9-5.5-2.1-5.5-2.1c-4.3-0.1-1.8-2.8-1.8-2.8c4-1.1,13.7,6.1,13.7,6.1c2.4,3,6.4,0.1,6.4,0.1c5.8-4.7,3.3-13.9,3.3-13.9
			c-0.2-25.2-3.8-37.8-3.8-37.8c-1-4.2,2.6-3.7,2.6-3.7l3.6,39.8h7.6c6.3-0.1,11.5,9.4,11.5,9.4c1.4,13.1,5.6,17.4,5.6,17.4
			c2.3-1.4,3.7,0.7,3.7,0.7l2.3-3.2l-0.2-21.3c0.1-5.1-4.1-10-4.1-10c-4.4-3.2-7.1-7.3-7.1-7.3c-3.3-4.1-1.9-13.9-1.9-13.9l2.5-8.3
			c2.1-7.6-3.8-6.9-3.8-6.9l-17.6-0.3l-1.5,2.1c-3.3,4.6-6.1,0.6-6.1,0.6c-2.3-5.9,4.3-5.2,4.3-5.2c1.8,1.7,3.3,0,3.3,0l17.3,0.2
			c8.7,0.8,6.6,9.1,6.6,9.1l-2.5,8.1c-4.5,13.3,8.1,20.1,8.1,20.1l4.7,9l0.2,24.4l-2.6,4c1.6,3.9,0,4.4,0,4.4L-147,75l25.6-0.7v-0.5
			V49.2h-0.8h-18.1c-4.9-0.2-3.1-3.6-3.1-3.6c1.7-1.7,3.5,1.2,3.5,1.2h17.7l0.8-181.5c0-1.5,1.2-2.8,2.8-2.8c1.5,0,2.8,1.3,2.8,2.8
			l-1.2,60h14.4v-12.6c0,0-1.8-3.3,8.1-3.6l19.7-0.5c0,0-15.5-8.3-8.3-35.8v-7v-1.9c0-0.8,0.7-1.5,1.5-1.5c0.8,0,1.5,0.7,1.5,1.5
			v13.8c0,0-4.8,19.7,7.1,27.5c0,0,5.4,8.4,21.1,8.4h6.8c0,0,3.8,0.9,1.8,2.7h-12.9l-13.2-5l-27.8,0.5c0,0-3.2,1.1-2.6,11.9
			l1.4,10.2l0.3,19.9c0,0,0,2,6,2.1h43.6h7.1c0,0,5,0.9,7.5-5.9v-10.5c0,0,0.3-2.6,2.1-0.6v12.5c0,0-0.1,3.9-6.3,8.7
			c0,0,2.6,0.2,1.7,12.8c0,0,1.8,6-3.3,6.5H-61c0,0-4.5-3-3.6,11.7v9.8H-36c0,0,3.3,0.2,1.2,3h-29.5l-0.3,21.7l25.1,8.1
			c0,0,0.9,3.3-2.6,1.8l-22.7-7.7l-0.5,18.7c0,0-0.5,6.8,5.4,13.5c0,0,25.9,16.7,31.5,33c0,0,8,6.5,5.3,47.1l0.6,26.8
			c0,0,7.7,8.3,21.3,8.7l40.8,0.8l-1.7-5.9L4.3,153.9l-11.6,9c0,0-3.3,3-5,0.3l-2.3-2.4l-0.6-8.9l2.7-3.6l9.8-0.3l42.1,20.8l2.7,8
			h26.6l3.3,0.9c0,0,18.7,2.7,21.2-12.9c0,0,3.9-10.7,19.6-8.1l9.2-0.2v-24.7l-11-1.4c0,0-6.2,2.4-11.6,0.8l-6.3-2.7l-12,0.8
			c0,0-2.7-1.4,0.3-2.6l12.3-0.3l8,2.7l9-0.9l10.1,1.1l3.2,0.3v27.7l10.7,7.1c0,0,2,1.8,7.7,1.5h9.9c0,0,2.1-0.3,2.1,1.4
			c0,0,3.5,2-13.8,1.2c0,0-6.5-0.3-10.4-4.1l-6.2-4.7l0.2,7.5c0,0-1.1,4.4-2.6,0.3l-0.1-8.7l-17.6,0.5c0,0-9.2,3.9-9.6,12.2
			c0,0-5.6,9.5-15.2,8.4l-5.7,0.1l0.3,54.1c0,0-2.1,20.3,5.3,27.5l5.1,5.3l40.6,15c0,0,1.1-11.6,13.2-15.4l1.8-71.2l2.9-3.5
			l27.8-0.2c0,0,6.6-0.6,6.9,8c0,1.2-2.3,28-2.3,28s0.8,18.8-34.6,17l-0.3,21.4c0,0,8.6,7.5,22.7,6.3c0,0,14.7-6.6,33-28.1
			c0,0,7.4-14.4,4.7-46.8c0,0-0.3-7.5,16-5.7l16.6,0.9c0,0,5-1.1,4.4,9.5l-1.2,20c0,0-2.6,6.8-11.1,5.4c0,0-8.1,2-8.6,3
			c0,0-5.3,2.3-14.3-0.1c0,0-0.3,13.5-8.7,20.3l-20,18.7l-6,3.8c0,0,3.2,5.3-1.5,6.5c0,0-3.6,1.1-4.7-5c0,0-2.4,4.1-22.6-3.6
			c0,0-8.9,1.1-11.4,12.2l60.4,22.6l17.8,7.5l10.5-16.7l-18.8-14.6c0,0,0.3-3.6,3-0.9l17,11.7h1.4l4.5-7.5l11-9l-3.2-5.4
			c0,0-9.8,3.9-16.4,14.7c0,0-1.7,1.5-2.3-2c0,0,10.5-13.8,17.8-14.9l-7.4-15c0,0-15.8,8.7-23,20.9c0,0-2.3-0.9-1.2-3
			c0,0,8.7-12.9,23.9-20.3l12.6-4.5c0,0,3.8,0.2,0.6,2.1L225,253l7.2,14c0,0,7.7-4.1,16.1-3.8c0,0,1.4,0.3-0.6,2.1
			c0,0-13,1.5-14.1,4.8l2.6,5.3l8.9-3.2l16.9,0.2l4.2-126.3l2.3-80.5l0.6-16.5"/>
		
			<path style="clip-path:url(#SVGID_00000068651014878362263520000002578280761721804730_);fill:none;stroke:#CACCCD;stroke-width:0.272;stroke-miterlimit:10;" d="
			M269.1,46.8l2.4-62.2l1.2-78.9V-120v-15.8c0-0.8,0.7-1.5,1.5-1.5h2.4c0.8,0,1.5,0.7,1.5,1.5v47.3v31.3l42.6,2.3h6.5
			c0,0,3.9,0.6,0,2.4l-51.9-0.9l-0.8,21.2l42,0.9h2c0,0,3.6,0.9-0.9,3l-43-0.9l-2,61.9v14.7h7.1v-5.6c0,0,2.7-3,2.9,2.3L282,73.5
			c0,0,0,6.5,14.9,5.1l16.1,0.2l26.5-23.4l4.5-12.8l3-1.5l11.6,0.3l1.8,3.2V53l-15.1,16.6l-3.5,5.1h-12.2l-3.9-2.8L315.4,81h-29
			c0,0-8.3-0.7-7.2-9.2V49.7h-6.5l-3.5,70c0,0,6.5-1.2,18.1,1.8h15.4l2.4-1.5l4.5-10.7c0,0,1.5-2.7,5.3-4.7L311,93.8
			c0,0-0.8-5.3,3,0l3.5,10.5l5.6-2.4c0,0,12.3,5.4,17.9,0.8c0.3-0.9,3.5-6.5,3.5-6.5l-6.8-3.9l-5.3,0.2c0,0-2.7-3,2.4-2.7l3.8,0.5
			l7.4,3.5l4.2-7.5l3.6-1.7l17.8-0.2l3.8-7.5l2.7-57.2c0,0,2.4-9.9-8-10.7l-7.7,3.2l-2.1,12.3c0,0-7.4,2-17.3-0.8
			c0,0-2.7-2.3,1.5-2.9l3.6,0.9l10.4,0.3l1.1-9l-16,5.6c0,0-2.3-1.7-0.2-3l5.3-1.4l-6-17.2c0,0-0.5-3.6,2.9-1.2l6,17.3L370,6.5
			c0,0,10.7-0.8,10.8,12.2l24.7-0.3l1.8-5.1v-2.1l1.8-0.2v3l-1.1,4.4c0,0,28.6-5.1,31.2,18.8v5.7l-2.9,2.3l-4.8,0.9l-9.2-2.7
			l-19,0.5c0,0-1.5,26.3,1.7,31.8c0,0,10.1,10.2,5.4,20c0,0-3.8,6.8-5,17.5c0,0-3,8.9-5.6,8.4c0,0,6.9,13.2,25,9l6.3-0.5
			c0,0-1.8-8.9,4.5-13.2l8.3-5.7h9.3c0,0,2.7,1.2,0,2.1l-8.7,0.3c0,0-11.9,5.9-11.1,12.9l0.2,4.9h19.7l3.5,3.5v11.6l-3,4.2
			l-46.7-0.9c0,0-3.3-2.4,1.2-2.3l44.6,0.3l1.5-2l-0.3-10.5l-1.5-1.4l-39.6-0.5c0,0-9.9-1.5-15.8-11c0,0-6.6,2.7-12-2.4L373,101.8
			l-2.3-6.9l0.1-7.2l-18.8-0.2l-8.1,16.9c0,0-2.4,4.4-9,3.5l-11.1-3l-9.5,3.5l-7.4,14.4l-3.3,2l-16,0.2l-18.5-1.7l-0.8,18.8
			l57.5,2.3l2.3,0.3c0,0,2.3,2.4-0.5,2.3l-59.3-2.3l-1.4,35.1l54.5,1.1h35.1c0,0,22.4,6,34.5,2.3l57.5,1.2h6.6l6.2,1.3V177l-5-0.3
			l-10.5-8c0,0-2-2.9,1.5-2.6l9.8,8.3l4.2-0.2v-5.7c0,0,2-1.7,2.4,0.8l2.8,18.4v6.3l43.6,1.1h15.4l41.9,0.6"/>
		<g style="opacity:0.25;clip-path:url(#SVGID_00000068651014878362263520000002578280761721804730_);">
			<g>
				<defs>
					<rect id="SVGID_00000053539275360872693130000004946326759259486101_" x="-5.9" y="-108.4" width="122.4" height="357.8"/>
				</defs>
				<clipPath id="SVGID_00000023983936452055821930000008588467545184318856_">
					<use xlink:href="#SVGID_00000053539275360872693130000004946326759259486101_"  style="overflow:visible;"/>
				</clipPath>
				<g style="clip-path:url(#SVGID_00000023983936452055821930000008588467545184318856_);">
					<defs>
						<rect id="SVGID_00000085969042080592272720000003922405998947728296_" x="-5.9" y="-108.4" width="122.4" height="357.8"/>
					</defs>
					<clipPath id="SVGID_00000150813005150824193890000003783261808071086987_">
						<use xlink:href="#SVGID_00000085969042080592272720000003922405998947728296_"  style="overflow:visible;"/>
					</clipPath>
					<path style="clip-path:url(#SVGID_00000150813005150824193890000003783261808071086987_);fill:#CACCCD;" d="M88.4,232.4l3,2.1
						c1.4,1,2.4,2.4,3,4l1.8,5.4c1.1,3.2,4,5.4,7.4,5.4c3.9,0,7.2-3,7.7-7l5.2-42.8c0.1-0.8,0.1-1.6-0.1-2.4L113,178
						c-0.1-0.3-0.1-0.7-0.1-1c-0.2-3.2-1.6-22-11.8-24.4c-10.5-2.4-46.9-26.3-51.8-29.6c-0.4-0.2-0.7-0.4-1.1-0.6
						c-3.5-1.6-22.1-10.1-24.4-18.2c-2.4-8.5-0.2-58,0-62.1c0-0.2,0-0.3,0-0.5c0-1.9,0.1-14.8,8.7-12.5c7.4,2,29.9-1.2,38.7-2.6
						c2.6-0.4,4.9-2.1,5.9-4.6c1.3-3,2.3-7.3,0.2-11.3C73.8,4,73-66.8,73-75.2c0-0.5-0.1-1.1-0.2-1.6l-5.4-25.4
						c-0.8-3.7-3.9-6.3-7.6-6.3H7.1c-4.3,0-7.8,3.6-7.8,7.9v70.4v124c0,0.9-0.2,1.9-0.5,2.7c-2.1,5.9-9.9,29.8,0.5,33.7
						c10.6,4,41,25.7,47.4,30.3c0.8,0.6,1.7,1,2.7,1.2l21.9,5.3c1.8,0.4,3.4,1.5,4.5,3.1l3.3,4.8c0.8,1.1,1.3,2.5,1.4,3.9l4.4,47.7
						C85.3,229,86.5,231.1,88.4,232.4"/>
				</g>
			</g>
		</g>
		<g style="opacity:0.5;clip-path:url(#SVGID_00000068651014878362263520000002578280761721804730_);">
			<g>
				<defs>
					<rect id="SVGID_00000169520041487519145530000018422162413839719359_" x="25" y="37.2" width="153.5" height="92"/>
				</defs>
				<clipPath id="SVGID_00000003797669739104963230000006886293734003200897_">
					<use xlink:href="#SVGID_00000169520041487519145530000018422162413839719359_"  style="overflow:visible;"/>
				</clipPath>
				<polygon style="clip-path:url(#SVGID_00000003797669739104963230000006886293734003200897_);fill:#ACCCD0;" points="85.5,37.7 
					85.1,39.2 25,39.2 25,52.8 27.6,53.3 30.8,49.5 38,49.6 42.4,53.1 44.7,56.3 45.1,59.8 44,62.1 44.2,63.8 45.9,64.6 48.8,62.2 
					53,63.5 54.2,65 56.1,64 58.7,65.3 62.3,70.8 65.3,67.2 68.9,71.2 71.2,77.8 71.7,83.7 68.5,85 66.2,85.2 61,82.9 56.4,85.8 
					54.7,87.5 48.9,89.2 40.3,92.4 38.3,94.1 36.2,98.2 34.6,99.1 36.2,100.4 37.6,101.9 38.8,105.7 43.2,108.4 43.4,110 
					48.7,111.9 54,112.6 63.6,118 69,121 73.9,122.4 75.5,126.1 77.7,125.2 81.4,126.1 84.6,129.2 84.7,124.1 111.1,124.2 
					111.2,70.7 137.9,70.7 146.2,61.8 162.5,58.3 165.5,50.4 178.5,40.2 150.9,39.7 145,48 135.8,37.2 				"/>
			</g>
		</g>
		<path style="clip-path:url(#SVGID_00000068651014878362263520000002578280761721804730_);fill:#167375;" d="M256.5,288.3
			c-3,0-5.4,2.4-5.4,5.4c0,4.1,5.4,8.8,5.4,8.8s5.4-4.6,5.4-8.8C262,290.8,259.5,288.3,256.5,288.3 M256.5,296
			c-1.4,0-2.5-1.1-2.5-2.5s1.1-2.5,2.5-2.5c1.4,0,2.5,1.1,2.5,2.5S257.9,296,256.5,296"/>
		<path style="clip-path:url(#SVGID_00000068651014878362263520000002578280761721804730_);fill:#167375;" d="M77,263.2
			c-3,0-5.4,2.4-5.4,5.4c0,4.1,5.4,8.8,5.4,8.8s5.4-4.6,5.4-8.8C82.5,265.6,80,263.2,77,263.2 M77,270.8c-1.4,0-2.5-1.1-2.5-2.5
			c0-1.4,1.1-2.5,2.5-2.5c1.4,0,2.5,1.1,2.5,2.5C79.5,269.7,78.4,270.8,77,270.8"/>
		<path style="clip-path:url(#SVGID_00000068651014878362263520000002578280761721804730_);fill:#167375;" d="M127.2,295.8
			c-3,0-5.4,2.4-5.4,5.4c0,4.1,5.4,8.8,5.4,8.8s5.4-4.6,5.4-8.8C132.6,298.2,130.2,295.8,127.2,295.8 M127.2,303.4
			c-1.4,0-2.5-1.1-2.5-2.5s1.1-2.5,2.5-2.5c1.4,0,2.5,1.1,2.5,2.5S128.6,303.4,127.2,303.4"/>
		<path style="clip-path:url(#SVGID_00000068651014878362263520000002578280761721804730_);fill:#167375;" d="M256.5,198.2
			c-3,0-5.4,2.4-5.4,5.4c0,4.1,5.4,8.8,5.4,8.8s5.4-4.6,5.4-8.8C262,200.7,259.5,198.2,256.5,198.2 M256.5,205.8
			c-1.4,0-2.5-1.1-2.5-2.5s1.1-2.5,2.5-2.5c1.4,0,2.5,1.1,2.5,2.5S257.9,205.8,256.5,205.8"/>
		<path style="clip-path:url(#SVGID_00000068651014878362263520000002578280761721804730_);fill:#167375;" d="M244.6,255.2
			c-3,0-5.4,2.4-5.4,5.4c0,4.1,5.4,8.8,5.4,8.8s5.4-4.6,5.4-8.8C250,257.6,247.6,255.2,244.6,255.2 M244.6,262.8
			c-1.4,0-2.5-1.1-2.5-2.5s1.1-2.5,2.5-2.5c1.4,0,2.5,1.1,2.5,2.5S246,262.8,244.6,262.8"/>
		<path style="clip-path:url(#SVGID_00000068651014878362263520000002578280761721804730_);fill:#167375;" d="M-92.7-79.3
			c-3,0-5.4,2.4-5.4,5.4c0,4.1,5.4,8.8,5.4,8.8s5.4-4.6,5.4-8.8C-87.3-76.9-89.7-79.3-92.7-79.3 M-92.7-71.7c-1.4,0-2.5-1.1-2.5-2.5
			c0-1.4,1.1-2.5,2.5-2.5c1.4,0,2.5,1.1,2.5,2.5C-90.2-72.8-91.4-71.7-92.7-71.7"/>
		<path style="clip-path:url(#SVGID_00000068651014878362263520000002578280761721804730_);fill:#167375;" d="M270.7,306
			c-3,0-5.4,2.4-5.4,5.4c0,4.1,5.4,8.8,5.4,8.8s5.4-4.6,5.4-8.8C276.1,308.4,273.7,306,270.7,306 M270.7,313.6
			c-1.4,0-2.5-1.1-2.5-2.5s1.1-2.5,2.5-2.5c1.4,0,2.5,1.1,2.5,2.5S272.1,313.6,270.7,313.6"/>
	</g>
	<g>
		<defs>
			<polygon id="SVGID_00000018231268918059542360000002653548954105254820_" points="2.3,2.6 0.4,54.4 2.8,91.8 3.6,164.1 
				41.2,162.8 164.6,166.6 164.6,2.6 			"/>
		</defs>
		<clipPath id="SVGID_00000102531919198696481340000000964339666859637390_">
			<use xlink:href="#SVGID_00000018231268918059542360000002653548954105254820_"  style="overflow:visible;"/>
		</clipPath>
		<g style="clip-path:url(#SVGID_00000102531919198696481340000000964339666859637390_);">
			<text transform="matrix(1 0 0 1 89.0622 306.5979)"><tspan x="0" y="0" class="st10 st11" style="font-size:6.0955px;">V</tspan><tspan x="3.8" y="0" class="st10 st11" style="font-size:6.0955px;">u</tspan><tspan x="6.9" y="0" class="st10 st11" style="font-size:6.0955px;">e</tspan><tspan x="10.2" y="0" class="st10 st11" style="font-size:6.0955px;"> on </tspan><tspan x="19.2" y="0" class="st10 st11" style="font-size:6.0955px;">30</tspan><tspan x="25.9" y="0" class="st10 st11" style="font-size:6.0955px;">a</tspan></text>
		</g>
		<g style="clip-path:url(#SVGID_00000102531919198696481340000000964339666859637390_);">
			<text transform="matrix(1 0 0 1 33.4284 274.4631)"><tspan x="0" y="0" class="st10 st11" style="font-size:6.0955px;">B</tspan><tspan x="3.9" y="0" class="st10 st11" style="font-size:6.0955px;">e</tspan><tspan x="7.2" y="0" class="st10 st11" style="font-size:6.0955px;">ac</tspan><tspan x="13.7" y="0" class="st10 st11" style="font-size:6.0955px;">h</tspan><tspan x="16.8" y="0" class="st10 st11" style="font-size:6.0955px;"> </tspan><tspan x="18" y="0" class="st10 st11" style="font-size:6.0955px;">A</tspan><tspan x="22.1" y="0" class="st10 st11" style="font-size:6.0955px;">cc</tspan><tspan x="27.9" y="0" class="st10 st11" style="font-size:6.0955px;">e</tspan><tspan x="31.2" y="0" class="st10 st11" style="font-size:6.0955px;">s</tspan><tspan x="33.9" y="0" class="st10 st11" style="font-size:6.0955px;">s</tspan></text>
		</g>
		<path style="clip-path:url(#SVGID_00000102531919198696481340000000964339666859637390_);fill:#167375;" d="M-183.8,175.3
			c-3,0-5.4,2.4-5.4,5.4c0,4.1,5.4,8.8,5.4,8.8s5.4-4.6,5.4-8.8C-178.4,177.8-180.8,175.3-183.8,175.3 M-183.8,182.9
			c-1.4,0-2.5-1.1-2.5-2.5c0-1.4,1.1-2.5,2.5-2.5c1.4,0,2.5,1.1,2.5,2.5C-181.3,181.8-182.5,182.9-183.8,182.9"/>
		<g style="clip-path:url(#SVGID_00000102531919198696481340000000964339666859637390_);">
			<text transform="matrix(1 0 0 1 -197.095 197.3469)"><tspan x="0" y="0" class="st10 st11" style="font-size:5.4033px;">W</tspan><tspan x="4.7" y="0" class="st10 st11" style="font-size:5.4033px;">est A</tspan><tspan x="16.6" y="0" class="st10 st11" style="font-size:5.4033px;">l</tspan><tspan x="17.6" y="0" class="st10 st11" style="font-size:5.4033px;">le</tspan><tspan x="21.5" y="0" class="st10 st11" style="font-size:5.4033px;">n</tspan></text>
		</g>
		<g style="clip-path:url(#SVGID_00000102531919198696481340000000964339666859637390_);">
			<text transform="matrix(1 0 0 1 -197.095 203.8313)"><tspan x="0" y="0" class="st10 st11" style="font-size:5.4033px;">L</tspan><tspan x="3" y="0" class="st10 st11" style="font-size:5.4033px;">oop Beac</tspan><tspan x="25.6" y="0" class="st10 st11" style="font-size:5.4033px;">h</tspan></text>
		</g>
		<g style="clip-path:url(#SVGID_00000102531919198696481340000000964339666859637390_);">
			<text transform="matrix(1 0 0 1 -197.095 210.3137)"><tspan x="0" y="0" class="st10 st11" style="font-size:5.4033px;">A</tspan><tspan x="3.6" y="0" class="st10 st11" style="font-size:5.4033px;">cc</tspan><tspan x="8.7" y="0" class="st10 st11" style="font-size:5.4033px;">e</tspan><tspan x="11.7" y="0" class="st10 st11" style="font-size:5.4033px;">s</tspan><tspan x="14.1" y="0" class="st10 st11" style="font-size:5.4033px;">s</tspan></text>
		</g>
		<path style="clip-path:url(#SVGID_00000102531919198696481340000000964339666859637390_);fill:#167375;" d="M-220,166.2
			c-3,0-5.4,2.4-5.4,5.4c0,4.1,5.4,8.8,5.4,8.8s5.4-4.6,5.4-8.8C-214.6,168.6-217,166.2-220,166.2 M-220,173.8
			c-1.4,0-2.5-1.1-2.5-2.5c0-1.4,1.1-2.5,2.5-2.5c1.4,0,2.5,1.1,2.5,2.5C-217.5,172.7-218.6,173.8-220,173.8"/>
		<g style="clip-path:url(#SVGID_00000102531919198696481340000000964339666859637390_);">
			<text transform="matrix(1 0 0 1 -226.0267 187.1154)"><tspan x="0" y="0" class="st10 st11" style="font-size:5.4033px;">Dune</tspan><tspan x="12.2" y="0" class="st10 st11" style="font-size:5.4033px;"> </tspan></text>
		</g>
		<g style="clip-path:url(#SVGID_00000102531919198696481340000000964339666859637390_);">
			<text transform="matrix(1 0 0 1 -226.0267 193.5979)"><tspan x="0" y="0" class="st10 st11" style="font-size:5.4033px;">Allen Beac</tspan><tspan x="24.5" y="0" class="st10 st11" style="font-size:5.4033px;">h</tspan></text>
		</g>
		<g style="clip-path:url(#SVGID_00000102531919198696481340000000964339666859637390_);">
			<text transform="matrix(1 0 0 1 -226.0267 200.0822)"><tspan x="0" y="0" class="st10 st11" style="font-size:5.4033px;">A</tspan><tspan x="3.6" y="0" class="st10 st11" style="font-size:5.4033px;">cc</tspan><tspan x="8.7" y="0" class="st10 st11" style="font-size:5.4033px;">e</tspan><tspan x="11.7" y="0" class="st10 st11" style="font-size:5.4033px;">s</tspan><tspan x="14.1" y="0" class="st10 st11" style="font-size:5.4033px;">s</tspan></text>
		</g>
		<g style="clip-path:url(#SVGID_00000102531919198696481340000000964339666859637390_);">
			<text transform="matrix(1 0 0 1 201.9206 319.1926)"><tspan x="0" y="0" class="st10 st11" style="font-size:6.0955px;">S</tspan><tspan x="3.5" y="0" class="st10 st11" style="font-size:6.0955px;">h</tspan><tspan x="6.7" y="0" class="st10 st11" style="font-size:6.0955px;">un</tspan><tspan x="12.9" y="0" class="st10 st11" style="font-size:6.0955px;">k</tspan><tspan x="15.9" y="0" class="st10 st11" style="font-size:6.0955px;"> G</tspan><tspan x="21.5" y="0" class="st10 st11" style="font-size:6.0955px;">u</tspan><tspan x="24.6" y="0" class="st10 st11" style="font-size:6.0955px;">ll</tspan><tspan x="26.8" y="0" class="st10 st11" style="font-size:6.0955px;">e</tspan><tspan x="30" y="0" class="st10 st11" style="font-size:6.0955px;">y </tspan><tspan x="34.2" y="0" class="st10 st11" style="font-size:6.0955px;">G</tspan><tspan x="38.5" y="0" class="st10 st11" style="font-size:6.0955px;">y</tspan><tspan x="41.5" y="0" class="st10 st11" style="font-size:6.0955px;">s</tspan><tspan x="44.2" y="0" class="st10 st11" style="font-size:6.0955px;">t</tspan><tspan x="46.2" y="0" class="st10 st11" style="font-size:6.0955px;">e</tspan><tspan x="49.5" y="0" class="st10 st11" style="font-size:6.0955px;">r</tspan><tspan x="51.5" y="0" class="st10 st11" style="font-size:6.0955px;"> </tspan><tspan x="52.7" y="0" class="st10 st11" style="font-size:6.0955px;">B</tspan><tspan x="56.6" y="0" class="st10 st11" style="font-size:6.0955px;">a</tspan><tspan x="60.1" y="0" class="st10 st11" style="font-size:6.0955px;">r</tspan></text>
		</g>
		<path style="clip-path:url(#SVGID_00000102531919198696481340000000964339666859637390_);fill:#167375;" d="M253.6,322.5
			c-3,0-5.4,2.4-5.4,5.4c0,4.1,5.4,8.8,5.4,8.8s5.4-4.6,5.4-8.8C259,324.9,256.6,322.5,253.6,322.5 M253.6,330.1
			c-1.4,0-2.5-1.1-2.5-2.5s1.1-2.5,2.5-2.5c1.4,0,2.5,1.1,2.5,2.5S255,330.1,253.6,330.1"/>
		<g style="clip-path:url(#SVGID_00000102531919198696481340000000964339666859637390_);">
			<text transform="matrix(1 0 0 1 177.194 334.5891)"><tspan x="0" y="0" class="st10 st11" style="font-size:6.0955px;">S</tspan><tspan x="3.5" y="0" class="st10 st11" style="font-size:6.0955px;">h</tspan><tspan x="6.7" y="0" class="st10 st11" style="font-size:6.0955px;">un</tspan><tspan x="12.9" y="0" class="st10 st11" style="font-size:6.0955px;">k</tspan><tspan x="15.9" y="0" class="st10 st11" style="font-size:6.0955px;"> G</tspan><tspan x="21.5" y="0" class="st10 st11" style="font-size:6.0955px;">u</tspan><tspan x="24.6" y="0" class="st10 st11" style="font-size:6.0955px;">ll</tspan><tspan x="26.8" y="0" class="st10 st11" style="font-size:6.0955px;">e</tspan><tspan x="30" y="0" class="st10 st11" style="font-size:6.0955px;">y </tspan><tspan x="34.2" y="0" class="st10 st11" style="font-size:6.0955px;">B</tspan><tspan x="38.1" y="0" class="st10 st11" style="font-size:6.0955px;">e</tspan><tspan x="41.4" y="0" class="st10 st11" style="font-size:6.0955px;">a</tspan><tspan x="44.9" y="0" class="st10 st11" style="font-size:6.0955px;">ch </tspan><tspan x="52.2" y="0" class="st10 st11" style="font-size:6.0955px;">A</tspan><tspan x="56.2" y="0" class="st10 st11" style="font-size:6.0955px;">cc</tspan><tspan x="62" y="0" class="st10 st11" style="font-size:6.0955px;">es</tspan><tspan x="68.1" y="0" class="st10 st11" style="font-size:6.0955px;">s</tspan></text>
		</g>
		<g style="clip-path:url(#SVGID_00000102531919198696481340000000964339666859637390_);">
			<text transform="matrix(1 0 0 1 199.1198 267.343)"><tspan x="0" y="0" class="st10 st11" style="font-size:6.0955px;">S</tspan><tspan x="3.5" y="0" class="st10 st11" style="font-size:6.0955px;">t</tspan><tspan x="5.6" y="0" class="st10 st11" style="font-size:6.0955px;">e</tspan><tspan x="8.8" y="0" class="st10 st11" style="font-size:6.0955px;">v</tspan><tspan x="11.7" y="0" class="st10 st11" style="font-size:6.0955px;">e</tspan><tspan x="15" y="0" class="st10 st11" style="font-size:6.0955px;">’</tspan><tspan x="16.1" y="0" class="st10 st11" style="font-size:6.0955px;">s Mar</tspan><tspan x="30.4" y="0" class="st10 st11" style="font-size:6.0955px;">k</tspan><tspan x="33.2" y="0" class="st10 st11" style="font-size:6.0955px;">e</tspan><tspan x="36.5" y="0" class="st10 st11" style="font-size:6.0955px;">t</tspan></text>
		</g>
		<path style="clip-path:url(#SVGID_00000102531919198696481340000000964339666859637390_);fill:#167375;" d="M224.6,274.3
			c-3,0-5.4,2.4-5.4,5.4c0,4.1,5.4,8.8,5.4,8.8s5.4-4.6,5.4-8.8C230,276.7,227.6,274.3,224.6,274.3 M224.6,281.9
			c-1.4,0-2.5-1.1-2.5-2.5s1.1-2.5,2.5-2.5c1.4,0,2.5,1.1,2.5,2.5S225.9,281.9,224.6,281.9"/>
		<g style="clip-path:url(#SVGID_00000102531919198696481340000000964339666859637390_);">
			<text transform="matrix(1 0 0 1 179.0573 286.4719)"><tspan x="0" y="0" class="st10 st11" style="font-size:6.0955px;">C</tspan><tspan x="3.8" y="0" class="st10 st11" style="font-size:6.0955px;">hef</tspan><tspan x="12" y="0" class="st10 st11" style="font-size:6.0955px;">’</tspan><tspan x="13.1" y="0" class="st10 st11" style="font-size:6.0955px;">s 3</tspan><tspan x="20.3" y="0" class="st10 st11" style="font-size:6.0955px;">0A</tspan><tspan x="27.8" y="0" class="st10 st11" style="font-size:6.0955px;"> D</tspan><tspan x="33.2" y="0" class="st10 st11" style="font-size:6.0955px;">e</tspan><tspan x="36.5" y="0" class="st10 st11" style="font-size:6.0955px;">l</tspan><tspan x="37.6" y="0" class="st10 st11" style="font-size:6.0955px;">i</tspan></text>
		</g>
		<g style="clip-path:url(#SVGID_00000102531919198696481340000000964339666859637390_);">
			<text transform="matrix(1 0 0 1 179.0573 293.7873)"><tspan x="0" y="0" class="st10 st11" style="font-size:6.0955px;"> </tspan><tspan x="1.2" y="0" class="st10 st11" style="font-size:6.0955px;"> </tspan></text>
		</g>
		<g style="clip-path:url(#SVGID_00000102531919198696481340000000964339666859637390_);">
			<text transform="matrix(1 0 0 1 219.0485 217.6848)"><tspan x="0" y="0" class="st10 st11" style="font-size:6.0955px;">Sou</tspan><tspan x="10.2" y="0" class="st10 st11" style="font-size:6.0955px;">th</tspan><tspan x="15.4" y="0" class="st10 st11" style="font-size:6.0955px;"> o</tspan><tspan x="20.1" y="0" class="st10 st11" style="font-size:6.0955px;">f </tspan><tspan x="23" y="0" class="st10 st11" style="font-size:6.0955px;">P</tspan><tspan x="26.9" y="0" class="st10 st11" style="font-size:6.0955px;">h</tspan><tspan x="30" y="0" class="st10 st11" style="font-size:6.0955px;">il</tspan><tspan x="32.2" y="0" class="st10 st11" style="font-size:6.0955px;">l</tspan><tspan x="33.3" y="0" class="st10 st11" style="font-size:6.0955px;">y</tspan></text>
		</g>
		<path style="clip-path:url(#SVGID_00000102531919198696481340000000964339666859637390_);fill:#167375;" d="M276.1,151.6
			c-3,0-5.4,2.4-5.4,5.4c0,4.1,5.4,8.8,5.4,8.8s5.4-4.6,5.4-8.8C281.6,154,279.1,151.6,276.1,151.6 M276.1,159.2
			c-1.4,0-2.5-1.1-2.5-2.5s1.1-2.5,2.5-2.5c1.4,0,2.5,1.1,2.5,2.5S277.5,159.2,276.1,159.2"/>
		<g style="clip-path:url(#SVGID_00000102531919198696481340000000964339666859637390_);">
			<text transform="matrix(1 0 0 1 285.2995 157.5012)"><tspan x="0" y="0" class="st10 st11" style="font-size:6.0955px;">E</tspan><tspan x="3.6" y="0" class="st10 st11" style="font-size:6.0955px;">me</tspan><tspan x="12" y="0" class="st10 st11" style="font-size:6.0955px;">r</tspan><tspan x="13.9" y="0" class="st10 st11" style="font-size:6.0955px;">a</tspan><tspan x="17.4" y="0" class="st10 st11" style="font-size:6.0955px;">ld Co</tspan><tspan x="30.4" y="0" class="st10 st11" style="font-size:6.0955px;">a</tspan><tspan x="33.9" y="0" class="st10 st11" style="font-size:6.0955px;">s</tspan><tspan x="36.6" y="0" class="st10 st11" style="font-size:6.0955px;">t</tspan></text>
		</g>
		<g style="clip-path:url(#SVGID_00000102531919198696481340000000964339666859637390_);">
			<text transform="matrix(1 0 0 1 285.2995 164.8166)"><tspan x="0" y="0" class="st10 st11" style="font-size:6.0955px;">Compo</tspan><tspan x="19.4" y="0" class="st10 st11" style="font-size:6.0955px;">u</tspan><tspan x="22.5" y="0" class="st10 st11" style="font-size:6.0955px;">ndin</tspan><tspan x="33.4" y="0" class="st10 st11" style="font-size:6.0955px;">g</tspan><tspan x="36.8" y="0" class="st10 st11" style="font-size:6.0955px;"> P</tspan><tspan x="41.9" y="0" class="st10 st11" style="font-size:6.0955px;">ha</tspan><tspan x="48.5" y="0" class="st10 st11" style="font-size:6.0955px;">rmac</tspan><tspan x="62" y="0" class="st10 st11" style="font-size:6.0955px;">y</tspan></text>
		</g>
		<g style="clip-path:url(#SVGID_00000102531919198696481340000000964339666859637390_);">
			<text transform="matrix(1 0 0 1 223.7282 -27.3816)"><tspan x="0" y="0" class="st10 st14" style="font-size:6.0955px;">A</tspan><tspan x="6.3" y="0" class="st10 st14" style="font-size:6.0955px;">c</tspan><tspan x="11.9" y="0" class="st10 st14" style="font-size:6.0955px;">cess</tspan></text>
		</g>
		<g style="clip-path:url(#SVGID_00000102531919198696481340000000964339666859637390_);">
			<text transform="matrix(1 0 0 1 223.7282 -20.0682)"><tspan x="0" y="0" class="st10 st14" style="font-size:6.0955px;">T</tspan><tspan x="5.2" y="0" class="st10 st14" style="font-size:6.0955px;">o 1-98</tspan></text>
		</g>
		<g style="clip-path:url(#SVGID_00000102531919198696481340000000964339666859637390_);">
			<text transform="matrix(1 0 0 1 -89.4954 -63.8631)"><tspan x="0" y="0" class="st10 st11" style="font-size:6.0955px;">Driv</tspan><tspan x="10.3" y="0" class="st10 st11" style="font-size:6.0955px;">i</tspan><tspan x="11.4" y="0" class="st10 st11" style="font-size:6.0955px;">n</tspan><tspan x="14.5" y="0" class="st10 st11" style="font-size:6.0955px;">g</tspan><tspan x="18" y="0" class="st10 st11" style="font-size:6.0955px;"> </tspan><tspan x="19.2" y="0" class="st10 st11" style="font-size:6.0955px;">R</tspan><tspan x="23" y="0" class="st10 st11" style="font-size:6.0955px;">an</tspan><tspan x="29.6" y="0" class="st10 st11" style="font-size:6.0955px;">g</tspan><tspan x="33.1" y="0" class="st10 st11" style="font-size:6.0955px;">e</tspan></text>
		</g>
		<path style="clip-path:url(#SVGID_00000102531919198696481340000000964339666859637390_);fill:#167375;" d="M29.7-12.4
			c-3,0-5.4,2.4-5.4,5.4c0,4.1,5.4,8.8,5.4,8.8s5.4-4.6,5.4-8.8C35.1-10,32.7-12.4,29.7-12.4 M29.7-4.8c-1.4,0-2.5-1.1-2.5-2.5
			c0-1.4,1.1-2.5,2.5-2.5c1.4,0,2.5,1.1,2.5,2.5C32.2-5.9,31.1-4.8,29.7-4.8"/>
		<g style="clip-path:url(#SVGID_00000102531919198696481340000000964339666859637390_);">
			<text transform="matrix(0 1 -1 0 -120.805 -62.3406)"><tspan x="0" y="0" class="st10 st11 st12">T</tspan><tspan x="2.3" y="0" class="st10 st11 st12">hompson </tspan><tspan x="19.5" y="0" class="st10 st11 st12">R</tspan><tspan x="22" y="0" class="st10 st11 st12">d</tspan></text>
		</g>
		<g style="clip-path:url(#SVGID_00000102531919198696481340000000964339666859637390_);">
			<text transform="matrix(0 1 -1 0 -121.7347 19.1066)"><tspan x="0" y="0" class="st10 st11 st12">T</tspan><tspan x="2.3" y="0" class="st10 st11 st12">hompson </tspan><tspan x="19.4" y="0" class="st10 st11 st12">R</tspan><tspan x="21.9" y="0" class="st10 st11 st12">d</tspan></text>
		</g>
		<g style="clip-path:url(#SVGID_00000102531919198696481340000000964339666859637390_);">
			<text transform="matrix(1 0 0 1 262.6316 294.1252)"><tspan x="0" y="0" class="st10 st11" style="font-size:6.0955px;">P</tspan><tspan x="3.9" y="0" class="st10 st11" style="font-size:6.0955px;">e</tspan><tspan x="7.2" y="0" class="st10 st11" style="font-size:6.0955px;">r</tspan><tspan x="9.4" y="0" class="st10 st11" style="font-size:6.0955px;">f</tspan><tspan x="11.1" y="0" class="st10 st11" style="font-size:6.0955px;">e</tspan><tspan x="14.4" y="0" class="st10 st11" style="font-size:6.0955px;">ct Pi</tspan><tspan x="25.6" y="0" class="st10 st11" style="font-size:6.0955px;">g</tspan><tspan x="29.1" y="0" class="st10 st11" style="font-size:6.0955px;"> Gr</tspan><tspan x="36.6" y="0" class="st10 st11" style="font-size:6.0955px;">i</tspan><tspan x="37.7" y="0" class="st10 st11" style="font-size:6.0955px;">ll</tspan><tspan x="39.9" y="0" class="st10 st11" style="font-size:6.0955px;"> </tspan></text>
		</g>
		<g style="clip-path:url(#SVGID_00000102531919198696481340000000964339666859637390_);">
			<text transform="matrix(1 0 0 1 262.6316 301.7444)"><tspan x="0" y="0" class="st10 st11" style="font-size:6.0955px;">&amp; </tspan><tspan x="4.6" y="0" class="st10 st11" style="font-size:6.0955px;">F</tspan><tspan x="7.8" y="0" class="st10 st11" style="font-size:6.0955px;">is</tspan><tspan x="11.6" y="0" class="st10 st11" style="font-size:6.0955px;">h</tspan><tspan x="14.8" y="0" class="st10 st11" style="font-size:6.0955px;"> Hou</tspan><tspan x="26.6" y="0" class="st10 st11" style="font-size:6.0955px;">s</tspan><tspan x="29.3" y="0" class="st10 st11" style="font-size:6.0955px;">e</tspan></text>
		</g>
		<g style="clip-path:url(#SVGID_00000102531919198696481340000000964339666859637390_);">
			<text transform="matrix(0.9334 0.3588 -0.3588 0.9334 113.2586 281.0537)"><tspan x="0" y="0" class="st10 st11 st12">W Coun</tspan><tspan x="13.5" y="0" class="st10 st11 st12">t</tspan><tspan x="14.9" y="0" class="st10 st11 st12">y Hwy 30</tspan><tspan x="30.5" y="0" class="st10 st11 st12">A</tspan></text>
		</g>
		<g style="clip-path:url(#SVGID_00000102531919198696481340000000964339666859637390_);">
			<text transform="matrix(0.9558 0.294 -0.294 0.9558 -144.5664 200.0101)"><tspan x="0" y="0" class="st10 st11 st12">W Coun</tspan><tspan x="13.5" y="0" class="st10 st11 st12">t</tspan><tspan x="14.9" y="0" class="st10 st11 st12">y Hwy 30</tspan><tspan x="30.5" y="0" class="st10 st11 st12">A</tspan></text>
		</g>
		<path style="clip-path:url(#SVGID_00000102531919198696481340000000964339666859637390_);fill:#D1DAD8;" d="M37.1-84.8
			c1.8,0.5,3.1,1.8,4.5,2.9c2.2,1.7,4.6,2.4,7.1,3c0.7,0.2,1.4,0.7,2-0.3c0.5-0.9,0.7-1.8-0.1-2.6c-0.7-0.7-1.3-1.4-2.3-1.9
			c-2.5-1.1-5-2.4-7.5-3.6c-0.6-0.3-1.6-0.6-0.9-1.6c1.1-1.7,1.7-3.7,3.2-5.1c0.5-0.5,1-1.7,2-0.7c0.6,0.6,1.4,1.4,0.6,2.4
			c-1.4,1.6-0.7,2.3,0.9,3.1c4.9,2.6,9,6.1,11.6,11.2c1.4,2.8,0.6,4.4-2.4,5.1c-1,0.2-2.6-0.1-2.8,1.1c-0.3,1.4,1.3,1.8,2.3,2.3
			c1,0.6,2.1,1.1,3.2,1.6c0.7,0.3,1,0.9,0.9,1.6c-0.1,0.8-0.6,1.1-1.3,1.4c-3.1,1.1-8.3-0.9-9.7-3.7c-0.4-0.8-1.1-1.6-1.3-2.4
			c-1.2-3.9-4-5.1-7.9-5.1c-2.6,0-3.7-1.8-3.1-4.3C36.3-81.8,36.7-83.3,37.1-84.8"/>
		<path style="clip-path:url(#SVGID_00000102531919198696481340000000964339666859637390_);fill:#D1DAD8;" d="M349-44.9
			c0.8-3.2-0.2-5.4-2.8-7.1c-1.1-0.7-0.6-2.8,0.8-3.4c1.4-0.6,3-1.5,4.6-1.1c3.3,0.7,6.6,0.4,9.8,0.4c2.4,0,4.7,0.1,7,0.9
			c0.7,0.3,1.8-0.2,2.1,1c0.3,1.1-0.3,1.9-1.1,2.6c-2.5,2.1-4.9,4.1-7.4,6.1c-2.1,1.7-4.2,3.5-6.4,4.9c-1.9,1.2-3.9,1.5-5.9-0.3
			C347.9-42.2,350-43.7,349-44.9"/>
		<path style="clip-path:url(#SVGID_00000102531919198696481340000000964339666859637390_);fill:#D1DAD8;" d="M-13.8,117.2
			c4.1-4.1,9.8-5.2,14.3-8.3c3.4-2.4,6.6-4.8,9.8-7.6c3-2.6,7-3.7,11.4-5.4c-0.9,1.7-2,1.8-2.9,2.3c-3.4,1.6-6.9,2.8-9.7,5.6
			c-3.4,3.4-7.4,6.3-11.8,8.1c-3.3,1.4-6,3.3-8.9,5.2c-3,1.9-3.2,5-3.8,7.9c-1,4.8-4.1,8.3-6.5,12.5c-1-1.2-0.3-1.6,0.1-2.1
			c5.5-7.3,7.2-15.8,7.4-24.7c0.2-7.1,1.7-14,2.7-21c1-6.7,3-13.3,2.9-20.2c0-1.5-0.4-2.8-1.2-4c-3.9-5.6-7.3-11.5-11.2-17.2
			c-2.1-3-1.7-6.6,0.6-9.7C-15.8,31.8-11,24.9-6,18.1c2.2-2.9,3.2-6.5,5.8-9.2c1-1,1.7-2.2,3-2.9c0.4,0.5,0.2,0.8,0,1
			C-4.5,17-11,27.5-18.5,37.2c-1.9,2.5-3.5,5.1-2.6,8.6c0.2,0.9,0.4,1.7,1,2.5c4.3,5.6,7.8,11.8,11.6,17.8c1.6,2.5,1,5.5,0.6,8.2
			c-1.4,9.4-3.4,18.7-4.8,28.1C-13.5,107.2-13.5,112.2-13.8,117.2"/>
		<g style="clip-path:url(#SVGID_00000102531919198696481340000000964339666859637390_);">
			<text transform="matrix(2.973000e-02 -0.9996 0.9996 2.973000e-02 273.5897 208.5365)" class="st10 st11 st12">3</text>
			<text transform="matrix(2.973000e-02 -0.9996 0.9996 2.973000e-02 273.5222 210.7425)" class="st10 st11 st12">9</text>
			<text transform="matrix(2.973000e-02 -0.9996 0.9996 2.973000e-02 273.4566 212.9466)" class="st10 st11 st12">3</text>
			<text transform="matrix(2.973000e-02 -0.9996 0.9996 2.973000e-02 273.4333 213.7314)" class="st10 st11 st12"> </text>
			<text transform="matrix(2.973000e-02 -0.9996 0.9996 2.973000e-02 273.3758 215.7287)" class="st10 st11 st12">y</text>
			<text transform="matrix(2.973000e-02 -0.9996 0.9996 2.973000e-02 273.29 218.5486)" class="st10 st11 st12">w</text>
			<text transform="matrix(2.973000e-02 -0.9996 0.9996 2.973000e-02 273.2101 221.233)" class="st10 st11 st12">H</text>
			<text transform="matrix(2.973000e-02 -0.9996 0.9996 2.973000e-02 273.1888 222.0169)" class="st10 st11 st12"> </text>
			<text transform="matrix(2.973000e-02 -0.9996 0.9996 2.973000e-02 273.1293 224.016)" class="st10 st11 st12">y</text>
			<text transform="matrix(2.973000e-02 -0.9996 0.9996 2.973000e-02 273.0877 225.4138)" class="st10 st11 st12">t</text>
			<text transform="matrix(2.973000e-02 -0.9996 0.9996 2.973000e-02 273.0254 227.5086)" class="st10 st11 st12">n</text>
			<text transform="matrix(2.973000e-02 -0.9996 0.9996 2.973000e-02 272.962 229.577)" class="st10 st11 st12">u</text>
			<text transform="matrix(2.973000e-02 -0.9996 0.9996 2.973000e-02 272.8926 231.9099)" class="st10 st11 st12">o</text>
			<text transform="matrix(2.973000e-02 -0.9996 0.9996 2.973000e-02 272.8196 234.4294)" class="st10 st11 st12">C</text>
			<text transform="matrix(2.973000e-02 -0.9996 0.9996 2.973000e-02 272.7962 235.2152)" class="st10 st11 st12"> </text>
			<text transform="matrix(2.973000e-02 -0.9996 0.9996 2.973000e-02 272.726 237.5755)" class="st10 st11 st12">S</text>
		</g>
		<g style="clip-path:url(#SVGID_00000102531919198696481340000000964339666859637390_);">
			
				<text transform="matrix(4.277000e-02 -0.9991 0.9991 4.277000e-02 266.7435 88.6607)" class="st10 st11" style="font-size:4.0636px;">3</text>
			
				<text transform="matrix(4.277000e-02 -0.9991 0.9991 4.277000e-02 266.6491 90.8657)" class="st10 st11" style="font-size:4.0636px;">9</text>
			
				<text transform="matrix(4.277000e-02 -0.9991 0.9991 4.277000e-02 266.5548 93.0697)" class="st10 st11" style="font-size:4.0636px;">3</text>
			
				<text transform="matrix(4.277000e-02 -0.9991 0.9991 4.277000e-02 266.5213 93.8522)" class="st10 st11" style="font-size:4.0636px;"> </text>
			
				<text transform="matrix(4.277000e-02 -0.9991 0.9991 4.277000e-02 266.4358 95.8503)" class="st10 st11" style="font-size:4.0636px;">y</text>
			
				<text transform="matrix(4.277000e-02 -0.9991 0.9991 4.277000e-02 266.3151 98.6681)" class="st10 st11" style="font-size:4.0636px;">w</text>
			
				<text transform="matrix(4.277000e-02 -0.9991 0.9991 4.277000e-02 266.2003 101.3502)" class="st10 st11" style="font-size:4.0636px;">H</text>
			
				<text transform="matrix(4.277000e-02 -0.9991 0.9991 4.277000e-02 266.1667 102.1356)" class="st10 st11" style="font-size:4.0636px;"> </text>
			
				<text transform="matrix(4.277000e-02 -0.9991 0.9991 4.277000e-02 266.0793 104.1317)" class="st10 st11" style="font-size:4.0636px;">y</text>
			
				<text transform="matrix(4.277000e-02 -0.9991 0.9991 4.277000e-02 266.0215 105.528)" class="st10 st11" style="font-size:4.0636px;">t</text>
			
				<text transform="matrix(4.277000e-02 -0.9991 0.9991 4.277000e-02 265.9317 107.6237)" class="st10 st11" style="font-size:4.0636px;">n</text>
			
				<text transform="matrix(4.277000e-02 -0.9991 0.9991 4.277000e-02 265.8433 109.6901)" class="st10 st11" style="font-size:4.0636px;">u</text>
			
				<text transform="matrix(4.277000e-02 -0.9991 0.9991 4.277000e-02 265.7414 112.0238)" class="st10 st11" style="font-size:4.0636px;">o</text>
			
				<text transform="matrix(4.277000e-02 -0.9991 0.9991 4.277000e-02 265.6356 114.5421)" class="st10 st11" style="font-size:4.0636px;">C</text>
			
				<text transform="matrix(4.277000e-02 -0.9991 0.9991 4.277000e-02 265.6021 115.3246)" class="st10 st11" style="font-size:4.0636px;"> </text>
			
				<text transform="matrix(4.277000e-02 -0.9991 0.9991 4.277000e-02 265.5011 117.6838)" class="st10 st11" style="font-size:4.0636px;">S</text>
		</g>
		<g style="clip-path:url(#SVGID_00000102531919198696481340000000964339666859637390_);">
			
				<text transform="matrix(4.277000e-02 -0.9991 0.9991 4.277000e-02 269.7917 -11.9978)" class="st10 st11" style="font-size:4.0636px;">3</text>
			
				<text transform="matrix(4.277000e-02 -0.9991 0.9991 4.277000e-02 269.6973 -9.7918)" class="st10 st11" style="font-size:4.0636px;">9</text>
			
				<text transform="matrix(4.277000e-02 -0.9991 0.9991 4.277000e-02 269.6029 -7.5868)" class="st10 st11" style="font-size:4.0636px;">3</text>
			
				<text transform="matrix(4.277000e-02 -0.9991 0.9991 4.277000e-02 269.5694 -6.8044)" class="st10 st11" style="font-size:4.0636px;"> </text>
			
				<text transform="matrix(4.277000e-02 -0.9991 0.9991 4.277000e-02 269.4839 -4.8072)" class="st10 st11" style="font-size:4.0636px;">y</text>
			
				<text transform="matrix(4.277000e-02 -0.9991 0.9991 4.277000e-02 269.3633 -1.9895)" class="st10 st11" style="font-size:4.0636px;">w</text>
			
				<text transform="matrix(4.277000e-02 -0.9991 0.9991 4.277000e-02 269.2503 0.6947)" class="st10 st11" style="font-size:4.0636px;">H</text>
			
				<text transform="matrix(4.277000e-02 -0.9991 0.9991 4.277000e-02 269.2148 1.478)" class="st10 st11" style="font-size:4.0636px;"> </text>
			
				<text transform="matrix(4.277000e-02 -0.9991 0.9991 4.277000e-02 269.1293 3.4762)" class="st10 st11" style="font-size:4.0636px;">y</text>
			
				<text transform="matrix(4.277000e-02 -0.9991 0.9991 4.277000e-02 269.0695 4.8734)" class="st10 st11" style="font-size:4.0636px;">t</text>
			
				<text transform="matrix(4.277000e-02 -0.9991 0.9991 4.277000e-02 268.9799 6.9662)" class="st10 st11" style="font-size:4.0636px;">n</text>
			
				<text transform="matrix(4.277000e-02 -0.9991 0.9991 4.277000e-02 268.8914 9.0346)" class="st10 st11" style="font-size:4.0636px;">u</text>
			
				<text transform="matrix(4.277000e-02 -0.9991 0.9991 4.277000e-02 268.7915 11.3674)" class="st10 st11" style="font-size:4.0636px;">o</text>
			
				<text transform="matrix(4.277000e-02 -0.9991 0.9991 4.277000e-02 268.6837 13.8856)" class="st10 st11" style="font-size:4.0636px;">C</text>
			
				<text transform="matrix(4.277000e-02 -0.9991 0.9991 4.277000e-02 268.6501 14.669)" class="st10 st11" style="font-size:4.0636px;"> </text>
			
				<text transform="matrix(4.277000e-02 -0.9991 0.9991 4.277000e-02 268.5492 17.0272)" class="st10 st11" style="font-size:4.0636px;">S</text>
		</g>
		<g style="clip-path:url(#SVGID_00000102531919198696481340000000964339666859637390_);">
			<text transform="matrix(1 0 0 1 98.3239 38.5451)"><tspan x="0" y="0" class="st10 st11 st12">F</tspan><tspan x="2" y="0" class="st10 st11 st12">air</tspan><tspan x="6.4" y="0" class="st10 st11 st12">w</tspan><tspan x="9.2" y="0" class="st10 st11 st12">ay D</tspan><tspan x="17.1" y="0" class="st10 st11 st12">r</tspan></text>
		</g>
		<g style="clip-path:url(#SVGID_00000102531919198696481340000000964339666859637390_);">
			<text transform="matrix(1 0 0 1 115.945 -7.91)"><tspan x="0" y="0" class="st10 st11 st12">Ridge </tspan><tspan x="11" y="0" class="st10 st11 st12">R</tspan><tspan x="13.5" y="0" class="st10 st11 st12">d</tspan></text>
		</g>
		<g style="clip-path:url(#SVGID_00000102531919198696481340000000964339666859637390_);">
			<text transform="matrix(0.6964 -0.7176 0.7176 0.6964 146.6136 60.0976)"><tspan x="0" y="0" class="st10 st11 st13">F</tspan><tspan x="3.1" y="0" class="st10 st11 st13">o</tspan><tspan x="6.4" y="0" class="st10 st11 st13">x</tspan><tspan x="9.2" y="0" class="st10 st11 st13"> </tspan><tspan x="10.4" y="0" class="st10 st11 st13">L</tspan><tspan x="13.8" y="0" class="st10 st11 st13">a</tspan><tspan x="17.3" y="0" class="st10 st11 st13">k</tspan><tspan x="20.1" y="0" class="st10 st11 st13">e</tspan></text>
		</g>
		<g style="clip-path:url(#SVGID_00000102531919198696481340000000964339666859637390_);">
			<text transform="matrix(0 -1 1 0 210.6091 33.5803)"><tspan x="0" y="0" class="st10 st11 st12">Beth L</tspan><tspan x="11.4" y="0" class="st10 st11 st12">n</tspan></text>
		</g>
		<g style="clip-path:url(#SVGID_00000102531919198696481340000000964339666859637390_);">
			<text transform="matrix(1 0 0 1 211.4929 44.2072)"><tspan x="0" y="0" class="st10 st11 st12">Ridge </tspan><tspan x="11" y="0" class="st10 st11 st12">R</tspan><tspan x="13.5" y="0" class="st10 st11 st12">d</tspan></text>
		</g>
		<g style="clip-path:url(#SVGID_00000102531919198696481340000000964339666859637390_);">
			<text transform="matrix(1 0 0 1 -4.5433 -7.8855)" class="st10 st14 st15">Golf</text>
		</g>
		<g style="clip-path:url(#SVGID_00000102531919198696481340000000964339666859637390_);">
			<text transform="matrix(1 0 0 1 -3.6185 0.6486)" class="st10 st14 st15">Club</text>
		</g>
		<g style="clip-path:url(#SVGID_00000102531919198696481340000000964339666859637390_);">
			<defs>
				<rect id="SVGID_00000072960452684326916540000016257950284158931871_" x="-15.8" y="221.9" width="30.5" height="29"/>
			</defs>
			<clipPath id="SVGID_00000155138454762330474740000004454638772706174387_">
				<use xlink:href="#SVGID_00000072960452684326916540000016257950284158931871_"  style="overflow:visible;"/>
			</clipPath>
			<path style="clip-path:url(#SVGID_00000155138454762330474740000004454638772706174387_);fill:#FFFFFF;" d="M5.4,242.2H2.9
				c0.4-0.7,0.9-1.4,1.3-2C4.6,240.9,5,241.6,5.4,242.2 M4.6,239.7c-0.1,0-0.3,0-0.5,0c-0.2,0-0.4,0-0.6,0v0.1
				c0.2,0,0.4,0.1,0.5,0.2c-0.8,1.2-1.8,2.8-2.7,3.9c0.1,0,0.2,0,0.3,0c0.1,0,0.3,0,0.4,0c0.2-0.4,0.4-0.7,0.7-1.2h2.9
				c0.2,0.4,0.4,0.8,0.6,1.2c0.2,0,0.4,0,0.6,0c0.2,0,0.3,0,0.6,0c-1-1.4-1.6-2.5-2.4-3.8C4.9,239.7,4.8,239.7,4.6,239.7
				 M-1.3,243.5c-0.8,0-1.4-0.5-1.4-1.9c0-1.3,0.6-1.8,1.3-1.8c0.8,0,1.4,0.6,1.4,1.9C0,243.1-0.6,243.5-1.3,243.5 M1,241.7
				c0-1.5-1.1-2.1-2.3-2.1c-1.2,0-2.3,0.7-2.3,2.2c0,1.5,1.1,2.1,2.3,2.1C-0.1,243.9,1,243.2,1,241.7 M-7.9,239.7l-0.2,0.7l0.1,0
				c0.2-0.2,0.4-0.2,0.7-0.2h2.1l-1.9,1.3v0.1c1.1,0,1.9,0.1,1.9,0.9c0,0.9-0.8,1-1.4,1c-0.6,0-1.3-0.2-1.8-0.8l-0.1,0l0.1,0.6
				c0.4,0.3,1.2,0.4,1.8,0.4c0.7,0,2.2-0.1,2.2-1.3c0-1.1-1.1-1.2-2-1.2l2.1-1.7v-0.1H-7.9z"/>
			<path style="clip-path:url(#SVGID_00000155138454762330474740000004454638772706174387_);fill:#FFFFFF;" d="M5.8,237
				c0-0.2-0.1-0.5-0.1-1c0-0.6,0.5-1.6,1.2-2.2c0.3-0.2,0.5-0.3,0.8-0.3c0.1,0,0.2,0,0.3,0.1l0-0.1c-0.2-0.1-0.4-0.1-0.6-0.1
				c-0.8,0-1.6,0.8-1.9,1.8c-0.2-1.1-0.9-1.8-1.8-1.8c-0.3,0-0.6,0.1-1,0.2l0,0.1c0.1,0,0.3-0.1,0.4-0.1c1.1,0,1.8,1.5,1.8,2.4
				c0,0.5-0.1,0.8-0.1,1c0.2,0,0.3,0,0.5,0C5.5,236.9,5.6,237,5.8,237 M-2.3,237.1c0.5-0.9,1-1.8,1.4-2.7c0.5,0.9,1,1.8,1.5,2.7h0.1
				c0.7-1.3,1.3-2.5,2-3.7c-0.1,0-0.2,0-0.3,0c-0.1,0-0.2,0-0.3,0c-0.5,1-0.8,1.7-1.2,2.5c-0.5-0.8-1-1.7-1.5-2.6h-0.1
				c-0.5,1-1,1.8-1.5,2.6c-0.4-0.8-0.8-1.7-1.2-2.5c-0.1,0-0.3,0-0.5,0c-0.2,0-0.4,0-0.5,0C-3.6,234.6-3,235.8-2.3,237.1L-2.3,237.1
				z M-4.8,237c0-0.3-0.1-0.8-0.1-1.8c0-1.2,0-1.4,0.1-1.8c-0.2,0-0.3,0-0.5,0c-0.2,0-0.3,0-0.5,0c0,0.3,0.1,0.5,0.1,1.5h-2.7
				c0-1,0-1.2,0.1-1.5c-0.2,0-0.3,0-0.5,0c-0.2,0-0.3,0-0.5,0c0,0.3,0.1,0.6,0.1,1.8c0,1,0,1.5-0.1,1.8c0.2,0,0.3,0,0.5,0
				c0.2,0,0.3,0,0.5,0c0-0.3-0.1-0.8-0.1-1.6h2.7c0,0.9,0,1.3-0.1,1.6c0.2,0,0.3,0,0.5,0C-5.1,236.9-4.9,237-4.8,237"/>
		</g>
	</g>
	<g>
		<defs>
			<rect id="SVGID_00000080911737621692614950000005278226598693143455_" x="28.6" y="57.3" width="103.6" height="43.7"/>
		</defs>
		<clipPath id="SVGID_00000171696636574573645750000002195398287445512341_">
			<use xlink:href="#SVGID_00000080911737621692614950000005278226598693143455_"  style="overflow:visible;"/>
		</clipPath>
		<path style="clip-path:url(#SVGID_00000171696636574573645750000002195398287445512341_);fill:#207E80;" d="M80.4,69.8
			c-2.6,0-4.8-2.1-4.8-4.8c0-2.6,2.1-4.8,4.8-4.8c2.6,0,4.8,2.1,4.8,4.8C85.2,67.7,83,69.8,80.4,69.8 M80.4,57.3
			c-4.3,0-7.8,3.5-7.8,7.8c0,5.9,7.8,12.8,7.8,12.8s7.8-6.7,7.8-12.8C88.2,60.8,84.7,57.3,80.4,57.3"/>
		<path style="clip-path:url(#SVGID_00000171696636574573645750000002195398287445512341_);fill:#207E80;" d="M51,88.1
			c0.2,1.4,0.2,2.8,0.2,4.2c0,2.7-1.9,3.7-3.7,3.7c-1.7,0-3.4-1.1-3.4-3.7v-0.5c0-1.2,0-2.5,0.2-3.7c-0.3,0-0.8,0.1-1.2,0.1
			c-0.5,0-0.9,0-1.2-0.1c0.2,1.4,0.2,2.8,0.2,4.2c0,3.6,2.5,4.7,5.1,4.7c2.7,0,5.2-1.5,5.2-4.7c0-1.4,0-2.8,0.2-4.2
			c-0.2,0-0.5,0.1-0.7,0.1C51.5,88.2,51.2,88.2,51,88.1 M40.4,86.8c-0.2,0-0.6,0-1.1,0h-9.2c-0.4,0-0.7,0-1.1,0h-0.2l-0.3,1.6l0.2,0
			c0.4-0.5,0.8-0.7,1.3-0.7h3.5c0.1,0.7,0.1,1.7,0.1,4c0,2.7-0.1,4.1-0.2,5c0.4,0,0.8-0.1,1.2-0.1c0.4,0,0.8,0,1.2,0.1
			c-0.1-0.9-0.2-2.3-0.2-5c0-2.2,0-3.3,0.1-4h3.5c0.5,0,1,0.2,1.3,0.7l0.2,0l-0.3-1.6H40.4z M108.8,88.2c-0.4,0-0.8,0-1.1-0.1
			c0.1,0.8,0.2,1.4,0.2,4.3c0,2.4-0.1,3.6-0.2,4.4c0.4,0,0.8-0.1,1.1-0.1c0.4,0,0.8,0,1.2,0.1c-0.1-0.8-0.2-2-0.2-4.4
			c0-2.9,0.1-3.4,0.2-4.3C109.6,88.1,109.2,88.2,108.8,88.2 M132.1,95c-0.7,0.8-1.4,0.9-2.5,0.9h-4.6c0-1-0.1-2-0.1-3.1h3
			c0.5,0,1.8,0,2.3,0.2c0-0.2,0-0.4,0-0.6c0-0.2,0-0.4,0-0.6c-0.5,0.1-1.7,0.2-2.3,0.2h-3c0-0.9,0.1-1.9,0.1-2.8h5.1
			c0.7,0,1.3,0.1,1.6,0.5l0.1,0l-0.3-1.2c0-0.1-0.1-0.2-0.2-0.2c-3.3,0-4.4,0.1-5.4,0.1c-1,0-2.2,0-3.1-0.1c0.1,0.8,0.2,1.4,0.2,4.3
			c0,2.4-0.1,3.6-0.2,4.4c1,0,2.1-0.1,3.1-0.1c1.1,0,2.3,0.1,5.4,0.1c0.2,0,0.3,0,0.4-0.2l0.7-1.5L132.1,95z M113.6,90.1
			c0-1.1,1.7-1.4,3-1.4c1.4,0,2.9,0.3,3.7,1.2l0.2-0.1l-0.3-1.3c-0.6-0.3-1.8-0.7-3.6-0.7c-1.8,0-4.8,0.2-4.8,2.7
			c0,3.9,7.4,1.6,7.4,4.1c0,1.3-1.6,1.6-3.3,1.6c-2.1,0-3.9-0.8-4.4-1.7l-0.2,0.1l0.4,1.7c1.1,0.5,2.2,0.8,4.2,0.8
			c1.7,0,5-0.2,5-2.9C121,90.1,113.6,92.3,113.6,90.1 M103.6,92.5c0-2.4-1.8-3.9-4.3-3.9c-2.4,0-4.3,1.3-4.3,3.8
			c0,2.4,1.8,3.8,4.3,3.8C101.7,96.3,103.6,95,103.6,92.5 M105.9,92.3c0,2.7-2.7,4.8-6.7,4.8c-3.6,0-6.6-1.6-6.6-4.5
			c0-2.8,2.7-4.7,6.7-4.7C103,87.8,105.9,89.5,105.9,92.3 M75.5,96.6c2.2-0.8,3.5-2.4,3.5-4.4c0-2.9-3.1-4.6-6.8-4.6
			c-0.2,0-0.5,0-0.7,0l0,0.8c0.2,0,0.4,0,0.6,0c2.6,0,4.4,1.5,4.4,4c0,2.3-1.6,3.6-3.6,3.9c-1.1,0.2-1.9,0.5-2.2,0.7
			c-0.2,0.1-0.3,0.1-0.3,0.1c-0.2,0.1-0.4,0.2-0.6,0.4c-0.8,0.5-1.5,1.2-2.1,2.2c7.8-8,14.8,7,21.9-1.5
			C85.8,101,80.4,97.5,75.5,96.6 M89.8,88.1c0.2,1.4,0.2,2.8,0.2,4.2c0,2.7-1.9,3.7-3.7,3.7c-1.7,0-3.4-1.1-3.4-3.7v-0.5
			c0-1.2,0-2.5,0.2-3.7c-0.3,0-0.8,0.1-1.2,0.1c-0.5,0-0.9,0-1.2-0.1c0.2,1.4,0.2,2.8,0.2,4.2c0,3.6,2.5,4.7,5.1,4.7
			c2.7,0,5.2-1.5,5.2-4.7c0-1.4,0-2.8,0.2-4.2c-0.2,0-0.5,0.1-0.7,0.1C90.2,88.2,89.9,88.2,89.8,88.1 M62,90.8c0-1-0.5-1.7-2.7-1.7
			h-2.8c0,0.6-0.1,1.4-0.1,3.4h2.9C61.5,92.5,62,91.8,62,90.8 M65.8,96.2l0.1,0.2c-0.5,0.3-1.2,0.6-2.2,0.6c-3.8,0-2.5-3.6-5.1-3.6
			h-2.2c0,1.7,0.1,2.7,0.2,3.4c-0.4,0-0.8-0.1-1.2-0.1c-0.4,0-0.8,0-1.1,0.1c0.1-0.8,0.2-2,0.2-4.4c0-2.9-0.1-3.4-0.2-4.3
			c0.6,0,1.2,0.1,1.8,0.1c0.5,0,2.5-0.1,3.2-0.1c3.5,0,4.9,0.6,4.9,2.6c0,1.5-0.7,2.2-2.5,2.5c0.3,0.2,0.5,0.6,0.7,0.9
			c0.7,1.1,1.1,2.4,2.3,2.4C65.1,96.6,65.4,96.5,65.8,96.2"/>
	</g>
	<polygon class="st18" points="66.1,87 68.8,90.1 68.8,90.1 68.8,90.1 66.3,86.9 	"/>
	<g>
		<defs>
			<rect id="SVGID_00000033369860022599427160000006920320272843245483_" x="28.6" y="57.3" width="103.6" height="43.7"/>
		</defs>
		<clipPath id="SVGID_00000008146680414952080830000014366770319375791770_">
			<use xlink:href="#SVGID_00000033369860022599427160000006920320272843245483_"  style="overflow:visible;"/>
		</clipPath>
		<path style="clip-path:url(#SVGID_00000008146680414952080830000014366770319375791770_);fill:#207E80;" d="M66.3,86.8L66.3,86.8
			L66.1,87l0,0l0,0l2.7,3.1l0,0l0,0l0,0l0,0L66.3,86.8L66.3,86.8z M66.3,86.9l2.5,3.2c0,0,0,0,0,0L66.1,87L66.3,86.9z"/>
	</g>
	<polygon class="st18" points="64.7,88.8 68.3,90.9 68.3,90.9 68.3,90.9 64.9,88.6 	"/>
	<g>
		<defs>
			<rect id="SVGID_00000178198656751550588970000018230501251758505129_" x="28.6" y="57.3" width="103.6" height="43.7"/>
		</defs>
		<clipPath id="SVGID_00000166644997957198444770000010634823591521216657_">
			<use xlink:href="#SVGID_00000178198656751550588970000018230501251758505129_"  style="overflow:visible;"/>
		</clipPath>
		<path style="clip-path:url(#SVGID_00000166644997957198444770000010634823591521216657_);fill:#207E80;" d="M64.9,88.6L64.9,88.6
			l-0.1,0.2l0,0l0,0l3.6,2.1l0,0l0,0l0,0l0,0L64.9,88.6L64.9,88.6z M64.9,88.6l3.4,2.2c0,0,0,0,0,0l-3.6-2.1L64.9,88.6z"/>
	</g>
	<polygon class="st18" points="70.6,84.4 70.9,88.6 70.9,88.6 71,88.6 70.8,84.4 	"/>
	<path class="st18" d="M70.6,84.4l0.2,0l0.2,4.2l0,0L70.6,84.4z M70.8,84.3l-0.2,0l0,0l0,0l0.4,4.2l0,0l0,0l0,0l0,0L70.8,84.3
		L70.8,84.3L70.8,84.3z"/>
	<polygon class="st18" points="68.1,85.2 69.6,89.3 69.6,89.3 69.6,89.3 68.4,85.1 	"/>
	<g>
		<defs>
			<rect id="SVGID_00000012430640972115235900000013352557319380043958_" x="28.6" y="57.3" width="103.6" height="43.7"/>
		</defs>
		<clipPath id="SVGID_00000057847417068232246570000009950544645438020514_">
			<use xlink:href="#SVGID_00000012430640972115235900000013352557319380043958_"  style="overflow:visible;"/>
		</clipPath>
		<path style="clip-path:url(#SVGID_00000057847417068232246570000009950544645438020514_);fill:#207E80;" d="M68.4,85.1L68.4,85.1
			l-0.2,0.1l0,0l0,0l1.5,4.1l0,0l0,0l0,0l0,0L68.4,85.1L68.4,85.1z M68.4,85.1l1.3,4.1c0,0,0,0,0,0l-1.5-4.1L68.4,85.1z"/>
		<path style="clip-path:url(#SVGID_00000057847417068232246570000009950544645438020514_);fill:#207E80;" d="M70.2,88.7l-0.3-2.8
			c0,0-0.1,0-0.1,0L70.2,88.7C70.2,88.7,70.2,88.7,70.2,88.7"/>
		
			<path style="clip-path:url(#SVGID_00000057847417068232246570000009950544645438020514_);fill:none;stroke:#207E80;stroke-width:0.14;stroke-miterlimit:10;" d="
			M70.2,88.7l-0.3-2.8c0,0-0.1,0-0.1,0L70.2,88.7C70.2,88.7,70.2,88.7,70.2,88.7z"/>
		<path style="clip-path:url(#SVGID_00000057847417068232246570000009950544645438020514_);fill:#207E80;" d="M65.6,92
			c0,0,0,0.1,0,0.1l2.3,0.2c0,0,0,0,0,0L65.6,92z"/>
		
			<path style="clip-path:url(#SVGID_00000057847417068232246570000009950544645438020514_);fill:none;stroke:#207E80;stroke-width:0.14;stroke-miterlimit:10;" d="
			M65.6,92c0,0,0,0.1,0,0.1l2.3,0.2c0,0,0,0,0,0L65.6,92z"/>
		<path style="clip-path:url(#SVGID_00000057847417068232246570000009950544645438020514_);fill:#207E80;" d="M69,89.5l-1.3-2.7
			c-0.1,0-0.1,0.1-0.2,0.1L69,89.5C69,89.5,69,89.5,69,89.5"/>
		
			<path style="clip-path:url(#SVGID_00000057847417068232246570000009950544645438020514_);fill:none;stroke:#207E80;stroke-width:0.14;stroke-miterlimit:10;" d="
			M69,89.5l-1.3-2.7c-0.1,0-0.1,0.1-0.2,0.1L69,89.5C69,89.5,69,89.5,69,89.5z"/>
		<path style="clip-path:url(#SVGID_00000057847417068232246570000009950544645438020514_);fill:#207E80;" d="M70.1,96.1
			c0,0,0.1,0,0.1,0.1l0.1-0.4c0,0,0,0,0,0L70.1,96.1z"/>
		
			<path style="clip-path:url(#SVGID_00000057847417068232246570000009950544645438020514_);fill:none;stroke:#207E80;stroke-width:0.14;stroke-miterlimit:10;" d="
			M70.1,96.1c0,0,0.1,0,0.1,0.1l0.1-0.4c0,0,0,0,0,0L70.1,96.1z"/>
		<path style="clip-path:url(#SVGID_00000057847417068232246570000009950544645438020514_);fill:#207E80;" d="M66.1,88.6l2.3,1.7
			c0,0,0,0,0,0l-2.2-1.8C66.2,88.5,66.1,88.6,66.1,88.6"/>
		
			<path style="clip-path:url(#SVGID_00000057847417068232246570000009950544645438020514_);fill:none;stroke:#207E80;stroke-width:0.14;stroke-miterlimit:10;" d="
			M66.1,88.6l2.3,1.7c0,0,0,0,0,0l-2.2-1.8C66.2,88.5,66.1,88.6,66.1,88.6z"/>
		<path style="clip-path:url(#SVGID_00000057847417068232246570000009950544645438020514_);fill:#207E80;" d="M68,91.2l-2.5-1.1
			c0,0.1,0,0.1,0,0.2L68,91.2C68,91.2,68,91.2,68,91.2"/>
		
			<path style="clip-path:url(#SVGID_00000057847417068232246570000009950544645438020514_);fill:none;stroke:#207E80;stroke-width:0.14;stroke-miterlimit:10;" d="
			M68,91.2l-2.5-1.1c0,0.1,0,0.1,0,0.2L68,91.2C68,91.2,68,91.2,68,91.2z"/>
		<path style="clip-path:url(#SVGID_00000057847417068232246570000009950544645438020514_);fill:#207E80;" d="M67.9,92.9
			C67.9,92.9,67.9,92.9,67.9,92.9l-2-0.1c0,0,0,0.1,0.1,0.1L67.9,92.9z"/>
		
			<path style="clip-path:url(#SVGID_00000057847417068232246570000009950544645438020514_);fill:none;stroke:#207E80;stroke-width:0.14;stroke-miterlimit:10;" d="
			M67.9,92.9C67.9,92.9,67.9,92.9,67.9,92.9l-2-0.1c0,0,0,0.1,0.1,0.1L67.9,92.9z"/>
		<path style="clip-path:url(#SVGID_00000057847417068232246570000009950544645438020514_);fill:#207E80;" d="M69.1,95.3
			C69.1,95.3,69.1,95.3,69.1,95.3l-0.5,0.2c0,0,0.1,0,0.1,0.1L69.1,95.3z"/>
		
			<path style="clip-path:url(#SVGID_00000057847417068232246570000009950544645438020514_);fill:none;stroke:#207E80;stroke-width:0.14;stroke-miterlimit:10;" d="
			M69.1,95.3C69.1,95.3,69.1,95.3,69.1,95.3l-0.5,0.2c0,0,0.1,0,0.1,0.1L69.1,95.3z"/>
		<path style="clip-path:url(#SVGID_00000057847417068232246570000009950544645438020514_);fill:#207E80;" d="M69.8,95.6
			C69.8,95.6,69.8,95.6,69.8,95.6l-0.5,0.3c0.1,0,0.1,0,0.2,0.1L69.8,95.6z"/>
		
			<path style="clip-path:url(#SVGID_00000057847417068232246570000009950544645438020514_);fill:none;stroke:#207E80;stroke-width:0.14;stroke-miterlimit:10;" d="
			M69.8,95.6C69.8,95.6,69.8,95.6,69.8,95.6l-0.5,0.3c0.1,0,0.1,0,0.2,0.1L69.8,95.6z"/>
		<path style="clip-path:url(#SVGID_00000057847417068232246570000009950544645438020514_);fill:#207E80;" d="M68.6,94.8
			C68.6,94.8,68.6,94.8,68.6,94.8L67.8,95c0,0,0.1,0.1,0.1,0.1L68.6,94.8z"/>
		
			<path style="clip-path:url(#SVGID_00000057847417068232246570000009950544645438020514_);fill:none;stroke:#207E80;stroke-width:0.14;stroke-miterlimit:10;" d="
			M68.6,94.8C68.6,94.8,68.6,94.8,68.6,94.8L67.8,95c0,0,0.1,0.1,0.1,0.1L68.6,94.8z"/>
		<path style="clip-path:url(#SVGID_00000057847417068232246570000009950544645438020514_);fill:#207E80;" d="M67.9,91.8
			C67.9,91.8,67.9,91.8,67.9,91.8l-2.5-0.7v0c0,0.1,0,0.1,0,0.2L67.9,91.8z"/>
		
			<path style="clip-path:url(#SVGID_00000057847417068232246570000009950544645438020514_);fill:none;stroke:#207E80;stroke-width:0.14;stroke-miterlimit:10;" d="
			M67.9,91.8C67.9,91.8,67.9,91.8,67.9,91.8l-2.5-0.7v0c0,0.1,0,0.1,0,0.2L67.9,91.8z"/>
		<path style="clip-path:url(#SVGID_00000057847417068232246570000009950544645438020514_);fill:#207E80;" d="M67.1,94.4l1.1-0.2
			c0,0,0,0,0,0L67,94.3C67,94.4,67.1,94.4,67.1,94.4"/>
		
			<path style="clip-path:url(#SVGID_00000057847417068232246570000009950544645438020514_);fill:none;stroke:#207E80;stroke-width:0.14;stroke-miterlimit:10;" d="
			M67.1,94.4l1.1-0.2c0,0,0,0,0,0L67,94.3C67,94.4,67.1,94.4,67.1,94.4z"/>
		<path style="clip-path:url(#SVGID_00000057847417068232246570000009950544645438020514_);fill:#207E80;" d="M68,93.6l-1.5,0
			c0,0,0.1,0,0.1,0.1L68,93.6C68,93.6,68,93.6,68,93.6"/>
		
			<path style="clip-path:url(#SVGID_00000057847417068232246570000009950544645438020514_);fill:none;stroke:#207E80;stroke-width:0.14;stroke-miterlimit:10;" d="
			M68,93.6l-1.5,0c0,0,0.1,0,0.1,0.1L68,93.6C68,93.6,68,93.6,68,93.6z"/>
	</g>
	<g>
		<defs>
			<polygon id="SVGID_00000176723753661537486080000002184948245119394189_" points="2.3,2.6 0.4,54.4 2.8,91.8 3.6,164.1 
				41.2,162.8 164.6,166.6 164.6,2.6 			"/>
		</defs>
		<clipPath id="SVGID_00000065779563860833449460000004948684037693614521_">
			<use xlink:href="#SVGID_00000176723753661537486080000002184948245119394189_"  style="overflow:visible;"/>
		</clipPath>
		<path style="clip-path:url(#SVGID_00000065779563860833449460000004948684037693614521_);fill:#207E80;" d="M-268.1,140.8
			c-3,0-5.4,2.4-5.4,5.4c0,4.1,5.4,8.8,5.4,8.8s5.4-4.6,5.4-8.8C-262.7,143.3-265.1,140.8-268.1,140.8 M-268.1,148.4
			c-1.4,0-2.5-1.1-2.5-2.5s1.1-2.5,2.5-2.5c1.4,0,2.5,1.1,2.5,2.5S-266.8,148.4-268.1,148.4"/>
	</g>
	<g>
		<defs>
			<polygon id="SVGID_00000043439208184231827410000009849804067747982495_" points="2.3,2.6 0.4,54.4 2.8,91.8 3.6,164.1 
				41.2,162.8 164.6,166.6 164.6,2.6 			"/>
		</defs>
		<clipPath id="SVGID_00000001637922391004453620000011794717532274945190_">
			<use xlink:href="#SVGID_00000043439208184231827410000009849804067747982495_"  style="overflow:visible;"/>
		</clipPath>
		<g style="clip-path:url(#SVGID_00000001637922391004453620000011794717532274945190_);">
			<text transform="matrix(1 0 0 1 -261.5257 148.6945)"><tspan x="0" y="0" class="st10 st11" style="font-size:6.0955px;">St</tspan><tspan x="5.6" y="0" class="st10 st11" style="font-size:6.0955px;">i</tspan><tspan x="6.7" y="0" class="st10 st11" style="font-size:6.0955px;">nk</tspan><tspan x="12.9" y="0" class="st10 st11" style="font-size:6.0955px;">y</tspan><tspan x="15.9" y="0" class="st10 st11" style="font-size:6.0955px;">&apos;s</tspan><tspan x="20" y="0" class="st10 st11" style="font-size:6.0955px;"> </tspan></text>
		</g>
		<g style="clip-path:url(#SVGID_00000001637922391004453620000011794717532274945190_);">
			<text transform="matrix(1 0 0 1 -261.5257 156.2238)"><tspan x="0" y="0" class="st10 st11" style="font-size:6.0955px;">F</tspan><tspan x="3.2" y="0" class="st10 st11" style="font-size:6.0955px;">i</tspan><tspan x="4.3" y="0" class="st10 st11" style="font-size:6.0955px;">s</tspan><tspan x="7" y="0" class="st10 st11" style="font-size:6.0955px;">h Cam</tspan><tspan x="23.7" y="0" class="st10 st11" style="font-size:6.0955px;">p</tspan></text>
		</g>
	</g>
	<g>
		<defs>
			<polygon id="SVGID_00000153696670198207866020000008405422041260095406_" points="2.3,2.6 0.4,54.4 2.8,91.8 3.6,164.1 
				41.2,162.8 164.6,166.6 164.6,2.6 			"/>
		</defs>
		<clipPath id="SVGID_00000179633418261182270900000002811524881234622093_">
			<use xlink:href="#SVGID_00000153696670198207866020000008405422041260095406_"  style="overflow:visible;"/>
		</clipPath>
		<g style="opacity:0.25;clip-path:url(#SVGID_00000179633418261182270900000002811524881234622093_);">
			<g>
				<defs>
					<rect id="SVGID_00000013169457121309859920000016131986504218981286_" x="-405.1" y="153.9" width="812" height="643.7"/>
				</defs>
				<clipPath id="SVGID_00000133495214578936788950000015839820513931638460_">
					<use xlink:href="#SVGID_00000013169457121309859920000016131986504218981286_"  style="overflow:visible;"/>
				</clipPath>
				<g style="clip-path:url(#SVGID_00000133495214578936788950000015839820513931638460_);">
					<defs>
						<rect id="SVGID_00000181797859767944896440000014724714320597097905_" x="-405.1" y="153.9" width="812" height="643.7"/>
					</defs>
					<clipPath id="SVGID_00000054266006214438604060000017622731002911668368_">
						<use xlink:href="#SVGID_00000181797859767944896440000014724714320597097905_"  style="overflow:visible;"/>
					</clipPath>
					<path style="clip-path:url(#SVGID_00000054266006214438604060000017622731002911668368_);fill:#96C4CE;" d="M406.9,433.6
						l-210.6-77c0,0-15.2-11-51.8-16.5l-53.6-15.6c0,0-98.2-47.7-170.5-56.9L-175,230l-25.9-11c0,0-61.6-3.7-108.9-37.6
						c0,0-71.9-2.8-95.3-27.5v156.5v123.2v364H404v-357L406.9,433.6z"/>
				</g>
			</g>
		</g>
	</g>
	<g>
		<defs>
			<polygon id="SVGID_00000011712459094938500410000006332220524177426314_" points="2.3,2.6 0.4,54.4 2.8,91.8 3.6,164.1 
				41.2,162.8 164.6,166.6 164.6,2.6 			"/>
		</defs>
		<clipPath id="SVGID_00000127760691784776052850000008646879661714330283_">
			<use xlink:href="#SVGID_00000011712459094938500410000006332220524177426314_"  style="overflow:visible;"/>
		</clipPath>
		<g style="clip-path:url(#SVGID_00000127760691784776052850000008646879661714330283_);">
			<defs>
				<rect id="SVGID_00000165211171775884148200000015317536089066058895_" x="219.8" y="349.8" width="78.6" height="78.6"/>
			</defs>
			<clipPath id="SVGID_00000011750361431764744620000000475085045366294943_">
				<use xlink:href="#SVGID_00000165211171775884148200000015317536089066058895_"  style="overflow:visible;"/>
			</clipPath>
			<path style="clip-path:url(#SVGID_00000011750361431764744620000000475085045366294943_);fill:#167375;" d="M238.7,357.5
				c-2.3,0-4.2,1.9-4.2,4.2c0,3.2,4.2,6.9,4.2,6.9s4.2-3.6,4.2-6.9C242.9,359.4,241,357.5,238.7,357.5 M238.7,363.4
				c-1.1,0-1.9-0.9-1.9-1.9c0-1.1,0.9-1.9,1.9-1.9c1.1,0,1.9,0.9,1.9,1.9C240.6,362.6,239.7,363.4,238.7,363.4"/>
		</g>
		<g style="clip-path:url(#SVGID_00000127760691784776052850000008646879661714330283_);">
			<text transform="matrix(1 0 0 1 233.6911 391.1399)"><tspan x="0" y="0" class="st10 st14" style="font-size:8.8582px;">F</tspan><tspan x="7.8" y="0" class="st10 st14" style="font-size:8.8582px;">l</tspan><tspan x="14.1" y="0" class="st10 st14" style="font-size:8.8582px;">ori</tspan><tspan x="34.4" y="0" class="st10 st14" style="font-size:8.8582px;">d</tspan><tspan x="42.5" y="0" class="st10 st14" style="font-size:8.8582px;">a</tspan></text>
		</g>
	</g>
	<rect x="1.5" y="2.5" class="st29" width="162" height="161.8"/>
</g>
</svg>
