<svg xmlns="http://www.w3.org/2000/svg" width="119.578" height="79.28"
    viewBox="900.211 768.256 119.578 79.28">
    <g data-name="Group 634">
        <path
            d="M951.863 826.866c10.406-3.887 16.766-11.569 16.766-20.93 0-14.101-14.69-22.178-32.509-22.178-1.13 0-2.236.041-3.323.104l-.194 4.037a30.434 30.434 0 0 1 3.108-.172c12.447 0 21.29 7.187 21.29 19.166 0 11.059-7.454 17.257-17.356 18.511-5.466.966-8.883 2.326-10.567 3.122-.79.375-1.198.623-1.258.652a28.98 28.98 0 0 0-2.914 1.721c-3.65 2.457-7.07 5.948-10.197 10.765 37.36-38.436 71.136 33.648 105.08-7.011-18.69 13.179-44.59-3.494-67.926-7.787"
            fill="#fff" fill-rule="evenodd" data-name="Path 19914" />
        <path d="m919.564 795.614-11.993-15.362-.807.696 12.773 14.703a.942.942 0 0 0 .027-.037"
            fill="#fff" fill-rule="evenodd" data-name="Path 19915" />
        <path d="m917.234 799.428-16.476-10.746-.547.913 17.016 9.854c.002-.006.003-.015.007-.021"
            fill="#fff" fill-rule="evenodd" data-name="Path 19916" />
        <path d="m929.964 788.413-.742-20.157-1.063.039 1.774 20.126.031-.008" fill="#fff"
            fill-rule="evenodd" data-name="Path 19917" />
        <path d="m923.573 791.646-6.11-19.858-1.01.338 7.095 19.538.025-.018" fill="#fff"
            fill-rule="evenodd" data-name="Path 19918" />
        <path
            d="m926.557 789.808-2.049-14.99c-.314.066-.626.135-.938.213l2.968 14.787c.006-.004.012-.008.02-.01"
            fill="#fff" fill-rule="evenodd" data-name="Path 19919" />
        <path d="M903.554 804.109c.063.347.132.693.211 1.036l11.946 1.701-.003-.093-12.154-2.644Z"
            fill="#fff" fill-rule="evenodd" data-name="Path 19920" />
        <path
            d="m921.225 793.655-7.253-14.225c-.29.205-.576.414-.856.63l8.076 13.63c.01-.012.02-.025.033-.035"
            fill="#fff" fill-rule="evenodd" data-name="Path 19921" />
        <path
            d="M925.56 824.552c.323.068.648.133.975.193l.548-1.089c-.07-.033-.142-.064-.208-.099l-1.315.995Z"
            fill="#fff" fill-rule="evenodd" data-name="Path 19922" />
        <path
            d="m906.167 788.132 12.15 9.214a.217.217 0 0 1 .021-.029l-11.659-10.078c-.177.294-.346.591-.512.893"
            fill="#fff" fill-rule="evenodd" data-name="Path 19923" />
        <path d="m916.423 801.628-12.853-6.277c-.063.339-.119.679-.168 1.022l13.011 5.288.01-.033"
            fill="#fff" fill-rule="evenodd" data-name="Path 19924" />
        <path d="m916.001 809.19-.019-.069-11.179-.599c.127.322.263.64.403.955L916 809.19Z"
            fill="#fff" fill-rule="evenodd" data-name="Path 19925" />
        <path d="m921.714 820.013-.177-.166-4.163 1.832c.344.174.691.349 1.043.513l3.297-2.179Z"
            fill="#fff" fill-rule="evenodd" data-name="Path 19926" />
        <path
            d="M924.292 822.066c-.072-.047-.14-.098-.21-.148l-2.703 1.469c.36.125.72.25 1.085.363l1.828-1.684Z"
            fill="#fff" fill-rule="evenodd" data-name="Path 19927" />
        <path d="m919.547 817.64-.107-.136-5.815 1.922c.302.214.611.419.923.622l5-2.408Z"
            fill="#fff" fill-rule="evenodd" data-name="Path 19928" />
        <path d="m915.878 804.17.006-.041-12.729-4.406-.002.051c0 .33.014.66.026.989l12.7 3.407Z"
            fill="#fff" fill-rule="evenodd" data-name="Path 19929" />
        <path d="m910.54 816.924 7.308-1.889-.076-.14-8.082 1.198c.277.281.559.56.85.831"
            fill="#fff" fill-rule="evenodd" data-name="Path 19930" />
        <path d="m916.594 812.118-9.807.365c.192.308.385.611.59.913l9.246-1.186-.029-.092"
            fill="#fff" fill-rule="evenodd" data-name="Path 19931" />
    </g>
</svg>
