<?xml version="1.0" encoding="UTF-8" standalone="no"?>
<svg
   xmlns:dc="http://purl.org/dc/elements/1.1/"
   xmlns:cc="http://creativecommons.org/ns#"
   xmlns:rdf="http://www.w3.org/1999/02/22-rdf-syntax-ns#"
   xmlns:svg="http://www.w3.org/2000/svg"
   xmlns="http://www.w3.org/2000/svg"
   viewBox="0 0 302.832 48.365799"
   height="48.365799"
   width="302.832"
   xml:space="preserve"
   id="svg2"
   version="1.1"><metadata
     id="metadata8"><rdf:RDF><cc:Work
         rdf:about=""><dc:format>image/svg+xml</dc:format><dc:type
           rdf:resource="http://purl.org/dc/dcmitype/StillImage" /><dc:title></dc:title></cc:Work></rdf:RDF></metadata><defs
     id="defs6"><clipPath
       id="clipPath22"
       clipPathUnits="userSpaceOnUse"><path
         id="path20"
         d="M 0,1080 H 1920 V 0 H 0 Z" /></clipPath><clipPath
       id="clipPath30"
       clipPathUnits="userSpaceOnUse"><path
         id="path28"
         d="m 1219.09,1019.5 h 58.87 v -16.14 h -58.87 z" /></clipPath><clipPath
       id="clipPath46"
       clipPathUnits="userSpaceOnUse"><path
         id="path44"
         d="m 1390.75,1019.5 h 127.94 v -16.14 h -127.94 z" /></clipPath><clipPath
       id="clipPath62"
       clipPathUnits="userSpaceOnUse"><path
         id="path60"
         d="m 1663.2,1019.5 h 92.61 v -16.14 h -92.61 z" /></clipPath><clipPath
       id="clipPath78"
       clipPathUnits="userSpaceOnUse"><path
         id="path76"
         d="m 1308.44,1019.5 h 53.18 v -16.14 h -53.18 z" /></clipPath><clipPath
       id="clipPath94"
       clipPathUnits="userSpaceOnUse"><path
         id="path92"
         d="m 1540.83,1019.5 h 98.34 v -16.14 h -98.34 z" /></clipPath></defs><g
     transform="matrix(1.3333333,0,0,-1.3333333,255.1977,1704.8852)"
     id="g10"><g
       id="g467"><g
         id="g104"
         transform="translate(-142.20828,1270.4606)"><path
           d="m 0,0 c 0.422,-3.078 0.422,-6.186 0.422,-9.234 0,-5.885 -4.073,-8.208 -8.147,-8.208 -3.742,0 -7.514,2.384 -7.514,8.178 v 1.147 c 0,2.685 0.03,5.431 0.392,8.117 -0.664,-0.09 -1.659,-0.151 -2.655,-0.151 -0.996,0 -1.992,0.061 -2.656,0.151 0.423,-3.078 0.423,-6.186 0.423,-9.264 0,-7.846 5.582,-10.351 11.165,-10.351 6.005,0 11.376,3.229 11.376,10.381 0,3.048 0,6.156 0.393,9.234 C 2.776,-0.09 2.173,-0.151 1.569,-0.151 0.966,-0.151 0.362,-0.09 0,0 m -23.268,2.806 c -0.393,-0.06 -1.419,-0.06 -2.384,-0.06 H -45.84 c -0.966,0 -1.63,0.03 -2.354,0.06 h -0.362 l -0.634,-3.439 0.362,-0.091 c 0.785,1.086 1.66,1.448 2.867,1.448 h 7.725 c 0.121,-1.569 0.211,-3.802 0.211,-8.721 0,-5.914 -0.241,-8.932 -0.392,-11.014 0.875,0.06 1.811,0.12 2.686,0.12 0.875,0 1.841,-0.06 2.716,-0.12 -0.151,2.082 -0.393,5.1 -0.393,11.014 0,4.919 0.061,7.152 0.181,8.721 h 7.726 c 1.207,0 2.112,-0.362 2.866,-1.448 l 0.332,0.091 -0.603,3.439 z m 149.9,-2.927 c -0.815,0 -1.69,0.061 -2.505,0.121 0.181,-1.841 0.393,-3.018 0.393,-9.385 0,-5.16 -0.242,-7.785 -0.393,-9.626 0.815,0.06 1.69,0.12 2.505,0.12 0.845,0 1.72,-0.06 2.535,-0.12 -0.151,1.841 -0.393,4.466 -0.393,9.626 0,6.367 0.212,7.544 0.393,9.385 -0.815,-0.06 -1.69,-0.121 -2.535,-0.121 m 51.03,-14.937 c -1.63,-1.69 -2.987,-1.901 -5.583,-1.901 H 162 c -0.029,2.233 -0.15,4.466 -0.15,6.699 h 6.669 c 1.177,0 3.953,-0.06 4.949,-0.332 -0.091,0.543 -0.091,0.906 -0.091,1.358 0,0.423 0,0.815 0.091,1.358 -0.996,-0.241 -3.772,-0.332 -4.949,-0.332 h -6.669 c 0,2.022 0.121,4.104 0.15,6.156 h 11.075 c 1.479,0 2.928,-0.211 3.531,-1.147 l 0.271,0.091 -0.573,2.716 C 176.244,-0.09 176.153,0 175.852,0 c -7.152,0 -9.748,-0.121 -11.95,-0.121 -2.112,0 -4.738,0.061 -6.85,0.121 0.181,-1.841 0.392,-3.018 0.392,-9.385 0,-5.16 -0.241,-7.785 -0.392,-9.626 2.082,0.06 4.647,0.12 6.729,0.12 2.354,0 4.949,-0.12 11.739,-0.12 0.512,0 0.603,0.03 0.814,0.483 l 1.6,3.319 z m -40.468,10.803 c 0,2.414 3.802,3.018 6.548,3.018 3.078,0 6.428,-0.634 8.208,-2.686 l 0.332,0.121 -0.603,2.867 c -1.238,0.664 -4.014,1.539 -7.786,1.539 -3.983,0 -10.562,-0.363 -10.562,-5.854 0,-8.51 16.266,-3.531 16.266,-8.932 0,-2.777 -3.531,-3.591 -7.152,-3.591 -4.497,0 -8.54,1.689 -9.627,3.651 l -0.332,-0.121 0.906,-3.651 c 2.414,-1.057 4.737,-1.721 9.113,-1.721 3.651,0 10.954,0.543 10.954,6.428 0,8.751 -16.265,4.044 -16.265,8.932 m -22.031,-5.341 c 0,5.281 -3.923,8.449 -9.446,8.449 -5.19,0 -9.385,-2.776 -9.385,-8.298 0,-5.281 3.863,-8.419 9.415,-8.419 5.221,0 9.416,2.776 9.416,8.268 m 5.159,0.422 c 0,-6.005 -5.974,-10.441 -14.756,-10.441 -7.876,0 -14.394,3.591 -14.394,9.868 0,6.035 6.005,10.351 14.726,10.351 7.906,0 14.424,-3.562 14.424,-9.778 m -66.638,-9.44 c 4.761,1.779 7.672,5.293 7.672,9.577 0,6.452 -6.722,10.148 -14.876,10.148 -0.517,0 -1.022,-0.019 -1.52,-0.049 l -0.089,-1.846 c 0.465,0.047 0.938,0.078 1.423,0.078 5.695,0 9.74,-3.288 9.74,-8.769 0,-5.06 -3.41,-7.896 -7.941,-8.469 -2.501,-0.442 -4.064,-1.065 -4.835,-1.429 -0.361,-0.171 -0.548,-0.286 -0.575,-0.298 -0.451,-0.232 -0.896,-0.494 -1.333,-0.788 -1.671,-1.124 -3.236,-2.722 -4.666,-4.925 17.093,17.586 32.548,-15.396 48.079,3.208 -8.552,-6.03 -20.401,1.598 -31.079,3.562 M 84.893,0 c 0.423,-3.078 0.423,-6.186 0.423,-9.234 0,-5.885 -4.074,-8.208 -8.148,-8.208 -3.742,0 -7.514,2.384 -7.514,8.178 v 1.147 c 0,2.685 0.03,5.431 0.393,8.117 -0.664,-0.09 -1.66,-0.151 -2.656,-0.151 -0.996,0 -1.991,0.061 -2.655,0.151 0.422,-3.078 0.422,-6.186 0.422,-9.264 0,-7.846 5.582,-10.351 11.165,-10.351 6.005,0 11.376,3.229 11.376,10.381 0,3.048 0,6.156 0.393,9.234 -0.423,-0.09 -1.026,-0.151 -1.629,-0.151 -0.604,0 -1.208,0.061 -1.57,0.151 M 23.932,-5.794 c 0,2.233 -1.086,3.742 -5.914,3.742 H 11.862 C 11.771,-3.38 11.711,-5.039 11.711,-9.536 h 6.307 c 4.828,0 5.914,1.479 5.914,3.742 m 8.51,-12.01 0.181,-0.332 c -1.086,-0.724 -2.565,-1.298 -4.858,-1.298 -8.299,0 -5.583,7.846 -11.136,7.846 h -4.888 c 0.03,-3.712 0.211,-5.823 0.362,-7.423 -0.815,0.06 -1.69,0.12 -2.535,0.12 -0.814,0 -1.69,-0.06 -2.504,-0.12 0.15,1.841 0.392,4.466 0.392,9.626 0,6.367 -0.211,7.544 -0.392,9.385 1.237,-0.06 2.655,-0.121 3.892,-0.121 1.207,0 5.523,0.121 7.062,0.121 7.725,0 10.682,-1.418 10.682,-5.794 0,-3.198 -1.569,-4.798 -5.402,-5.462 0.664,-0.543 1.147,-1.207 1.57,-1.9 1.569,-2.506 2.383,-5.342 4.949,-5.342 0.935,0 1.75,0.181 2.625,0.694"
           style="fill:#089d93;fill-opacity:1;fill-rule:nonzero;stroke:none"
           id="path106" /></g><g
         id="g108"
         transform="translate(-103.30268,1266.1462)"><path
           d="M 0,0 -5.488,7.029 -5.856,6.71 -0.013,-0.017 C -0.008,-0.011 -0.004,-0.006 0,0"
           style="fill:#089d93;fill-opacity:1;fill-rule:nonzero;stroke:none"
           id="path110" /></g><g
         id="g112"
         transform="translate(-104.36878,1264.401)"><path
           d="M 0,0 -7.538,4.917 -7.789,4.499 -0.004,-0.01 C -0.003,-0.006 -0.001,-0.003 0,0"
           style="fill:#089d93;fill-opacity:1;fill-rule:nonzero;stroke:none"
           id="path114" /></g><g
         id="g116"
         transform="translate(-98.544085,1269.4409)"><path
           d="M 0,0 -0.339,9.223 -0.826,9.205 -0.014,-0.004 C -0.009,-0.003 -0.005,-0.001 0,0"
           style="fill:#089d93;fill-opacity:1;fill-rule:nonzero;stroke:none"
           id="path118" /></g><g
         id="g120"
         transform="translate(-101.46848,1267.9618)"><path
           d="M 0,0 -2.796,9.086 -3.257,8.931 -0.011,-0.008 C -0.008,-0.005 -0.004,-0.003 0,0"
           style="fill:#089d93;fill-opacity:1;fill-rule:nonzero;stroke:none"
           id="path122" /></g><g
         id="g124"
         transform="translate(-100.10318,1268.8025)"><path
           d="M 0,0 -0.937,6.859 C -1.081,6.828 -1.224,6.797 -1.366,6.761 l 1.358,-6.765 C -0.005,-0.003 -0.003,-0.001 0,0"
           style="fill:#089d93;fill-opacity:1;fill-rule:nonzero;stroke:none"
           id="path126" /></g><g
         id="g128"
         transform="translate(-110.62818,1262.2591)"><path
           d="m 0,0 c 0.029,-0.159 0.06,-0.317 0.096,-0.474 l 5.466,-0.778 c 0,0.014 -0.001,0.028 -0.001,0.042 z"
           style="fill:#089d93;fill-opacity:1;fill-rule:nonzero;stroke:none"
           id="path130" /></g><g
         id="g132"
         transform="translate(-102.54288,1267.0425)"><path
           d="M 0,0 -3.319,6.508 C -3.451,6.414 -3.582,6.319 -3.71,6.221 l 3.695,-6.237 C -0.01,-0.011 -0.005,-0.005 0,0"
           style="fill:#089d93;fill-opacity:1;fill-rule:nonzero;stroke:none"
           id="path134" /></g><g
         id="g136"
         transform="translate(-100.55968,1252.9056)"><path
           d="M 0,0 C 0.148,-0.031 0.297,-0.061 0.447,-0.088 L 0.698,0.41 C 0.666,0.425 0.633,0.439 0.601,0.455 Z"
           style="fill:#089d93;fill-opacity:1;fill-rule:nonzero;stroke:none"
           id="path138" /></g><g
         id="g140"
         transform="translate(-109.43298,1269.5696)"><path
           d="m 0,0 5.56,-4.216 c 0.003,0.005 0.006,0.009 0.009,0.014 L 0.235,0.408 C 0.154,0.274 0.076,0.138 0,0"
           style="fill:#089d93;fill-opacity:1;fill-rule:nonzero;stroke:none"
           id="path142" /></g><g
         id="g144"
         transform="translate(-104.73978,1263.3944)"><path
           d="M 0,0 -5.881,2.872 C -5.91,2.717 -5.936,2.561 -5.958,2.404 l 5.953,-2.419 C -0.003,-0.01 -0.001,-0.005 0,0"
           style="fill:#089d93;fill-opacity:1;fill-rule:nonzero;stroke:none"
           id="path146" /></g><g
         id="g148"
         transform="translate(-104.93308,1259.9343)"><path
           d="m 0,0 c -0.003,0.011 -0.006,0.021 -0.008,0.032 l -5.115,0.274 c 0.057,-0.148 0.12,-0.293 0.183,-0.437 z"
           style="fill:#089d93;fill-opacity:1;fill-rule:nonzero;stroke:none"
           id="path150" /></g><g
         id="g152"
         transform="translate(-102.31898,1254.9822)"><path
           d="m 0,0 c -0.027,0.025 -0.054,0.051 -0.08,0.076 l -1.906,-0.838 c 0.158,-0.08 0.316,-0.159 0.478,-0.235 z"
           style="fill:#089d93;fill-opacity:1;fill-rule:nonzero;stroke:none"
           id="path154" /></g><g
         id="g156"
         transform="translate(-101.13978,1254.0431)"><path
           d="m 0,0 c -0.033,0.022 -0.064,0.045 -0.096,0.067 l -1.237,-0.671 c 0.165,-0.058 0.33,-0.115 0.497,-0.167 z"
           style="fill:#089d93;fill-opacity:1;fill-rule:nonzero;stroke:none"
           id="path158" /></g><g
         id="g160"
         transform="translate(-103.31038,1256.0683)"><path
           d="m 0,0 c -0.016,0.021 -0.033,0.041 -0.049,0.062 l -2.661,-0.88 c 0.138,-0.097 0.28,-0.191 0.423,-0.284 z"
           style="fill:#089d93;fill-opacity:1;fill-rule:nonzero;stroke:none"
           id="path162" /></g><g
         id="g164"
         transform="translate(-104.98908,1262.2315)"><path
           d="m 0,0 c 0.001,0.006 0.002,0.012 0.003,0.019 l -5.825,2.016 c 0,-0.008 -0.001,-0.016 -0.001,-0.024 0,-0.151 0.007,-0.302 0.013,-0.452 z"
           style="fill:#089d93;fill-opacity:1;fill-rule:nonzero;stroke:none"
           id="path166" /></g><g
         id="g168"
         transform="translate(-107.43178,1256.3958)"><path
           d="M 0,0 3.344,0.864 C 3.332,0.886 3.321,0.907 3.309,0.928 L -0.389,0.38 C -0.262,0.251 -0.133,0.124 0,0"
           style="fill:#089d93;fill-opacity:1;fill-rule:nonzero;stroke:none"
           id="path170" /></g><g
         id="g172"
         transform="translate(-104.66178,1258.5948)"><path
           d="m 0,0 -4.487,-0.167 c 0.087,-0.141 0.177,-0.28 0.27,-0.417 l 4.23,0.542 C 0.009,-0.028 0.005,-0.014 0,0"
           style="fill:#089d93;fill-opacity:1;fill-rule:nonzero;stroke:none"
           id="path174" /></g></g></g></svg>